<svg width="24" height="24" viewBox="0 0 24 24" fill="none" xmlns="http://www.w3.org/2000/svg">
<path d="M3.293 12.7193L10.293 19.7193C10.4816 19.9014 10.7342 20.0022 10.9964 20C11.2586 19.9977 11.5094 19.8925 11.6948 19.7071C11.8802 19.5217 11.9854 19.2709 11.9877 19.0087C11.99 18.7465 11.8892 18.4939 11.707 18.3053L6.414 13.0123H20C20.2652 13.0123 20.5196 12.9069 20.7071 12.7194C20.8946 12.5319 21 12.2775 21 12.0123C21 11.7471 20.8946 11.4927 20.7071 11.3052C20.5196 11.1176 20.2652 11.0123 20 11.0123H6.414L11.707 5.71929C11.8025 5.62704 11.8787 5.5167 11.9311 5.39469C11.9835 5.27269 12.0111 5.14147 12.0123 5.00869C12.0134 4.87591 11.9881 4.74423 11.9378 4.62134C11.8875 4.49844 11.8133 4.38679 11.7194 4.29289C11.6255 4.199 11.5139 4.12475 11.391 4.07447C11.2681 4.02418 11.1364 3.99888 11.0036 4.00004C10.8708 4.00119 10.7396 4.02878 10.6176 4.08119C10.4956 4.1336 10.3852 4.20978 10.293 4.30529L3.293 11.3053C3.10553 11.4928 3.00021 11.7471 3.00021 12.0123C3.00021 12.2775 3.10553 12.5318 3.293 12.7193Z" fill="#202028"/>
</svg>
