<svg width="60" height="60" viewBox="0 0 60 60" fill="none" xmlns="http://www.w3.org/2000/svg">
<path d="M27.5635 28.0674C27.6217 27.9003 27.8578 27.9003 27.916 28.0674L28.7842 30.5791C28.8261 30.7005 28.7358 30.8271 28.6074 30.8271H26.8721C26.7437 30.8271 26.6535 30.7004 26.6953 30.5791L27.5635 28.0674Z" fill="#FF609C"/>
<path fill-rule="evenodd" clip-rule="evenodd" d="M30.002 11C30.7333 11.0002 31.3269 11.5938 31.3271 12.3252V18.0693H33.9756V14.9785C33.9758 14.2471 34.5693 13.6534 35.3008 13.6533C36.0323 13.6534 36.6267 14.247 36.627 14.9785V18.0693H37.0723C39.757 18.0693 41.9336 20.2458 41.9336 22.9307V23.374H45.0234C45.755 23.3742 46.3495 23.9677 46.3496 24.6992C46.3496 25.4308 45.755 26.0252 45.0234 26.0254H41.9336V28.6758H47.6748C48.4064 28.6759 48.9999 29.2694 49 30.001C49 30.7326 48.4064 31.327 47.6748 31.3271H41.9336V33.9775H45.0234C45.755 33.9777 46.3495 34.5712 46.3496 35.3027C46.3496 36.0344 45.755 36.6288 45.0234 36.6289H41.9336V37.0693C41.9336 39.7542 39.757 41.9307 37.0723 41.9307H36.627V45.0234C36.6268 45.755 36.0324 46.3486 35.3008 46.3486C34.5692 46.3485 33.9757 45.755 33.9756 45.0234V41.9307H31.3271V47.6748C31.327 48.4063 30.7334 48.9998 30.002 49C29.2704 48.9999 28.6759 48.4064 28.6758 47.6748V41.9307H26.0215V45.0234C26.0213 45.7549 25.4268 46.3485 24.6953 46.3486C23.9638 46.3485 23.3693 45.755 23.3691 45.0234V41.9307H22.9336C20.2489 41.9307 18.0732 39.7541 18.0732 37.0693V36.6289H14.9746C14.2432 36.6286 13.6494 36.0343 13.6494 35.3027C13.6495 34.5713 14.2432 33.9778 14.9746 33.9775H18.0732V31.3271H12.3252C11.5937 31.3269 11 30.7326 11 30.001C11.0001 29.2694 11.5937 28.676 12.3252 28.6758H18.0732V26.0254H14.9746C14.2432 26.0251 13.6495 25.4307 13.6494 24.6992C13.6495 23.9677 14.2432 23.3743 14.9746 23.374H18.0732V22.9307C18.0732 20.2459 20.2489 18.0693 22.9336 18.0693H23.3691V14.9785C23.3694 14.2471 23.9638 13.6534 24.6953 13.6533C25.4267 13.6535 26.0212 14.2471 26.0215 14.9785V18.0693H28.6758V12.3252C28.676 11.5937 29.2705 11.0001 30.002 11ZM27.3311 25C27.0186 25 26.7387 25.1944 26.6299 25.4873L23.7734 33.1787C23.5501 33.7801 23.9952 34.4199 24.6367 34.4199C25.0217 34.4199 25.3662 34.1803 25.5 33.8193L25.9453 32.6172C25.9725 32.5441 26.0422 32.4953 26.1201 32.4951H29.3467C29.4243 32.4952 29.494 32.5436 29.5215 32.6162L29.959 33.7744C30.1055 34.1625 30.4768 34.4197 30.8916 34.4199C31.5871 34.4199 32.0697 33.7259 31.8271 33.0742L28.998 25.4863C28.889 25.1938 28.609 25 28.2969 25H27.3311ZM34.6826 25C34.1291 25.0002 33.6807 25.4494 33.6807 26.0029V33.417C33.6807 33.9706 34.1291 34.4197 34.6826 34.4199C35.2363 34.4199 35.6855 33.9707 35.6855 33.417V26.0029C35.6855 25.4492 35.2363 25 34.6826 25Z" fill="#FF609C"/>
<path d="M5.33333 41C6.06971 41 6.66667 41.597 6.66667 42.3333V50.6667L6.66992 50.804C6.74141 52.213 7.90664 53.3333 9.33333 53.3333H17.6667C18.403 53.3333 19 53.9303 19 54.6667C19 55.403 18.403 56 17.6667 56H9.33333C6.47996 56 4.15015 53.7592 4.00716 50.9414L4 50.6667V42.3333C4 41.597 4.59695 41 5.33333 41Z" fill="#406CFF"/>
<path d="M54.6667 41C55.403 41 56 41.597 56 42.3333V50.6667C56 53.6122 53.6122 56 50.6667 56H42.3333C41.597 56 41 55.403 41 54.6667C41 53.9303 41.597 53.3333 42.3333 53.3333H50.6667C52.1394 53.3333 53.3333 52.1394 53.3333 50.6667V42.3333C53.3333 41.597 53.9303 41 54.6667 41Z" fill="#406CFF"/>
<path d="M17.6667 4C18.403 4 19 4.59695 19 5.33333C19 6.06971 18.403 6.66667 17.6667 6.66667H9.33333C7.86057 6.66667 6.66667 7.86057 6.66667 9.33333V17.6667C6.66667 18.403 6.06971 19 5.33333 19C4.59695 19 4 18.403 4 17.6667V9.33333C4 6.38781 6.38781 4 9.33333 4H17.6667Z" fill="#406CFF"/>
<path d="M50.9414 4.00716C53.7592 4.15015 56 6.47996 56 9.33333V17.6667C56 18.403 55.403 19 54.6667 19C53.9303 19 53.3333 18.403 53.3333 17.6667V9.33333C53.3333 7.90664 52.213 6.74141 50.804 6.66992L50.6667 6.66667H42.3333C41.597 6.66667 41 6.06971 41 5.33333C41 4.59695 41.597 4 42.3333 4H50.6667L50.9414 4.00716Z" fill="#406CFF"/>
</svg>
