<svg width="24" height="24" viewBox="0 0 24 24" fill="none" xmlns="http://www.w3.org/2000/svg">
<path d="M14.0299 23.4298H10.362C9.74933 23.4298 9.25096 22.9324 9.25096 22.3209V14.0639H7.11103C6.49837 14.0639 6 13.5664 6 12.9551V9.41695C6 8.80549 6.49837 8.30809 7.11103 8.30809H9.25096V6.53632C9.25096 4.77955 9.80368 3.28491 10.8492 2.21424C11.8994 1.1387 13.3671 0.570312 15.0936 0.570312L17.8909 0.574847C18.5025 0.575893 19 1.07329 19 1.68371V4.96878C19 5.58024 18.5018 6.07764 17.8893 6.07764L16.0059 6.07834C15.4315 6.07834 15.2853 6.19327 15.254 6.2285C15.2024 6.28693 15.1411 6.45209 15.1411 6.90815V8.30792H17.7478C17.944 8.30792 18.1341 8.35623 18.2975 8.44727C18.65 8.64382 18.8691 9.01548 18.8691 9.41713L18.8677 12.9553C18.8677 13.5664 18.3693 14.0638 17.7567 14.0638H15.1411V22.3209C15.1411 22.9324 14.6426 23.4298 14.0299 23.4298ZM10.5937 22.0897H13.7982V13.464C13.7982 13.0557 14.1311 12.7237 14.54 12.7237H17.525L17.5262 9.64821H14.5398C14.1309 9.64821 13.7982 9.31615 13.7982 8.90787V6.90815C13.7982 6.38459 13.8515 5.78918 14.2475 5.34166C14.7259 4.80066 15.4799 4.73822 16.0056 4.73822L17.6573 4.73752V1.91462L15.0925 1.91043C12.3179 1.91043 10.5937 3.68307 10.5937 6.53632V8.90787C10.5937 9.31598 10.261 9.64821 9.85208 9.64821H7.34274V12.7237H9.85208C10.261 12.7237 10.5937 13.0557 10.5937 13.464V22.0897Z" fill="white"/>
</svg>
