<svg width="80" height="80" viewBox="0 0 80 80" fill="none" xmlns="http://www.w3.org/2000/svg">
<path fill-rule="evenodd" clip-rule="evenodd" d="M53.293 32C61.7258 32.0001 68.6992 38.8601 68.6992 47.293C68.6989 55.7255 61.7255 62.5858 53.293 62.5859C44.8603 62.5859 38.0004 55.7255 38 47.293C38 38.8601 44.8601 32 53.293 32ZM52.5986 38C52.2838 38 52.0275 38.2555 52.0273 38.5703V40.252C52.0269 40.3081 51.9817 40.3661 51.9092 40.376C51.3697 40.4492 50.8544 40.603 50.3652 40.8369C49.7654 41.1119 49.2749 41.5214 48.8994 42.0596C48.527 42.5991 48.3487 43.2695 48.3486 44.0547C48.3487 44.8485 48.52 45.5115 48.8848 46.0195C49.2354 46.5077 49.6976 46.8948 50.2656 47.1797C50.6569 47.3875 51.0778 47.5523 51.5273 47.6738L51.5332 47.6748C51.9704 47.7811 52.4255 47.8812 52.8975 47.9756L52.9033 47.9766C53.3629 48.057 53.811 48.167 54.2471 48.3047L54.2588 48.3076C54.5582 48.3853 54.8128 48.4897 55.0254 48.6172L55.0332 48.6211C55.2356 48.7325 55.3876 48.8766 55.4941 49.0508L55.499 49.0586C55.6074 49.2215 55.6718 49.449 55.6719 49.7588C55.6718 50.1336 55.5633 50.4223 55.3613 50.6436L55.3584 50.6484C55.1555 50.8815 54.8826 51.0536 54.5312 51.1602L54.5293 51.1611C54.1787 51.2706 53.7909 51.3262 53.3652 51.3262C52.9255 51.3262 52.486 51.2756 52.0449 51.1738C51.631 51.0758 51.269 50.903 50.957 50.6562C50.7067 50.4487 50.5096 50.1728 50.3691 49.8232C50.2827 49.6083 50.0749 49.4426 49.8213 49.4424H48.5605C48.2126 49.4429 47.9256 49.763 48.0166 50.125C48.1653 50.7151 48.4024 51.2278 48.7295 51.6572L48.7324 51.6602C49.1412 52.1802 49.6444 52.5851 50.2393 52.8701L50.2432 52.8721C50.7484 53.0989 51.2844 53.26 51.8486 53.3555C51.9148 53.3668 51.957 53.4215 51.957 53.4766V55.2266C51.9575 55.5412 52.2136 55.7959 52.5283 55.7959H53.6221C53.9366 55.7957 54.191 55.541 54.1914 55.2266V53.542C54.1915 53.4856 54.2369 53.4293 54.3066 53.4199C54.9209 53.3389 55.4869 53.1736 56.001 52.9219C56.6111 52.623 57.1003 52.196 57.4639 51.6445L57.4648 51.6426C57.8347 51.0686 58.0126 50.3533 58.0127 49.5127C58.0127 48.9001 57.9004 48.3714 57.666 47.9414C57.4351 47.5068 57.1018 47.1549 56.6709 46.8887C56.3634 46.6846 56.0104 46.5137 55.6143 46.375L54.7939 46.1191C54.3761 45.9988 53.9354 45.8993 53.4736 45.8193C53.027 45.7332 52.6105 45.6252 52.2246 45.4951L51.8477 45.3574C51.6838 45.2918 51.5293 45.2136 51.3848 45.124L51.2441 45.0303C51.0853 44.9101 50.9546 44.7599 50.8535 44.5781C50.7582 44.4064 50.7062 44.1988 50.7061 43.9502C50.7061 43.5367 50.8216 43.2506 51.0225 43.0586C51.2497 42.8417 51.5377 42.6819 51.8926 42.585C52.2699 42.4852 52.6529 42.4421 53.041 42.4531H53.0488C53.4621 42.4532 53.8441 42.5094 54.1953 42.6191L54.2012 42.6201C54.5383 42.715 54.8117 42.882 55.0273 43.1182L55.0303 43.1221C55.1855 43.2848 55.2992 43.4969 55.3633 43.7686C55.4237 44.0235 55.6455 44.2487 55.9434 44.249H57.1016C57.4145 44.2488 57.6886 43.9873 57.6572 43.6514C57.6029 43.078 57.4416 42.5709 57.167 42.1377C56.8413 41.6242 56.4081 41.2159 55.8711 40.916C55.4269 40.6681 54.9406 40.502 54.415 40.418C54.3426 40.4064 54.2981 40.3482 54.2979 40.293V38.5703C54.2977 38.2556 54.0422 38.0002 53.7275 38H52.5986Z" fill="#406CFF"/>
<path d="M37.1953 11.4106C37.8292 10.8631 38.7714 10.8632 39.4053 11.4106L51.2998 21.6059C51.8408 22.0672 52.0354 22.8176 51.7881 23.4848C51.5425 24.1516 50.9069 24.594 50.1953 24.5942H45.3477C45.2097 24.5942 45.0979 24.7063 45.0977 24.8442V30.1693C39.0551 33.2697 34.9024 39.5515 34.9023 46.7973C34.9023 54.0432 39.055 60.3248 45.0977 63.4252V67.3012C45.0975 68.2402 44.3374 69.0002 43.3984 69.0004H32.0039C31.728 69.0002 31.5039 68.7764 31.5039 68.5004V24.8442C31.5038 24.7062 31.3918 24.5943 31.2539 24.5942H26.4062C25.6945 24.5942 25.0592 24.1516 24.8135 23.4848C24.5663 22.8177 24.7599 22.0672 25.3008 21.6059L37.1953 11.4106Z" fill="#FF609C"/>
<path d="M17.2969 48.4965C17.573 48.4966 17.7969 48.7204 17.7969 48.9965V68.4994C17.7969 68.7755 17.573 68.9994 17.2969 68.9994H12.6992C11.76 68.9994 11 68.2394 11 67.3002V50.1957C11 49.2565 11.76 48.4965 12.6992 48.4965H17.2969Z" fill="#FF609C"/>
<path d="M27.6055 34.9027C27.8816 34.9028 28.1055 35.1266 28.1055 35.4027V68.4994C28.1055 68.7754 27.8814 68.9992 27.6055 68.9994H21.8086C21.5326 68.9993 21.3086 68.7755 21.3086 68.4994V36.602C21.3086 35.6628 22.0686 34.9027 23.0078 34.9027H27.6055Z" fill="#FF609C"/>
</svg>
