<svg width="60" height="60" viewBox="0 0 60 60" fill="none" xmlns="http://www.w3.org/2000/svg">
<path d="M21.6582 35.2038C23.9075 35.2038 26.0921 35.8965 27.8092 37.1543L33.9876 41.6784C34.1855 41.8233 34.3566 41.9883 34.5215 42.1562C34.492 43.6608 33.8443 45.5125 33.2207 46.1576C32.2806 47.1314 30.5479 47.2977 29.3561 46.5286L25.5365 44.0619C25.1097 43.786 24.5388 43.9079 24.2624 44.3359C23.9862 44.7635 24.1084 45.334 24.5358 45.61L28.3561 48.0775C29.1638 48.5992 30.1118 48.8522 31.054 48.8522C32.3569 48.8522 33.6498 48.368 34.5475 47.4388C35.1896 46.774 35.7306 45.589 36.054 44.3268L49.2949 39.543C51.3902 38.7867 53.8238 39.521 54.9531 41.2533C55.5285 42.1362 55.7037 43.1717 55.4453 44.1667C55.167 45.2439 54.4231 46.1489 53.3535 46.7148L34.6243 56.6302C33.4573 57.2484 32.1291 57.5657 30.791 57.5658C30.0433 57.5658 29.2922 57.4664 28.5638 57.2656L17.7188 54.278V35.2038H21.6582Z" fill="#C669FF"/>
<path d="M13.11 32.4375C14.6375 32.4379 15.8763 33.6762 15.8763 35.2038V54.4668C15.8763 55.9944 14.6375 57.2327 13.11 57.2331H7.21159C5.68381 57.2331 4.44531 55.9946 4.44531 54.4668V35.2038C4.44533 33.676 5.68382 32.4375 7.21159 32.4375H13.11Z" fill="#C669FF"/>
<path d="M43.4668 36.5905C45.4896 35.8211 47.8246 36.284 49.3086 37.6367C49.0953 37.6914 48.8802 37.7327 48.6699 37.8086L36.7767 42.1042C36.366 41.3693 35.7917 40.7129 35.0788 40.1908L34.7051 39.9167L43.4668 36.5905Z" fill="#C669FF"/>
<path d="M29.7695 19.2793C30.0106 19.0182 30.6123 18.92 31.3665 19.319C32.0445 19.7848 32.5894 20.4192 32.9479 21.1595C33.7966 22.5309 34.8518 24.2386 37.4792 24.2904C38.4889 24.2943 39.4948 24.1647 40.4707 23.9056C42.0037 23.5508 43.1784 23.2875 45.8952 25.8848C44.0245 28.6585 41.2769 30.7241 38.0924 31.75C34.908 32.7759 31.4713 32.7025 28.3333 31.5423L28.3861 30.0033C28.4679 29.0144 28.8103 28.0649 29.3783 27.2513L29.5443 27.028C30.6201 25.5844 31.9595 23.7873 30.0215 20.8027C29.6003 20.1547 29.5035 19.5711 29.7695 19.2793Z" fill="#C669FF"/>
<path d="M33.3796 2.4375C36.4629 6.74326 35.9635 7.80931 35.2598 9.27734C34.9812 9.83352 34.8255 10.4434 34.804 11.0651C34.7826 11.6867 34.896 12.3055 35.1354 12.8796C35.7712 14.3796 37.2197 15.5163 39.4395 16.2565C40.2716 16.5366 41.1441 16.6798 42.0221 16.681C44.0771 16.6429 46.0595 15.9141 47.6497 14.612L48.1283 14.1895C48.8775 17.488 48.4726 20.9439 46.9811 23.9798C43.8809 21.1542 42.1812 21.3049 39.9863 21.8145C39.1822 22.031 38.353 22.1424 37.5202 22.1445C36.1293 22.1174 35.5962 21.362 34.7728 20.0306C34.2266 18.9569 33.3947 18.0546 32.3691 17.4225C31.7259 17.0155 30.9653 16.8348 30.2077 16.9089C29.45 16.9829 28.7385 17.3074 28.1862 17.8314C27.436 18.6518 27.0506 20.1704 28.2207 21.9727C29.3457 23.7041 28.8685 24.3442 27.8242 25.7467L27.653 25.9766C26.8276 27.1374 26.3395 28.5041 26.2422 29.9251L26.2194 30.5898C24.4562 29.6105 22.907 28.2869 21.6647 26.6979C20.4225 25.109 19.5119 23.2865 18.987 21.3392C23.7279 20.5799 24.7719 17.3055 25.3776 15.3939C25.4919 14.97 25.6427 14.5568 25.8281 14.1589C27.0795 13.6712 29.12 12.3018 28.7103 8.61589C28.3866 5.70835 26.7175 4.78732 26.528 4.69206L26.0163 4.4349C28.2558 3.14179 30.7936 2.45342 33.3796 2.4375Z" fill="#C669FF"/>
<path d="M25.5319 6.5931C25.863 6.8687 26.1291 7.21447 26.3099 7.60547C26.4907 7.9964 26.5819 8.42283 26.5775 8.85352C26.8665 11.4521 25.4992 11.9852 25.0495 12.1608C24.0257 12.5594 23.6889 13.6217 23.3327 14.7467C22.7592 16.5553 22.0692 18.7243 18.5755 19.2435C18.5008 18.649 18.4617 18.0503 18.4583 17.4512C18.4584 15.2227 18.9553 13.0221 19.9128 11.0098C20.8703 8.99752 22.2643 7.22405 23.9935 5.81836L25.5319 6.5931Z" fill="#C669FF"/>
<path d="M36.138 2.68359C38.6518 3.14086 41.0082 4.23006 42.9844 5.84961C44.9606 7.46917 46.4915 9.56575 47.4336 11.9408L46.2292 13.0046C45.3876 13.691 44.3906 14.1609 43.3255 14.373C42.2603 14.5851 41.1589 14.5331 40.1185 14.2214C39.4946 14.0839 38.9054 13.8194 38.388 13.4447C37.8707 13.0699 37.4358 12.5923 37.1107 12.0423C36.9936 11.7478 36.9409 11.4318 36.9551 11.1152C36.9693 10.7985 37.0502 10.488 37.1934 10.2051C38.2803 7.93831 38.3301 6.136 36.138 2.68359Z" fill="#C669FF"/>
</svg>
