<svg width="96" height="96" viewBox="0 0 96 96" fill="none" xmlns="http://www.w3.org/2000/svg">
<path d="M73.4427 36.2669C72.6633 36.2669 71.8838 36.3785 71.2158 36.4901C69.991 28.7883 63.4217 22.7609 55.2936 22.7609C53.7348 22.7609 52.176 22.9841 50.7285 23.4306C47.4996 18.7425 42.0437 15.6172 35.9198 15.6172C26.0102 15.6172 17.8822 23.6538 17.8822 33.6996C17.8822 34.8158 17.9935 35.932 18.2162 36.9366C12.649 38.7225 8.64062 43.9687 8.64062 50.1078C8.64062 57.8095 14.8759 64.0603 22.5586 64.0603H73.4427C81.1254 64.0603 87.3606 57.8095 87.3606 50.1078C87.3606 42.406 81.1254 36.2669 73.4427 36.2669Z" fill="white"/>
<path d="M66 77.4999C66 79.9855 57.9407 82 48.0004 82C38.06 82 30 79.9855 30 77.4999V71.4995C30 73.9851 38.06 75.9996 48.0004 75.9996C57.9407 75.9995 66 73.985 66 71.4995V77.4999Z" fill="#202028"/>
<path d="M66 68.4988C66 70.9844 57.9407 72.9997 48.0004 72.9998C38.06 72.9998 30 70.9844 30 68.4988V62.4993C30.0006 64.9847 38.0604 66.9994 48.0004 66.9994C57.9403 66.9993 65.9994 64.9847 66 62.4993V68.4988Z" fill="#202028"/>
<path d="M66 59.502C66 61.9876 57.9407 64.0021 48.0004 64.0021C38.06 64.0021 30 61.9876 30 59.502V53.5016C30 55.9872 38.06 58.0017 48.0004 58.0017C57.9407 58.0016 66 55.9872 66 53.5016V59.502Z" fill="#202028"/>
<path d="M48.0004 46C57.9411 46 65.9997 48.0148 66 50.5001C66 52.9855 57.9413 55.0002 48.0004 55.0002C38.0594 55.0002 30 52.9855 30 50.5001C30.0003 48.0148 38.0596 46 48.0004 46Z" fill="#202028"/>
</svg>
