<svg width="24" height="24" viewBox="0 0 24 24" fill="none" xmlns="http://www.w3.org/2000/svg">
<path d="M17.0448 1H6.9552C3.67145 1 1 3.67145 1 6.9552V17.045C1 20.3286 3.67145 23 6.9552 23H17.045C20.3286 23 23 20.3286 23 17.045V6.9552C23 3.67145 20.3286 1 17.0448 1ZM21.7103 17.045C21.7103 19.6174 19.6174 21.7103 17.0448 21.7103H6.9552C4.38261 21.7103 2.28973 19.6174 2.28973 17.045V6.9552C2.28973 4.38261 4.38261 2.28973 6.9552 2.28973H17.045C19.6174 2.28973 21.7103 4.38261 21.7103 6.9552V17.045Z" fill="white"/>
<path d="M11.9998 5.98438C8.68285 5.98438 5.98438 8.68285 5.98438 11.9998C5.98438 15.3168 8.68285 18.0153 11.9998 18.0153C15.3168 18.0153 18.0153 15.3168 18.0153 11.9998C18.0153 8.68285 15.3168 5.98438 11.9998 5.98438ZM11.9998 16.7256C9.39418 16.7256 7.27411 14.6057 7.27411 11.9998C7.27411 9.39418 9.39418 7.27411 11.9998 7.27411C14.6057 7.27411 16.7256 9.39418 16.7256 11.9998C16.7256 14.6057 14.6057 16.7256 11.9998 16.7256Z" fill="white"/>
<path d="M18.1603 3.85156C17.1801 3.85156 16.3828 4.649 16.3828 5.62906C16.3828 6.60928 17.1801 7.40672 18.1603 7.40672C19.1405 7.40672 19.938 6.60928 19.938 5.62906C19.938 4.64883 19.1405 3.85156 18.1603 3.85156ZM18.1603 6.11682C17.8914 6.11682 17.6725 5.89795 17.6725 5.62906C17.6725 5.36 17.8914 5.1413 18.1603 5.1413C18.4294 5.1413 18.6482 5.36 18.6482 5.62906C18.6482 5.89795 18.4294 6.11682 18.1603 6.11682Z" fill="white"/>
</svg>
