<svg width="60" height="60" viewBox="0 0 60 60" fill="none" xmlns="http://www.w3.org/2000/svg">
<path fill-rule="evenodd" clip-rule="evenodd" d="M22.8258 1C23.2698 1.00006 23.6958 1.17646 24.0098 1.49048L26.6038 4.08448C26.9178 4.39853 27.0943 4.82449 27.0943 5.26858V17.9512C27.0943 19.3385 25.9695 20.4632 24.5822 20.4633H20.3308V22.0412C20.3308 23.2033 21.2727 24.1456 22.4348 24.1456H37.1247C38.2868 24.1456 39.2291 23.2033 39.2291 22.0412V20.4633H34.9772C33.5898 20.4633 32.4651 19.3386 32.4651 17.9512V3.5121C32.4651 2.1247 33.5898 1 34.9772 1H43.2904C43.7345 1 44.1609 1.17641 44.4749 1.49048L47.0685 4.08448C47.3825 4.39855 47.559 4.82442 47.559 5.26858V17.9512C47.559 19.3386 46.4343 20.4633 45.0469 20.4633H41.3331V22.0412C41.3331 24.3654 39.4488 26.2496 37.1247 26.2496H30.8317V32L28.7277 31.9954V26.2496H22.4348C20.1106 26.2496 18.2263 24.3654 18.2263 22.0412V20.4633H14.5121C13.1247 20.4633 12 19.3386 12 17.9512V3.5121C12 2.12473 13.1247 1.00005 14.5121 1H22.8258ZM39.6053 5.7933C39.4307 5.79347 39.2889 5.93518 39.2888 6.1098V7.0431C39.2887 7.07427 39.2634 7.10648 39.2231 7.11204C38.9237 7.15269 38.6376 7.23814 38.3661 7.36793C38.0333 7.52056 37.761 7.74764 37.5527 8.04627C37.3459 8.3458 37.2468 8.71806 37.2468 9.15402C37.2468 9.59458 37.342 9.96222 37.5444 10.2442C37.7389 10.5151 37.9958 10.7297 38.3111 10.8878C38.5282 11.0031 38.7618 11.0948 39.0112 11.1622L39.0139 11.1627C39.2567 11.2217 39.5098 11.2773 39.7719 11.3297L39.7747 11.3302C40.0297 11.3748 40.2786 11.4361 40.5206 11.5125L40.527 11.5139C40.6931 11.557 40.8343 11.6149 40.9523 11.6856L40.9569 11.6879C41.0693 11.7497 41.1536 11.8299 41.2128 11.9266L41.2151 11.9303C41.2754 12.0208 41.3113 12.1473 41.3113 12.3195C41.3113 12.5275 41.2513 12.6876 41.1392 12.8104L41.1369 12.8127C41.0243 12.9421 40.8733 13.0377 40.6783 13.0968L40.6774 13.0973C40.4828 13.1581 40.2673 13.1894 40.031 13.1894C39.787 13.1894 39.5428 13.1612 39.298 13.1047C39.0683 13.0503 38.8674 12.9544 38.6942 12.8174C38.5553 12.7022 38.4464 12.5491 38.3685 12.3551C38.3204 12.2358 38.2048 12.1437 38.064 12.1436H37.3648C37.1717 12.1439 37.0122 12.3217 37.0627 12.5226C37.1452 12.8502 37.2767 13.1347 37.4583 13.3731L37.4597 13.3745C37.6865 13.6631 37.9658 13.8877 38.2958 14.0459L38.2986 14.0473C38.5789 14.1731 38.8763 14.2622 39.1893 14.3152C39.2261 14.3214 39.2495 14.3522 39.2495 14.3827V15.354C39.2496 15.5286 39.3918 15.6699 39.5664 15.67H40.1735C40.3482 15.6699 40.4894 15.5286 40.4896 15.354V14.4193C40.4896 14.388 40.5148 14.3566 40.5534 14.3513C40.8943 14.3063 41.2084 14.2143 41.4937 14.0746C41.8323 13.9087 42.104 13.6722 42.3057 13.3661L42.3062 13.3652C42.5115 13.0466 42.6101 12.6497 42.6102 12.183C42.6102 11.8429 42.5483 11.5499 42.4182 11.3112C42.29 11.0699 42.1054 10.8741 41.8661 10.7263C41.6385 10.5753 41.3658 10.457 41.0513 10.37C40.7535 10.2712 40.4328 10.1923 40.0912 10.1331C39.8433 10.0853 39.6121 10.0253 39.398 9.95313L39.1889 9.87632C39.098 9.83994 39.0122 9.79691 38.932 9.74722L38.8538 9.6954C38.7656 9.62861 38.693 9.54473 38.6368 9.44368C38.584 9.34837 38.5554 9.23364 38.5554 9.09572C38.5554 8.86609 38.6196 8.7072 38.7312 8.60061C38.8573 8.48027 39.017 8.39156 39.2138 8.33778C39.4233 8.28241 39.636 8.25855 39.8515 8.26468H39.8552C40.0845 8.26469 40.297 8.29587 40.4919 8.35676L40.4951 8.35768C40.6822 8.41034 40.8335 8.5029 40.9532 8.63392L40.9555 8.63578C41.0417 8.7261 41.1045 8.84406 41.1401 8.99484C41.1736 9.13647 41.2968 9.26119 41.4622 9.26137H42.1044C42.2783 9.26137 42.4307 9.11626 42.4131 8.9296C42.3829 8.6113 42.2935 8.32978 42.141 8.0893C41.9602 7.8043 41.7196 7.57782 41.4215 7.41142C41.175 7.27389 40.9052 7.18179 40.6136 7.13518C40.5734 7.12868 40.5489 7.09684 40.5488 7.06624V6.1098C40.5487 5.93508 40.4066 5.7933 40.2318 5.7933H39.6053ZM15.3797 9.7389C15.0506 9.7389 14.7837 10.0058 14.7837 10.3349C14.7838 10.6639 15.0507 10.9304 15.3797 10.9304H18.5572C18.8862 10.9304 19.1531 10.6639 19.1532 10.3349C19.1532 10.0058 18.8862 9.7389 18.5572 9.7389H15.3797ZM15.3797 6.16394C15.0506 6.16394 14.7837 6.43085 14.7837 6.75992C14.7838 7.0889 15.0507 7.35543 15.3797 7.35543H21.7351C22.064 7.35532 22.3306 7.08883 22.3306 6.75992C22.3306 6.43092 22.0641 6.16405 21.7351 6.16394H15.3797Z" fill="#FF609C"/>
<path fill-rule="evenodd" clip-rule="evenodd" d="M33.5287 28.1327C34.2524 28.3154 34.9694 28.5532 35.6567 28.8374C36.3442 29.1227 37.0181 29.4612 37.659 29.8437C37.945 30.0147 38.1097 30.333 38.084 30.6653L37.9158 32.8384C37.8735 33.3859 38.0985 33.9155 38.4865 34.304C38.8753 34.6932 39.4058 34.919 39.9543 34.8765L42.1173 34.7089C42.4504 34.683 42.7693 34.8483 42.9403 35.1354C43.3227 35.7763 43.6616 36.4492 43.9466 37.1359C44.2312 37.8241 44.4686 38.5402 44.6513 39.264C44.7326 39.5881 44.6236 39.9303 44.3697 40.1476L42.7092 41.5693C42.2963 41.9228 42.0839 42.451 42.0839 42.9945C42.0839 43.551 42.3005 44.092 42.7231 44.454L44.3642 45.8596C44.6172 46.0763 44.7257 46.4175 44.6444 46.7405C44.4618 47.464 44.2255 48.1798 43.9414 48.8668C43.656 49.5547 43.3161 50.2297 42.9334 50.8708C42.7624 51.1569 42.4441 51.3215 42.1118 51.2958L39.941 51.1278C39.3932 51.0854 38.8631 51.3105 38.474 51.6984C38.0841 52.087 37.8581 52.6179 37.9006 53.1667L38.0684 55.3306C38.0941 55.6629 37.9295 55.9811 37.6434 56.1521C37.0025 56.5347 36.3282 56.8734 35.6412 57.1584C34.953 57.443 34.237 57.6804 33.5132 57.8632C33.1901 57.9445 32.8489 57.8359 32.6323 57.5829L31.2107 55.9224C30.8565 55.5087 30.3272 55.2958 29.7826 55.2958C29.238 55.2957 28.7088 55.5087 28.3546 55.9224L26.933 57.5829C26.7163 57.8359 26.3751 57.9445 26.0521 57.8632C25.3282 57.6804 24.6123 57.4431 23.9241 57.1584C23.2373 56.8735 22.5643 56.5346 21.9235 56.1521C21.6365 55.9812 21.4712 55.6622 21.497 55.3291L21.6646 53.1667C21.7072 52.6179 21.4812 52.087 21.0913 51.6984C20.7021 51.3105 20.1721 51.0854 19.6243 51.1278L17.4534 51.2958C17.1211 51.3215 16.8029 51.1569 16.6319 50.8708C16.2492 50.2297 15.9109 49.5547 15.6256 48.8668C15.3414 48.1796 15.1035 47.4642 14.9208 46.7405C14.8395 46.4175 14.9481 46.0763 15.2011 45.8596L16.8421 44.454C17.2648 44.092 17.4814 43.5509 17.4814 42.9945C17.4814 42.451 17.2689 41.9228 16.8561 41.5693L15.1955 40.1476C14.9417 39.9303 14.8326 39.5881 14.9139 39.264C15.0967 38.5402 15.3341 37.8241 15.6187 37.1359C15.9036 36.4492 16.2426 35.7763 16.625 35.1354C16.7959 34.8483 17.1149 34.683 17.448 34.7089L19.611 34.8765C20.1595 34.919 20.69 34.6932 21.0788 34.304C21.4668 33.9155 21.6918 33.3859 21.6494 32.8385L21.4814 30.6668C21.4556 30.3336 21.621 30.0147 21.908 29.8437C22.549 29.4612 23.2227 29.1227 23.9103 28.8374C24.5974 28.5533 25.313 28.3154 26.0366 28.1327C26.3607 28.0514 26.7029 28.1605 26.9202 28.4143L28.4668 30.2214C28.7384 30.5387 29.1445 30.7042 29.5621 30.6967L29.7826 30.6949C30.3391 30.6949 30.8801 30.4766 31.2421 30.054L32.6477 28.4129C32.8644 28.1599 33.2056 28.0514 33.5287 28.1327ZM29.7775 37.7252C26.8707 37.7253 24.5048 40.0895 24.5047 42.9962C24.5048 45.903 26.8707 48.2671 29.7775 48.2672C32.6841 48.267 35.0484 45.9029 35.0484 42.9962C35.0484 40.0895 32.6841 37.7254 29.7775 37.7252Z" fill="#406CFF"/>
</svg>
