<svg width="60" height="60" viewBox="0 0 60 60" fill="none" xmlns="http://www.w3.org/2000/svg">
<path d="M4.27344 37.5671C4.27344 36.8307 4.87039 36.2337 5.60677 36.2337H11.3802C12.1166 36.2337 12.7135 36.8307 12.7135 37.5671V54.8529C12.7135 55.5892 12.1166 56.1862 11.3802 56.1862H5.60677C4.87039 56.1862 4.27344 55.5892 4.27344 54.8529V37.5671Z" fill="#C669FF"/>
<path d="M25.8255 32.2689C25.8255 31.5325 26.4225 30.9355 27.1589 30.9355H32.9323C33.6687 30.9355 34.2656 31.5325 34.2656 32.2689V54.8529C34.2656 55.5892 33.6687 56.1862 32.9323 56.1862H27.1589C26.4225 56.1862 25.8255 55.5892 25.8255 54.8529V32.2689Z" fill="#C669FF"/>
<path d="M15.0495 28.1608C15.0495 27.4244 15.6464 26.8275 16.3828 26.8275H22.1562C22.8926 26.8275 23.4896 27.4244 23.4896 28.1608V54.8529C23.4896 55.5892 22.8926 56.1862 22.1562 56.1862H16.3828C15.6464 56.1862 15.0495 55.5892 15.0495 54.8529V28.1608Z" fill="#C669FF"/>
<path d="M36.6016 28.1367C38.6514 29.3132 41.027 29.9863 43.5599 29.9863C44.0604 29.9863 44.5547 29.9594 45.0417 29.9082V54.8529C45.0417 55.5892 44.4447 56.1862 43.7083 56.1862H37.9349C37.1985 56.1862 36.6016 55.5892 36.6016 54.8529V28.1367Z" fill="#C669FF"/>
<path fill-rule="evenodd" clip-rule="evenodd" d="M43.5592 3.8125C50.2827 3.8125 55.733 9.2629 55.7331 15.9863C55.7331 22.7098 50.2827 28.1602 43.5592 28.1602C36.8358 28.1601 31.3854 22.7098 31.3854 15.9863C31.3855 9.26293 36.8358 3.81255 43.5592 3.8125ZM43.2871 10.0534C43.0772 10.0534 42.9064 10.2237 42.9062 10.4336V11.5547C42.9061 11.5922 42.876 11.6308 42.8275 11.6374C42.4678 11.6862 42.1243 11.7887 41.7982 11.9447C41.3982 12.128 41.0713 12.401 40.821 12.7598C40.5726 13.1195 40.4538 13.5663 40.4538 14.0898C40.4538 14.6192 40.568 15.061 40.8112 15.3997C41.045 15.7253 41.353 15.9832 41.7318 16.1732C41.9927 16.3117 42.2732 16.4216 42.5729 16.5026L42.5768 16.5033C42.8683 16.5741 43.1717 16.6408 43.4863 16.7038L43.4902 16.7044C43.7966 16.758 44.0953 16.8314 44.3861 16.9232L44.3939 16.9251C44.5935 16.9769 44.7632 17.0465 44.9049 17.1315L44.9102 17.1341C45.0452 17.2084 45.1464 17.3044 45.2174 17.4206L45.2207 17.4258C45.293 17.5344 45.3359 17.6859 45.3359 17.8926C45.3359 18.1426 45.2636 18.3349 45.1289 18.4824L45.127 18.4857C44.9917 18.6412 44.8098 18.7558 44.5755 18.8268L44.5742 18.8275C44.3404 18.9005 44.082 18.9375 43.7982 18.9375C43.505 18.9375 43.212 18.9038 42.918 18.8359C42.642 18.7706 42.4008 18.6554 42.1927 18.4909C42.0258 18.3525 41.8944 18.1687 41.8008 17.9355C41.7431 17.7922 41.6046 17.6818 41.4355 17.6816H40.5951C40.3631 17.682 40.1717 17.8954 40.2324 18.1367C40.3316 18.5303 40.4896 18.8718 40.7077 19.1582L40.7096 19.1602C40.9822 19.507 41.3176 19.7768 41.7142 19.9668L41.7168 19.9681C42.0537 20.1193 42.4109 20.2267 42.7871 20.2904C42.8312 20.2979 42.8594 20.3344 42.8594 20.3711V21.5378C42.8595 21.7476 43.0303 21.9173 43.2402 21.9173H43.9694C44.1792 21.9172 44.3488 21.7475 44.349 21.5378V20.4147C44.349 20.3771 44.3792 20.3396 44.4258 20.3333C44.8353 20.2793 45.2126 20.1692 45.5553 20.0013C45.9622 19.802 46.2882 19.5175 46.5306 19.1497L46.5312 19.1484C46.7778 18.7657 46.8964 18.289 46.8965 17.7285C46.8965 17.32 46.8217 16.9677 46.6654 16.681C46.5114 16.3912 46.2893 16.1566 46.002 15.9792C45.7287 15.7978 45.4017 15.6559 45.0241 15.5514C44.6663 15.4326 44.281 15.3373 43.8704 15.2663C43.5727 15.2089 43.2951 15.1368 43.0378 15.0501L42.7865 14.9583C42.6772 14.9146 42.5743 14.8625 42.4779 14.8027L42.3841 14.7402C42.2782 14.66 42.1911 14.5601 42.1237 14.4388C42.0601 14.3242 42.0254 14.1861 42.0254 14.0202C42.0254 13.7444 42.1023 13.5538 42.2363 13.4258C42.3879 13.2811 42.5798 13.1746 42.8164 13.11C43.068 13.0435 43.3233 13.0148 43.582 13.0221H43.5872C43.8628 13.0222 44.1174 13.0596 44.3516 13.1328L44.3555 13.1335C44.5803 13.1967 44.7625 13.308 44.9062 13.4655L44.9082 13.4681C45.0118 13.5766 45.0874 13.7179 45.1302 13.8991C45.1704 14.0692 45.3183 14.2192 45.5169 14.2194H46.2891C46.4978 14.2192 46.6806 14.045 46.6595 13.821C46.6233 13.4386 46.5158 13.1007 46.3327 12.8118C46.1156 12.4695 45.8268 12.1973 45.4688 11.9974C45.1726 11.8321 44.8484 11.7214 44.498 11.6654C44.4496 11.6576 44.4199 11.6189 44.4199 11.582V10.4336C44.4198 10.2238 44.2495 10.0535 44.0397 10.0534H43.2871Z" fill="#C669FF"/>
</svg>
