<svg width="60" height="60" viewBox="0 0 60 60" fill="none" xmlns="http://www.w3.org/2000/svg">
<path fill-rule="evenodd" clip-rule="evenodd" d="M20.2161 2.53906C20.841 2.53914 21.4403 2.78734 21.8822 3.22917L25.5319 6.87891C25.9737 7.32077 26.222 7.9201 26.222 8.54492V26.3893C26.222 28.3413 24.6394 29.9237 22.6875 29.9238H16.7057V32.1439C16.7057 33.7789 18.031 35.1048 19.666 35.1048H40.3346C41.9697 35.1048 43.2956 33.7789 43.2956 32.1439V29.9238H37.3132C35.3611 29.9238 33.7786 28.3414 33.7786 26.3893V6.07357C33.7786 4.12152 35.3611 2.53906 37.3132 2.53906H49.0098C49.6347 2.53906 50.2345 2.78727 50.6764 3.22917L54.3255 6.87891C54.7674 7.3208 55.0156 7.92 55.0156 8.54492V26.3893C55.0156 28.3414 53.4332 29.9238 51.4811 29.9238H46.2559V32.1439C46.2559 35.414 43.6047 38.0651 40.3346 38.0651H31.4805V41.4779L31.7109 41.209C31.8404 41.0578 32.0447 40.9933 32.2376 41.0423C32.6692 41.1513 33.0966 41.2921 33.5065 41.4616C33.9166 41.6317 34.3183 41.8337 34.7005 42.0619C34.8711 42.164 34.9691 42.3538 34.9538 42.5521L34.8535 43.8477C34.8283 44.1743 34.963 44.4903 35.1947 44.722C35.4267 44.9541 35.7431 45.0892 36.0703 45.0638L37.36 44.9635C37.5586 44.9482 37.7489 45.0471 37.8509 45.2181C38.079 45.6003 38.2812 46.0019 38.4512 46.4115C38.6209 46.8219 38.7621 47.2493 38.8711 47.681C38.9196 47.8739 38.8548 48.0776 38.7038 48.207L37.7129 49.0553C37.4667 49.2662 37.3398 49.5814 37.3398 49.9056C37.3399 50.2375 37.4699 50.5602 37.722 50.776L38.6999 51.6133C38.851 51.7428 38.9158 51.947 38.8672 52.14C38.7582 52.5716 38.6168 52.9983 38.4473 53.4082C38.2771 53.8184 38.0752 54.2205 37.847 54.6029C37.7449 54.7735 37.555 54.8714 37.3568 54.8561L36.0618 54.7565C35.7351 54.7312 35.4188 54.8654 35.1868 55.097C34.9545 55.329 34.8198 55.6454 34.8451 55.9727L34.9447 57.263C34.9599 57.4612 34.862 57.6512 34.6914 57.7533C34.3091 57.9814 33.9071 58.1835 33.4974 58.3535C33.087 58.5232 32.6601 58.6645 32.2285 58.7734C32.0355 58.8221 31.8313 58.7573 31.7018 58.6061L30.8542 57.6159C30.6431 57.3694 30.3278 57.2422 30.0033 57.2422C29.6786 57.2422 29.3628 57.3693 29.1517 57.6159L28.304 58.6061C28.1749 58.757 27.9712 58.822 27.7786 58.7734C27.347 58.6645 26.9196 58.5232 26.5091 58.3535C26.0995 58.1836 25.6979 57.9814 25.3158 57.7533C25.1447 57.6512 25.0459 57.4609 25.0612 57.2624L25.1615 55.9727C25.1867 55.6454 25.0519 55.3289 24.8197 55.097C24.5877 54.8655 24.2714 54.7312 23.9447 54.7565L22.6497 54.8561C22.4515 54.8715 22.2616 54.7735 22.1595 54.6029C21.9313 54.2205 21.7294 53.8184 21.5592 53.4082C21.3898 52.9984 21.2483 52.5715 21.1393 52.14C21.0907 51.9469 21.1554 51.7427 21.3066 51.6133L22.2852 50.776C22.5373 50.5602 22.6673 50.2375 22.6673 49.9056C22.6673 49.5814 22.5392 49.2662 22.293 49.0553L21.3027 48.2077C21.1515 48.0782 21.0871 47.8739 21.1361 47.681C21.2451 47.2493 21.3863 46.8219 21.556 46.4115C21.7259 46.0019 21.9276 45.6003 22.1556 45.2181C22.2577 45.047 22.4478 44.9482 22.6465 44.9635L23.9368 45.0638C24.2639 45.0891 24.5801 44.9542 24.8118 44.722C25.0431 44.4903 25.1775 44.1747 25.1523 43.8483L25.0521 42.5527C25.0367 42.3541 25.1355 42.1639 25.3066 42.0619C25.6889 41.8337 26.0906 41.6317 26.5007 41.4616C26.9105 41.2921 27.3374 41.1513 27.7689 41.0423C27.9618 40.9933 28.1661 41.0577 28.2956 41.209L28.5202 41.4714V38.0651H19.666C16.3959 38.0651 13.7448 35.414 13.7448 32.1439V29.9238H8.51888C6.56688 29.9238 4.98438 28.3413 4.98438 26.3893V6.07357C4.98438 4.12156 6.56688 2.53913 8.51888 2.53906H20.2161ZM30.002 46.7611C28.2685 46.7612 26.8583 48.1715 26.8581 49.9049C26.8581 51.6385 28.2685 53.0493 30.002 53.0495C31.7355 53.0494 33.1464 51.6385 33.1465 49.9049C33.1463 48.1715 31.7355 46.7611 30.002 46.7611ZM43.8249 9.2832C43.5792 9.28345 43.3797 9.48284 43.3796 9.72852V11.0417C43.3794 11.0855 43.3438 11.1308 43.2871 11.1387C42.8659 11.1959 42.4633 11.3161 42.0814 11.4987C41.613 11.7134 41.23 12.0329 40.9369 12.4531C40.6459 12.8746 40.5065 13.3983 40.5065 14.0117C40.5065 14.6316 40.6404 15.1489 40.9251 15.5456C41.1989 15.9268 41.5604 16.2287 42.0039 16.4512C42.3094 16.6134 42.638 16.7424 42.9889 16.8372L42.9928 16.8379C43.3344 16.921 43.6905 16.9992 44.0592 17.0729L44.0632 17.0736C44.422 17.1364 44.7722 17.2226 45.1126 17.3301L45.1217 17.332C45.3554 17.3926 45.5541 17.4741 45.7201 17.5736L45.7266 17.5768C45.8847 17.6639 46.0033 17.7766 46.0866 17.9128L46.0898 17.918C46.1747 18.0452 46.2253 18.2232 46.2253 18.4655C46.2253 18.7582 46.1408 18.9834 45.9831 19.1562L45.9798 19.1595C45.8214 19.3415 45.609 19.4761 45.3346 19.5592L45.3333 19.5599C45.0595 19.6454 44.7563 19.6895 44.4238 19.6895C44.0805 19.6894 43.737 19.6498 43.3926 19.5703C43.0694 19.4937 42.7866 19.3588 42.543 19.166C42.3476 19.0039 42.1943 18.7885 42.0846 18.5156C42.0171 18.3477 41.8544 18.2181 41.6562 18.2181H40.6725C40.4008 18.2185 40.1764 18.4687 40.2474 18.7513C40.3635 19.2122 40.5486 19.6125 40.804 19.9479L40.806 19.9499C41.1251 20.356 41.5181 20.6719 41.9824 20.8945L41.9863 20.8965C42.3808 21.0736 42.7991 21.1989 43.2396 21.2734C43.2913 21.2822 43.3242 21.3255 43.3242 21.3685V22.735C43.3244 22.9808 43.5244 23.1795 43.7702 23.1797H44.6244C44.8701 23.1796 45.0689 22.9808 45.069 22.735V21.4199C45.069 21.376 45.1045 21.3317 45.1589 21.3242C45.6385 21.2609 46.0804 21.1315 46.4818 20.9349C46.9582 20.7015 47.3405 20.3688 47.6244 19.9382L47.625 19.9368C47.9139 19.4885 48.0527 18.9301 48.0527 18.2734C48.0527 17.795 47.9657 17.3827 47.7826 17.0469C47.6022 16.7073 47.3425 16.4319 47.0059 16.224C46.6856 16.0115 46.3018 15.845 45.8594 15.7227C45.4404 15.5836 44.9891 15.4725 44.5085 15.3893C44.1598 15.3221 43.8345 15.2376 43.5332 15.1361L43.2389 15.028C43.1111 14.9768 42.9904 14.9163 42.8776 14.8464L42.7676 14.7734C42.6434 14.6795 42.5412 14.5614 42.4622 14.4193C42.3879 14.2852 42.3477 14.1237 42.3477 13.9297C42.3477 13.6066 42.4381 13.383 42.5951 13.2331C42.7725 13.0638 42.9971 12.9389 43.2741 12.8633C43.5688 12.7854 43.8681 12.7518 44.1712 12.7604H44.1764C44.4991 12.7604 44.798 12.8043 45.0723 12.89L45.0768 12.8913C45.3401 12.9654 45.553 13.0956 45.7214 13.2799L45.7246 13.2826C45.8459 13.4096 45.9343 13.5756 45.9844 13.7878C46.0314 13.987 46.2048 14.1625 46.4375 14.1628H47.3411C47.5858 14.1628 47.8002 13.9586 47.7754 13.696C47.733 13.2481 47.6071 12.852 47.3926 12.5137C47.1382 12.1127 46.7997 11.794 46.3802 11.5599C46.0334 11.3664 45.6539 11.2368 45.2435 11.1712C45.187 11.1621 45.1525 11.1173 45.1523 11.0742V9.72852C45.1522 9.48269 44.9522 9.2832 44.7064 9.2832H43.8249ZM9.73958 14.8346C9.2766 14.8346 8.90104 15.2102 8.90104 15.6732C8.90117 16.1361 9.27667 16.5111 9.73958 16.5111H14.2103C14.6732 16.5111 15.0487 16.1361 15.0488 15.6732C15.0488 15.2102 14.6733 14.8346 14.2103 14.8346H9.73958ZM9.73958 9.80469C9.2766 9.80469 8.90104 10.1802 8.90104 10.6432C8.90117 11.1061 9.27667 11.4811 9.73958 11.4811H18.6816C19.1444 11.481 19.5194 11.106 19.5195 10.6432C19.5195 10.1803 19.1445 9.80484 18.6816 9.80469H9.73958Z" fill="#C669FF"/>
</svg>
