<svg width="80" height="80" viewBox="0 0 80 80" fill="none" xmlns="http://www.w3.org/2000/svg">
<path d="M47.4922 28.5013L39.701 27.6515C39.5038 27.63 39.3113 27.7213 39.2032 27.8876L35.5859 33.4486H49.1105L47.9446 28.8936C47.8903 28.6814 47.71 28.525 47.4922 28.5013Z" fill="#FF3F69"/>
<path d="M49.415 19.0312C49.9574 19.0316 50.1967 19.8374 49.7734 20.1768C48.0449 21.563 46.1685 23.643 44.5176 26.0596L39.9346 25.5605C39.0104 25.4599 38.1066 25.8542 37.5518 26.5889L37.4463 26.7402L33.0811 33.4512H27.1562C28.0896 29.8638 31.0738 21.289 36.3506 19.0703C36.4127 19.0442 36.4794 19.0313 36.5469 19.0313L49.415 19.0312Z" fill="#FF3F69"/>
<path d="M49.5986 25.8652C52.7679 25.8654 55.3369 28.4351 55.3369 31.6045C55.3369 32.2495 55.2304 32.8696 55.0342 33.4482H51.2881L49.9883 28.3721L49.9297 28.1758C49.6028 27.2154 48.7472 26.5216 47.7266 26.4102L47.2676 26.3594C47.98 26.0423 48.7686 25.8652 49.5986 25.8652Z" fill="#FF3F69"/>
<path fill-rule="evenodd" clip-rule="evenodd" d="M57.5784 35.2969C58.2266 35.297 58.7206 35.8778 58.6165 36.5176L53.2063 69.7334C52.7918 72.2774 50.5944 74.1464 48.0169 74.1465H31.9885C29.4108 74.1465 27.2125 72.2776 26.7981 69.7334L21.3889 36.5176C21.2847 35.8777 21.7787 35.2969 22.427 35.2969L57.5784 35.2969ZM40.0003 41.9297C39.4194 41.9297 38.9485 42.4006 38.9485 42.9814V67.5166C38.9485 68.0974 39.4195 68.5684 40.0003 68.5684C40.5809 68.5681 41.052 68.0973 41.052 67.5166V42.9814C41.052 42.4008 40.5809 41.9299 40.0003 41.9297ZM29.0217 41.9414C28.4473 42.0263 28.0503 42.5603 28.135 43.1348L31.7512 67.6699L31.7717 67.7754C31.9023 68.292 32.4061 68.6358 32.9446 68.5566C33.483 68.4772 33.8658 68.0029 33.842 67.4707L33.8313 67.3633L30.2151 42.8281C30.1304 42.2536 29.5963 41.8568 29.0217 41.9414ZM50.9797 41.9414C50.4052 41.8567 49.8711 42.2535 49.7864 42.8281L46.1702 67.3633L46.1594 67.4707C46.1357 68.0029 46.5184 68.4773 47.0569 68.5566C47.5955 68.6359 48.0991 68.292 48.2297 67.7754L48.2503 67.6699L51.8665 43.1348C51.9511 42.5602 51.5543 42.0262 50.9797 41.9414Z" fill="#FF3F69"/>
<path d="M61.8309 49.6415L65.6963 43.6718C66.0014 43.2005 66.6346 43.0727 67.0986 43.3888L71.1435 46.144C71.3373 46.276 71.4785 46.4719 71.5425 46.6975L72.824 51.2132C72.9429 51.6323 72.7769 52.0801 72.4136 52.3204L68.9001 54.6438C68.5705 54.8617 68.1435 54.8652 67.8105 54.6526L62.1322 51.0279C61.6646 50.7294 61.5294 50.1072 61.8309 49.6415Z" fill="#FF3F69"/>
<path d="M66.1764 62.5115L64.6583 60.9524C64.2861 60.5702 63.6794 60.5474 63.2796 60.9007L61.61 62.3762C61.1581 62.7756 61.1598 63.481 61.6136 63.8781L63.5645 65.5851C64.0002 65.9663 64.6676 65.8991 65.0184 65.4386L66.2553 63.8152C66.5556 63.421 66.522 62.8665 66.1764 62.5115Z" fill="#FF3F69"/>
<path d="M7.11239 19.679C6.68357 18.0786 7.63332 16.4336 9.23371 16.0048L43.8448 6.73078C45.4452 6.30195 47.0902 7.2517 47.519 8.8521L47.8319 10.0199C47.9034 10.2866 47.7451 10.5608 47.4784 10.6323L8.03768 21.2004C7.77094 21.2718 7.49677 21.1135 7.4253 20.8468L7.11239 19.679Z" fill="#FF3F69"/>
<path d="M27.8911 5.64366C30.1965 5.02606 32.6578 5.62563 34.4208 7.23441L38.8263 11.2546L15.8384 17.4142L17.6435 11.7299C18.366 9.45511 20.1977 7.70524 22.503 7.08738L27.8911 5.64366ZM23.0207 9.01923C21.3741 9.46058 20.0658 10.7105 19.5497 12.3353L18.8505 14.5365L34.7789 10.2686L33.0727 8.71179C31.8134 7.5627 30.0554 7.13441 28.4087 7.57551L23.0207 9.01923Z" fill="#FF3F69"/>
</svg>
