<svg width="80" height="80" viewBox="0 0 80 80" fill="none" xmlns="http://www.w3.org/2000/svg">
<path d="M36.7793 52.0215C37.8573 52.0215 38.7352 52.8992 38.7354 53.9775C38.7351 55.0558 37.8572 55.9336 36.7793 55.9336H20.9014C19.8236 55.9334 18.9465 55.0557 18.9463 53.9775C18.9465 52.8993 19.8236 52.0217 20.9014 52.0215H36.7793Z" fill="#FF3F69"/>
<path fill-rule="evenodd" clip-rule="evenodd" d="M28.8418 21.8516C33.5173 21.8516 37.9814 23.2236 41.7764 25.7754L41.7773 25.7705C43.0245 26.6089 44.1998 27.5748 45.2871 28.6621C49.112 32.487 51.4363 37.3999 51.9746 42.707C51.9722 42.7059 51.9701 42.7042 51.9678 42.7031C52.0483 43.4942 52.0898 44.2937 52.0898 45.0996C52.0898 51.3093 49.6712 57.1471 45.2803 61.5381C40.8893 65.929 35.0515 68.3477 28.8418 68.3477C22.6321 68.3477 16.7943 65.929 12.4033 61.5381C8.01239 57.1471 5.59375 51.3093 5.59375 45.0996C5.59375 38.8899 8.01238 33.0521 12.4033 28.6611C16.7943 24.2702 22.6321 21.8516 28.8418 21.8516ZM20.9014 49.0137C18.1645 49.0139 15.9377 51.2407 15.9375 53.9775C15.9377 56.7144 18.1645 58.9412 20.9014 58.9414H36.7793C39.5163 58.9414 41.7439 56.7145 41.7441 53.9775C41.744 51.2405 39.5164 49.0137 36.7793 49.0137H20.9014ZM18.1768 34.6826C17.5964 34.3477 16.8537 34.5467 16.5186 35.127L16.2275 35.6299C15.8928 36.2102 16.0918 36.953 16.6719 37.2881L20.4307 39.458C20.6325 39.5747 20.6332 39.8664 20.4316 39.9834L16.6719 42.1543C16.0919 42.4894 15.893 43.2313 16.2275 43.8115L16.5186 44.3154C16.8537 44.8955 17.5965 45.0947 18.1768 44.7598L25.083 40.7715C25.8918 40.3044 25.8918 39.137 25.083 38.6699L18.1768 34.6826ZM41.0762 35.127C40.7411 34.5468 39.9992 34.3479 39.4189 34.6826L32.5117 38.6699C31.703 39.137 31.7031 40.3043 32.5117 40.7715L39.4189 44.7598C39.9992 45.0944 40.7411 44.8954 41.0762 44.3154L41.3672 43.8115C41.7018 43.2312 41.5029 42.4894 40.9229 42.1543L37.1641 39.9834C36.962 39.8666 36.962 39.5748 37.1641 39.458L40.9229 37.2881C41.5031 36.953 41.702 36.2102 41.3672 35.6299L41.0762 35.127Z" fill="#FF3F69"/>
<path fill-rule="evenodd" clip-rule="evenodd" d="M59.292 9.21875C68.9798 9.21875 76.834 17.0729 76.834 26.7607C76.834 36.4485 68.9798 44.3027 59.292 44.3027C57.6235 44.3027 56.0094 44.0699 54.4805 43.6348C54.1281 37.3278 51.5061 31.4475 47.0039 26.9453C45.5182 25.4596 43.8816 24.1797 42.1299 23.1172C43.8072 15.1779 50.8536 9.21875 59.292 9.21875ZM58.8799 17.0137C58.535 17.0137 58.2549 17.2937 58.2549 17.6387V19.4805C58.2547 19.5421 58.2048 19.6054 58.125 19.6162C57.5341 19.6964 56.9703 19.8649 56.4346 20.1211C55.7774 20.4223 55.2404 20.8704 54.8291 21.46C54.421 22.0511 54.2256 22.7851 54.2256 23.6455C54.2256 24.5151 54.413 25.2404 54.8125 25.7969C55.1966 26.3317 55.7029 26.7553 56.3252 27.0674C56.7538 27.295 57.2147 27.4753 57.707 27.6084L57.7129 27.6094C58.192 27.7259 58.6908 27.836 59.208 27.9395L59.2139 27.9404C59.7172 28.0285 60.2079 28.149 60.6855 28.2998L60.6982 28.3027C61.0263 28.3878 61.3052 28.5019 61.5381 28.6416L61.5469 28.6465C61.7688 28.7686 61.935 28.9262 62.0518 29.1172L62.0566 29.125C62.1756 29.3035 62.2461 29.5527 62.2461 29.8926C62.2461 30.3033 62.1276 30.6189 61.9062 30.8613L61.9023 30.8662C61.6801 31.1216 61.382 31.3101 60.9971 31.4268L60.9951 31.4277C60.6109 31.5478 60.1862 31.6094 59.7197 31.6094C59.238 31.6094 58.7566 31.5538 58.2734 31.4424C57.8199 31.3349 57.4239 31.1454 57.082 30.875C56.8078 30.6476 56.5923 30.3459 56.4385 29.9629C56.3437 29.7273 56.1159 29.5459 55.8379 29.5459H54.458C54.0768 29.5462 53.7626 29.8964 53.8623 30.293C54.0252 30.9396 54.2842 31.5012 54.6426 31.9717L54.6455 31.9746C55.0933 32.5445 55.6443 32.9875 56.2959 33.2998L56.3008 33.3018C56.8541 33.5502 57.4406 33.7264 58.0586 33.8311C58.1313 33.8433 58.1777 33.9035 58.1777 33.9639V35.8809C58.178 36.2256 58.4579 36.5048 58.8027 36.5049H60.001C60.3457 36.5047 60.6248 36.2255 60.625 35.8809V34.0361C60.625 33.9743 60.6744 33.9127 60.751 33.9023C61.4238 33.8136 62.0434 33.6322 62.6064 33.3564C63.2748 33.0291 63.8108 32.5621 64.209 31.958L64.21 31.9561C64.6152 31.3272 64.8095 30.5441 64.8096 29.623C64.8096 28.9518 64.6876 28.3734 64.4307 27.9023C64.1777 27.426 63.813 27.0407 63.3408 26.749C62.8916 26.4509 62.3541 26.2176 61.7334 26.0459C61.1456 25.8507 60.5132 25.6949 59.8389 25.5781C59.3495 25.4838 58.8935 25.3651 58.4707 25.2227L58.0576 25.0713C57.8781 24.9994 57.7091 24.9145 57.5508 24.8164L57.3965 24.7139C57.2223 24.582 57.0796 24.4172 56.9688 24.2178C56.8643 24.0295 56.8077 23.8029 56.8076 23.5303C56.8076 23.077 56.934 22.7641 57.1543 22.5537C57.4033 22.316 57.7185 22.1413 58.1074 22.0352C58.5208 21.9259 58.94 21.8785 59.3652 21.8906H59.373C59.8258 21.8907 60.2442 21.9521 60.6289 22.0723L60.6357 22.0742C61.005 22.1782 61.3038 22.3605 61.54 22.6191L61.5439 22.623C61.7142 22.8014 61.838 23.0342 61.9082 23.332C61.9742 23.6116 62.2174 23.8572 62.5439 23.8574H63.8115C64.1546 23.8574 64.4557 23.5715 64.4209 23.2031C64.3614 22.5749 64.1848 22.0196 63.8838 21.5449C63.527 20.9823 63.0523 20.5355 62.4639 20.207C61.9773 19.9355 61.4449 19.7541 60.8691 19.6621C60.7897 19.6494 60.7412 19.5859 60.7412 19.5254V17.6387C60.7412 17.2937 60.4612 17.0137 60.1162 17.0137H58.8799Z" fill="#FF3F69"/>
</svg>
