<svg width="60" height="60" viewBox="0 0 60 60" fill="none" xmlns="http://www.w3.org/2000/svg">
<path fill-rule="evenodd" clip-rule="evenodd" d="M47.2522 32.795C48.2576 32.1517 49.5457 32.1516 50.551 32.795C51.5565 33.4385 52.8444 33.4385 53.8499 32.795L54.416 32.4332C54.8844 32.1334 55.4993 32.4696 55.4993 33.0258V51.8146C55.4992 53.7577 53.9238 55.3329 51.9807 55.3331H32.5906C30.6679 55.333 29.1094 53.7739 29.1094 51.8512V33.0258C29.1094 32.4696 29.7242 32.1334 30.1926 32.4332L30.7588 32.795C31.7642 33.4385 33.0522 33.4385 34.0576 32.795C35.063 32.1517 36.3511 32.1516 37.3564 32.795C38.3618 33.4385 39.6491 33.4385 40.6545 32.795C41.6599 32.1516 42.948 32.1517 43.9534 32.795C44.9588 33.4385 46.2468 33.4385 47.2522 32.795ZM41.8813 36.9611C41.6623 36.9611 41.4844 37.1614 41.4844 37.4078V38.7233C41.4842 38.7672 41.4529 38.8129 41.4023 38.8207C41.0271 38.878 40.6688 38.998 40.3286 39.181C39.9113 39.3962 39.5702 39.7164 39.3091 40.1376C39.05 40.5599 38.9261 41.0844 38.926 41.6991C38.926 42.3204 39.0451 42.8388 39.2988 43.2364C39.5427 43.6185 39.864 43.9209 40.259 44.1439C40.5311 44.3065 40.8239 44.4356 41.1365 44.5306L41.1401 44.5314C41.4444 44.6146 41.7616 44.6933 42.0901 44.7672L42.0938 44.7679C42.4133 44.8309 42.7251 44.9173 43.0283 45.025L43.0364 45.0265C43.2446 45.0873 43.4217 45.1691 43.5696 45.2689L43.5747 45.2726C43.7156 45.3598 43.8214 45.4723 43.8955 45.6088L43.8984 45.6146C43.9739 45.7421 44.0185 45.9199 44.0186 46.1625C44.0185 46.4558 43.9437 46.6814 43.8032 46.8546L43.8003 46.8583C43.6592 47.0407 43.4704 47.1755 43.2261 47.2589L43.2246 47.2596C42.9806 47.3454 42.7107 47.3893 42.4146 47.3893C42.1087 47.3893 41.8028 47.3495 41.4961 47.2699C41.2084 47.1932 40.9572 47.0579 40.7402 46.8649C40.5661 46.7024 40.4292 46.4866 40.3315 46.213C40.2714 46.0447 40.1264 45.9149 39.95 45.9149H39.074C38.8319 45.9151 38.632 46.1655 38.6953 46.4488C38.7987 46.9108 38.9636 47.3117 39.1912 47.6478L39.1926 47.65C39.4769 48.0572 39.8269 48.3739 40.2407 48.597L40.2437 48.5985C40.595 48.776 40.9675 48.9017 41.3599 48.9764C41.406 48.9852 41.4353 49.0285 41.4353 49.0716V50.4413C41.4355 50.6875 41.6134 50.8872 41.8323 50.8873H42.5933C42.8121 50.8872 42.9893 50.6875 42.9895 50.4413V49.1229C42.9896 49.0789 43.0209 49.0351 43.0693 49.0277C43.4966 48.9643 43.8903 48.8344 44.2478 48.6373C44.6721 48.4034 45.0123 48.0699 45.2651 47.6383L45.2659 47.6368C45.5231 47.1876 45.6467 46.6278 45.6467 45.9698C45.6467 45.4904 45.5689 45.0773 45.4058 44.7408C45.2452 44.4006 45.0141 44.1252 44.7144 43.9169C44.4291 43.7039 44.0875 43.5371 43.6934 43.4144C43.3202 43.275 42.9188 43.1638 42.4907 43.0804C42.18 43.013 41.8898 42.9281 41.6213 42.8263L41.3591 42.7179C41.2453 42.6666 41.138 42.6063 41.0376 42.5362L40.9395 42.4623C40.829 42.3681 40.738 42.2509 40.6677 42.1085C40.6014 41.974 40.566 41.8118 40.5659 41.6171C40.5659 41.2932 40.6457 41.0693 40.7856 40.9191C40.9437 40.7493 41.1438 40.6243 41.3906 40.5485C41.6531 40.4704 41.9197 40.4365 42.1897 40.4452H42.1948C42.4822 40.4452 42.7475 40.4897 42.9917 40.5756L42.9961 40.5763C43.2305 40.6505 43.4203 40.7812 43.5703 40.9659L43.5732 40.9689C43.6812 41.0962 43.7601 41.2624 43.8047 41.475C43.8466 41.6747 44.0009 41.8506 44.2083 41.8507H45.0132C45.2309 41.8505 45.4219 41.6464 45.3999 41.3834C45.3621 40.9345 45.2497 40.5375 45.0586 40.1984C44.832 39.7964 44.5306 39.4772 44.157 39.2425C43.8481 39.0486 43.5103 38.9186 43.1448 38.8529C43.0943 38.8438 43.0635 38.7988 43.0635 38.7555V37.4078C43.0635 37.1613 42.8856 36.9611 42.6665 36.9611H41.8813Z" fill="#C669FF"/>
<path fill-rule="evenodd" clip-rule="evenodd" d="M34.6506 4.75C32.7074 4.75 31.1321 6.3253 31.1321 8.26855V28.7983C31.1319 29.3543 30.5172 29.6905 30.0488 29.3909L29.4827 29.0283C28.5401 28.4251 27.3493 28.3878 26.3757 28.9155L25.9919 29.1411C25.0832 29.6338 23.9856 29.6338 23.0769 29.1411L22.6931 28.9155C21.7844 28.4229 20.6868 28.4229 19.7781 28.9155L19.3943 29.1411C18.4856 29.6337 17.3879 29.6337 16.4792 29.1411L16.0955 28.9155C15.1869 28.4231 14.0897 28.4231 13.1812 28.9155L12.7974 29.1411C11.8887 29.6337 10.791 29.6337 9.88232 29.1411L9.49854 28.9155C8.52494 28.3877 7.33416 28.4251 6.3916 29.0283L5.82544 29.3909C5.35709 29.6906 4.74233 29.3543 4.74219 28.7983V8.2312C4.74236 6.30866 6.30085 4.75017 8.22339 4.75H34.6506ZM17.5142 9.97217C17.2952 9.97224 17.1172 10.1725 17.1172 10.4189V11.7344C17.1171 11.7784 17.0857 11.824 17.0352 11.8318C16.6599 11.8891 16.3016 12.0091 15.9614 12.1921C15.5442 12.4073 15.2031 12.7275 14.9419 13.1487C14.6828 13.571 14.5589 14.0956 14.5588 14.7102C14.5588 15.3315 14.6779 15.8499 14.9316 16.2476C15.1755 16.6296 15.4969 16.932 15.8918 17.155C16.1639 17.3176 16.4567 17.4467 16.7693 17.5417L16.7729 17.5425C17.0772 17.6258 17.3944 17.7044 17.7229 17.7783L17.7266 17.7791C18.0461 17.842 18.3579 17.9284 18.6611 18.0361L18.6692 18.0383C18.8774 18.0991 19.0546 18.1803 19.2024 18.28L19.2075 18.2837C19.3484 18.3709 19.4542 18.4834 19.5283 18.6199L19.5312 18.6257C19.6067 18.7532 19.6513 18.931 19.6514 19.1736C19.6514 19.4669 19.5765 19.6926 19.436 19.8657L19.4331 19.8694C19.2921 20.0518 19.1032 20.1866 18.8589 20.27L18.8574 20.2708C18.6135 20.3565 18.3436 20.4004 18.0474 20.4004C17.7415 20.4004 17.4357 20.3606 17.1289 20.281C16.8412 20.2043 16.59 20.069 16.373 19.876C16.1989 19.7135 16.0621 19.4977 15.9644 19.2241C15.9042 19.0558 15.7592 18.9261 15.5828 18.926H14.7068C14.4647 18.9262 14.2648 19.1766 14.3281 19.46C14.4316 19.922 14.5964 20.3235 14.824 20.6597L14.8254 20.6611C15.1097 21.0683 15.4598 21.3851 15.8735 21.6082L15.8765 21.6096C16.2278 21.7871 16.6003 21.9128 16.9927 21.9875C17.0388 21.9963 17.0681 22.0396 17.0681 22.0828V23.4524C17.0683 23.6987 17.2462 23.8983 17.4651 23.8984H18.2261C18.4449 23.8983 18.6222 23.6987 18.6223 23.4524V22.134C18.6225 22.09 18.6538 22.0462 18.7021 22.0388C19.1294 21.9754 19.5231 21.8455 19.8806 21.6484C20.3049 21.4145 20.6451 21.081 20.8979 20.6494L20.8987 20.6479C21.1559 20.1987 21.2795 19.6389 21.2795 18.981C21.2795 18.5015 21.2017 18.0884 21.0386 17.752C20.878 17.4117 20.6469 17.1363 20.3472 16.928C20.0619 16.715 19.7203 16.5482 19.3262 16.4255C18.953 16.2861 18.5516 16.175 18.1235 16.0916C17.8128 16.0242 17.5226 15.9392 17.2542 15.8374L16.9919 15.729C16.8781 15.6777 16.7708 15.6174 16.6704 15.5474L16.5723 15.4741C16.4617 15.38 16.3709 15.2621 16.3005 15.1196C16.2342 14.9851 16.1988 14.823 16.1987 14.6282C16.1987 14.3043 16.2786 14.0805 16.4185 13.9302C16.5765 13.7604 16.7766 13.6354 17.0234 13.5596C17.2859 13.4815 17.5525 13.4476 17.8225 13.4563H17.8276C18.115 13.4563 18.3803 13.5008 18.6245 13.5867L18.6289 13.5881C18.8633 13.6624 19.0532 13.7923 19.2031 13.9771L19.2061 13.98C19.3141 14.1074 19.3929 14.2741 19.4375 14.4868C19.4795 14.6864 19.6338 14.8617 19.8411 14.8618H20.646C20.8637 14.8616 21.0547 14.6575 21.0327 14.3945C20.9949 13.9456 20.8825 13.5486 20.6914 13.2095C20.4649 12.8076 20.1634 12.4883 19.7898 12.2537C19.4809 12.0597 19.1431 11.9305 18.7776 11.8647C18.7271 11.8557 18.6963 11.8099 18.6963 11.7666V10.4189C18.6963 10.1725 18.5184 9.97218 18.2993 9.97217H17.5142Z" fill="#C669FF"/>
<path d="M35.6431 4.75C36.8429 4.75 37.816 5.72257 37.8162 6.92236V11.4355C37.8161 12.2128 37.1857 12.8425 36.4084 12.8425H33.4707V6.92236C33.4709 5.72267 34.4434 4.75017 35.6431 4.75Z" fill="#C669FF"/>
</svg>
