<svg width="60" height="60" viewBox="0 0 60 60" fill="none" xmlns="http://www.w3.org/2000/svg">
<path fill-rule="evenodd" clip-rule="evenodd" d="M44.5 2C51.9559 2 57.9999 7.82029 58 15C58 22.1798 51.9559 28 44.5 28C37.0441 28 31 22.1797 31 15C31.0001 7.82032 37.0442 2.00005 44.5 2ZM44.1982 8.66442C43.9654 8.66442 43.776 8.8463 43.7759 9.07043V10.2676C43.7757 10.3076 43.7423 10.3488 43.6885 10.3559C43.2896 10.408 42.9087 10.5175 42.5471 10.684C42.1035 10.8798 41.741 11.1713 41.4634 11.5545C41.188 11.9386 41.0563 12.4157 41.0562 12.9748C41.0562 13.5401 41.1829 14.0119 41.4526 14.3736C41.7118 14.7212 42.0534 14.9967 42.4734 15.1995C42.7628 15.3475 43.0739 15.4648 43.4062 15.5513L43.4106 15.552C43.7338 15.6277 44.0702 15.6989 44.4191 15.7661L44.4235 15.7668C44.7633 15.8241 45.0945 15.9024 45.4169 16.0004L45.4256 16.0025C45.647 16.0578 45.8351 16.1321 45.9923 16.2229L45.9981 16.2257C46.1478 16.305 46.26 16.4075 46.3388 16.5316L46.3425 16.5371C46.4226 16.6531 46.4702 16.815 46.4702 17.0356C46.4702 17.3026 46.3901 17.5079 46.2407 17.6655L46.2385 17.669C46.0885 17.835 45.8868 17.9574 45.627 18.0333L45.6255 18.034C45.3663 18.1119 45.0797 18.1514 44.765 18.1515C44.4399 18.1515 44.115 18.1154 43.7889 18.043C43.4828 17.9732 43.2153 17.8503 42.9846 17.6745C42.7995 17.5267 42.6538 17.3305 42.55 17.0815C42.486 16.9285 42.3324 16.8105 42.145 16.8104H41.2129C40.9557 16.8107 40.7435 17.0387 40.8108 17.2963C40.9207 17.7166 41.0959 18.0813 41.3378 18.3871L41.34 18.3892C41.6422 18.7596 42.0141 19.0477 42.454 19.2506L42.4568 19.252C42.8304 19.4135 43.2266 19.5281 43.6438 19.5961C43.6927 19.6042 43.7239 19.6431 43.7239 19.6823V20.9282C43.724 21.1523 43.9135 21.3335 44.1462 21.3335H44.9548C45.1875 21.3333 45.3756 21.1522 45.3757 20.9282V19.7289C45.3758 19.6888 45.4093 19.6487 45.4609 19.642C45.9151 19.5843 46.3335 19.4667 46.7135 19.2874C47.1647 19.0746 47.5263 18.7708 47.795 18.3781L47.7958 18.3767C48.0692 17.968 48.2007 17.459 48.2008 16.8604C48.2008 16.4242 48.1179 16.0479 47.9445 15.7418C47.7738 15.4323 47.5275 15.1819 47.2088 14.9924C46.9057 14.7987 46.5431 14.6471 46.1244 14.5356C45.7276 14.4087 45.3003 14.307 44.8451 14.2311C44.5149 14.1698 44.2071 14.0929 43.9217 14.0003L43.643 13.9022C43.5218 13.8555 43.4077 13.7999 43.3008 13.7361L43.1969 13.6693C43.0794 13.5837 42.9829 13.477 42.9081 13.3475C42.8376 13.2251 42.7991 13.0776 42.7991 12.9004C42.7991 12.6059 42.8844 12.4024 43.033 12.2657C43.201 12.1112 43.4139 11.9975 43.6762 11.9285C43.9552 11.8575 44.2383 11.8268 44.5253 11.8346H44.531C44.8366 11.8347 45.119 11.8747 45.3786 11.9528L45.383 11.9535C45.6323 12.0211 45.8343 12.1399 45.9937 12.3081L45.9959 12.3109C46.1108 12.4267 46.1947 12.5777 46.2421 12.7711C46.2866 12.9528 46.4506 13.1129 46.6709 13.1132H47.5272C47.7586 13.113 47.9614 12.927 47.938 12.6877C47.8979 12.2794 47.7786 11.9186 47.5756 11.6101C47.3348 11.2445 47.0146 10.9538 46.6175 10.7404C46.2891 10.5639 45.9296 10.4456 45.5411 10.3858C45.4874 10.3775 45.4544 10.3362 45.4544 10.2968V9.07043C45.4543 8.84639 45.2655 8.66457 45.0328 8.66442H44.1982Z" fill="#FF609C"/>
<path d="M2 38.34C2 37.5624 2.64428 36.9321 3.43903 36.9321H9.67014C10.4649 36.9321 11.1092 37.5624 11.1092 38.34V56.5921C11.1092 57.3697 10.4649 58 9.67014 58H3.43903C2.64428 58 2 57.3697 2 56.5921V38.34Z" fill="#406CFF"/>
<path d="M25.2606 32.7456C25.2606 31.9681 25.9048 31.3377 26.6996 31.3377H32.9307C33.7254 31.3377 34.3697 31.9681 34.3697 32.7456V56.5921C34.3697 57.3697 33.7254 58 32.9307 58H26.6996C25.9048 58 25.2606 57.3697 25.2606 56.5921V32.7456Z" fill="#406CFF"/>
<path d="M13.6303 28.4079C13.6303 27.6303 14.2746 27 15.0693 27H21.3004C22.0952 27 22.7394 27.6303 22.7394 28.4079V56.5921C22.7394 57.3697 22.0952 58 21.3004 58H15.0693C14.2746 58 13.6303 57.3697 13.6303 56.5921V28.4079Z" fill="#406CFF"/>
<path d="M36.8908 28.3824C39.1032 29.6246 41.667 30.3354 44.4008 30.3354C44.941 30.3354 45.4745 30.307 46 30.253V56.5921C46 57.3697 45.3557 58 44.561 58H38.3299C37.5351 58 36.8908 57.3697 36.8908 56.5921V28.3824Z" fill="#406CFF"/>
</svg>
