<svg width="80" height="80" viewBox="0 0 80 80" fill="none" xmlns="http://www.w3.org/2000/svg">
<path fill-rule="evenodd" clip-rule="evenodd" d="M19.6482 14.4078C19.1223 13.1973 19.4367 11.8336 20.3856 10.981C21.142 10.2937 22.2265 10.2042 23.0873 10.7546L23.9128 11.2806C24.6624 11.7645 25.5693 11.7645 26.3216 11.2806L27.1553 10.7505C27.909 10.2707 28.8159 10.2707 29.5642 10.7505L30.3978 11.2806C31.1515 11.7645 32.0584 11.7645 32.8067 11.2806L33.6322 10.7546C34.493 10.2056 35.5761 10.2937 36.3338 10.981C37.2827 11.8336 37.5986 13.1987 37.0753 14.4078L35.5503 17.935L21.1678 17.935L19.6482 14.4078ZM45.7048 47.5202L51.4267 47.5202L51.4267 47.8116C51.4267 51.0663 50.673 54.1475 49.3242 56.9183C49.1859 57.1989 48.9202 57.3643 48.6098 57.3561C48.298 57.348 48.0378 57.1758 47.9144 56.8912L46.2769 53.1525C46.1806 52.9329 46.0085 52.7838 45.7767 52.7187C45.5462 52.6496 45.3199 52.6876 45.1233 52.8258L41.9038 55.0435C41.5961 55.255 41.1935 55.2198 40.9238 54.9622L37.562 51.7224C37.3166 51.4838 36.9628 51.4337 36.6632 51.595C36.3596 51.7563 36.2023 52.0749 36.2593 52.4137L37.7043 60.867C37.7463 61.1056 37.6813 61.332 37.5159 61.5123C37.3546 61.6966 37.139 61.7847 36.8937 61.7739L33.1889 61.5706C32.9666 61.5597 32.766 61.6316 32.6047 61.7902C32.4434 61.9474 32.362 62.144 32.3702 62.3703L32.5545 68.568C32.5667 68.9638 32.2821 69.3013 31.8862 69.3596C30.7367 69.525 29.5614 69.6131 28.3631 69.6131C15.6208 69.6131 5.29687 59.8531 5.29687 47.8103C5.29687 39.7677 9.97763 32.1061 16.8354 26.8804C17.7003 27.5798 18.8023 28.0028 19.9979 28.0028L36.7242 28.0028C37.9198 28.0028 39.0219 27.5798 39.8868 26.8804C41.7317 28.2834 43.4221 29.8667 44.901 31.5869L40.7055 38.8568C39.6563 40.6746 39.6563 42.815 40.7055 44.6315C41.7547 46.4479 43.6064 47.5202 45.7048 47.5202ZM32.9246 51.2086C32.9246 49.971 32.4217 48.8459 31.6029 48.0271C30.9075 47.3317 29.9857 46.8627 28.9596 46.7394C28.8755 46.7163 28.7861 46.7041 28.6939 46.7041L28.4214 46.7041L28.3021 46.7041C27.6799 46.7041 27.1147 46.4506 26.7039 46.0399C26.2932 45.6292 26.0356 45.0639 26.0356 44.4417C26.0356 43.8195 26.2932 43.2542 26.7039 42.8435C27.1147 42.4327 27.6799 42.1792 28.3021 42.1792L29.0856 42.1792C29.4544 42.1792 29.796 42.2633 30.0996 42.4178C30.4182 42.5791 30.6988 42.8136 30.9102 43.1024C31.2749 43.5985 31.9743 43.7015 32.4705 43.3328C32.9666 42.9682 33.0696 42.2687 32.7009 41.7726C32.2861 41.2073 31.7371 40.7423 31.1068 40.4238C30.6066 40.1703 30.0576 40.009 29.4815 39.9588L29.4815 38.0299C29.4815 37.4117 28.9785 36.9115 28.3631 36.9115C27.745 36.9115 27.2407 37.4117 27.2407 38.0299L27.2407 40.0659C26.426 40.2625 25.6954 40.6841 25.1193 41.2615C24.3046 42.0762 23.7976 43.2013 23.7976 44.443C23.7976 45.6847 24.3046 46.8098 25.1193 47.6245C25.8147 48.3199 26.7365 48.793 27.7626 48.915C27.8467 48.934 27.9361 48.9462 28.0283 48.9462L28.3008 48.9462L28.4201 48.9462C29.0423 48.9462 29.6075 49.1997 30.0183 49.6104C30.429 50.0212 30.6866 50.5905 30.6866 51.2086C30.6866 51.8309 30.429 52.4002 30.0183 52.8109C29.6075 53.2176 29.0423 53.4751 28.4201 53.4751L27.6365 53.4751C27.2678 53.4751 26.9262 53.387 26.6226 53.2325C26.304 53.0712 26.0275 52.8367 25.812 52.5479C25.4473 52.0559 24.7478 51.9529 24.2517 52.3175C23.7556 52.6862 23.6525 53.3857 24.0213 53.8777C24.4361 54.443 24.9851 54.908 25.6154 55.2265C26.1156 55.48 26.6646 55.6454 27.2407 55.6956L27.2407 57.6205C27.2407 58.2386 27.7436 58.7429 28.3631 58.7429C28.9785 58.7429 29.4815 58.2399 29.4815 57.6205L29.4815 55.5871C30.2962 55.3878 31.0268 54.9649 31.6029 54.3888C32.4203 53.5755 32.9246 52.449 32.9246 51.2086ZM19.9979 25.7674L36.7242 25.7674C38.2614 25.7674 39.518 24.5068 39.518 22.9696C39.518 21.4324 38.2614 20.1758 36.7242 20.1758L19.9979 20.1758C18.4607 20.1758 17.2041 21.4324 17.2041 22.9696C17.2041 24.5068 18.4607 25.7674 19.9979 25.7674ZM74.2123 43.5118C73.563 44.6382 72.4487 45.2794 71.1542 45.2794L45.7048 45.2794C44.4062 45.2794 43.2919 44.6382 42.6426 43.5118C41.9933 42.3894 41.9933 41.1029 42.6426 39.9765L55.3686 17.9391C56.0139 16.8126 57.1282 16.1714 58.4268 16.1714C59.7254 16.1714 60.8397 16.8126 61.489 17.9391L74.2123 39.9765C74.8616 41.1029 74.8616 42.3894 74.2123 43.5118ZM60.0263 40.4645C60.0263 39.5888 59.3079 38.8703 58.4281 38.8703C57.5484 38.8703 56.834 39.5888 56.834 40.4645C56.834 41.3442 57.5484 42.0627 58.4281 42.0627C59.3065 42.0627 60.0263 41.3442 60.0263 40.4645ZM60.2297 25.7254C60.2527 25.2252 60.0914 24.7874 59.7457 24.4227C59.4001 24.0622 58.969 23.8764 58.4702 23.8764L58.3888 23.8764C57.8859 23.8764 57.4548 24.0608 57.1092 24.4227C56.7676 24.7874 56.6022 25.2252 56.6293 25.7254L57.0522 34.2438C57.0875 34.9622 57.6785 35.5275 58.397 35.5275L58.458 35.5275C59.1764 35.5275 59.7688 34.9622 59.8027 34.2438L60.2297 25.7254Z" fill="#FF3F69"/>
</svg>
