<svg width="80" height="80" viewBox="0 0 80 80" fill="none" xmlns="http://www.w3.org/2000/svg">
<path d="M68.6737 48.3851C69.768 48.4322 70.143 49.866 69.2118 50.4427L50.3876 62.0951C49.6836 62.5309 48.8989 62.8356 48.0829 62.9759C31.0045 65.9128 16.7927 63.6594 9.38174 61.8929C7.40227 61.4208 7.30675 58.9194 9.19424 58.1585L20.8202 53.473C29.7208 56.5447 38.7942 58.2317 48.1708 58.2845C48.7031 58.2875 49.2271 58.1566 49.6991 57.9105L68.0214 48.3568L68.6737 48.3851Z" fill="#FF3F69"/>
<path d="M22.1884 36.7279C28.8937 45.1743 37.9762 51.2459 48.8183 52.7503C49.0191 52.7781 49.2244 52.7479 49.4101 52.6663L70.6269 43.348C71.5281 43.3746 71.8249 44.6323 71.0233 45.0452L49.8368 55.9613C49.3698 56.2019 48.8475 56.3301 48.3222 56.3275C30.7875 56.2407 17.5607 50.0271 10.7645 46.1449C9.25896 45.2848 9.37205 43.1198 10.9237 42.346L22.1884 36.7279Z" fill="#FF3F69"/>
<path fill-rule="evenodd" clip-rule="evenodd" d="M40.1063 15.7034C41.9451 15.2624 44.073 16.2936 44.9374 18.0199C54.0894 36.3092 74.7112 36.7516 74.9257 36.7542C75.5051 36.761 76.0033 37.1685 76.1239 37.7347C76.243 38.3027 75.9543 38.8768 75.4267 39.1165L49.9511 50.7367C49.7893 50.8103 49.6136 50.8489 49.4364 50.849C49.3835 50.8489 49.33 50.8453 49.2772 50.8382C31.0073 48.4666 20.4417 32.2608 16.7479 25.4017C16.2647 24.5053 16.2101 23.4911 16.5995 22.6195C16.9975 21.7279 17.8154 21.074 18.8417 20.8265L40.1063 15.7034ZM47.4657 34.056C47.1484 33.412 46.3685 33.1469 45.7245 33.4642C41.9136 35.3417 39.1946 36.1074 36.162 36.8577C35.4652 37.0303 35.0404 37.7351 35.2128 38.432C35.3855 39.1285 36.0903 39.5545 36.787 39.3822C39.9123 38.6089 42.8296 37.7888 46.8739 35.7962C47.5176 35.479 47.7823 34.6998 47.4657 34.056ZM45.6835 25.0648C45.3567 24.4259 44.5736 24.173 43.9345 24.4993C38.0855 27.4878 31.2312 29.3386 28.2245 29.8148C27.5157 29.9271 27.0317 30.5933 27.1435 31.3021C27.2559 32.0109 27.9219 32.4952 28.6308 32.3831C31.8825 31.8682 39.0023 29.938 45.1171 26.8138C45.7561 26.4871 46.0098 25.7039 45.6835 25.0648Z" fill="#FF3F69"/>
</svg>
