<svg width="60" height="60" viewBox="0 0 60 60" fill="none" xmlns="http://www.w3.org/2000/svg">
<path d="M53.1289 30.6693C54.9005 30.6694 56.1793 32.3649 55.6927 34.0684L50.5501 52.0684C50.223 53.2132 49.1763 54.0026 47.9857 54.0026H6.66406L12.778 32.6035C13.1051 31.4587 14.1518 30.6693 15.3424 30.6693H53.1289Z" fill="#C669FF"/>
<path d="M18.3307 14.6693C18.5148 14.6693 18.6641 14.8185 18.6641 15.0026V28.6693H15.3431C13.2595 28.6693 11.4279 30.0506 10.8555 32.054L4.66406 53.724V17.3359C4.66406 15.8632 5.85797 14.6693 7.33073 14.6693H18.3307Z" fill="#C669FF"/>
<path d="M38.8926 5.33594C39.5998 5.33594 40.2786 5.61709 40.7786 6.11719L41.9974 7.33594H28.6641C25.3504 7.33594 22.6641 10.0222 22.6641 13.3359V28.6693H20.6641V12.6693C20.6641 8.61918 23.9467 5.33594 27.9967 5.33594H38.8926Z" fill="#C669FF"/>
<path fill-rule="evenodd" clip-rule="evenodd" d="M42.8926 9.33594C43.5998 9.33594 44.2786 9.61709 44.7787 10.1172L49.2162 14.5547C49.7162 15.0548 49.9974 15.7335 49.9974 16.4408V28.6693H24.6641V13.3359C24.6641 11.1268 26.4549 9.33594 28.6641 9.33594H42.8926ZM30.3307 24.0026C29.7784 24.0026 29.3307 24.4503 29.3307 25.0026C29.3307 25.5549 29.7784 26.0026 30.3307 26.0026H35.6641C36.2164 26.0026 36.6641 25.5549 36.6641 25.0026C36.6641 24.4503 36.2164 24.0026 35.6641 24.0026H30.3307ZM30.3307 18.0026C29.7784 18.0026 29.3307 18.4503 29.3307 19.0026C29.3307 19.5549 29.7784 20.0026 30.3307 20.0026H40.9974C41.5497 20.0026 41.9974 19.5549 41.9974 19.0026C41.9974 18.4503 41.5497 18.0026 40.9974 18.0026H30.3307Z" fill="#C669FF"/>
</svg>
