<svg width="80" height="80" viewBox="0 0 80 80" fill="none" xmlns="http://www.w3.org/2000/svg">
<g clip-path="url(#clip0_92_1552)">
<path fill-rule="evenodd" clip-rule="evenodd" d="M66.0954 18.065C67.3658 18.2495 68.2521 19.4229 67.953 20.6714C65.4847 30.9755 55.6092 49.455 43.2274 57.8978C42.5061 58.3896 41.6143 58.55 40.7559 58.3906L18.1185 54.183C17.2571 54.0225 16.872 53.0049 17.4056 52.3097C17.932 51.624 18.4821 50.8901 19.0508 50.1068C22.768 52.6097 27.8263 53.0046 32.2564 50.9626L32.2776 50.9527L32.2984 50.9419L32.8283 50.6825L32.8487 50.6731L32.8695 50.6623C38.4868 47.7492 41.4826 41.5485 40.0132 35.8528C41.9041 36.3598 43.9951 36.8138 46.1373 37.041C46.8508 37.1163 47.4909 36.5994 47.5669 35.8861C47.6426 35.1724 47.1243 34.5321 46.4107 34.4561C43.6108 34.159 40.9828 33.4737 38.738 32.7827C37.0048 29.8523 34.1845 27.9576 31.0149 27.2127C32.2487 23.7153 33.381 19.879 34.3413 15.672C34.6151 14.4723 35.7587 13.6681 36.9765 13.8446L66.0954 18.065ZM59.7466 26.9972C59.7935 26.3262 59.3224 25.7389 58.6737 25.6262L58.542 25.6098L57.0015 25.4902C49.8563 24.8803 43.3344 23.5727 39.5864 22.4797L38.8265 22.2489L38.698 22.2154C38.0531 22.0811 37.3987 22.4544 37.1954 23.0958C36.9924 23.7373 37.3127 24.4193 37.9171 24.6808L38.0414 24.7274L38.8448 24.972C42.7893 26.1234 49.4907 27.4592 56.7877 28.0817L58.3601 28.2035L58.4925 28.2064C59.1506 28.1854 59.6994 27.6682 59.7466 26.9972Z" fill="#FF3F69"/>
<path fill-rule="evenodd" clip-rule="evenodd" d="M37.2883 34.2891C39.9583 39.4386 37.569 45.9746 31.9515 48.8876L31.4216 49.147C25.9179 51.6837 19.5317 49.8265 16.9448 44.8384L16.7092 44.3522C14.5007 39.4481 16.689 33.4624 21.7642 30.5235L22.2816 30.2399C27.8991 27.3269 34.6178 29.1399 37.2883 34.2891ZM34.5063 35.7361C32.5679 31.998 27.6904 30.6813 23.6125 32.7959C19.5349 34.9107 17.8006 39.6559 19.739 43.3938C21.6775 47.1313 26.5547 48.4473 30.6323 46.3331C34.71 44.2186 36.4442 39.4741 34.5063 35.7361Z" fill="#FF3F69"/>
<path d="M75.7986 38.4611C76.8995 38.8556 77.5487 40.0098 77.1484 41.1086C73.989 49.7793 62.274 61.25 50.683 68.6755C49.531 69.4134 48.1062 69.5623 46.8093 69.1265L28.0037 62.8066C27.3183 62.5761 27.095 61.7197 27.5823 61.1858C28.2613 60.4431 29.0059 59.6187 29.7985 58.7242L40.3346 60.6838C41.7469 60.9463 43.272 60.6912 44.5425 59.8251C51.1037 55.3514 56.8739 48.3245 61.29 41.2148C62.6553 39.0168 63.9031 36.7876 65.0165 34.5973L75.7986 38.4611Z" fill="#FF3F69"/>
<path d="M7.95195 52.119C6.7998 52.7165 5.38123 52.2672 4.78361 51.1152C4.18627 49.963 4.63605 48.5439 5.78824 47.9464L6.89965 47.3701L9.06336 51.5427L7.95195 52.119ZM9.92769 51.0945L7.76399 46.9219L16.5625 42.3594L18.7262 46.5319L9.92769 51.0945Z" fill="#FF3F69"/>
</g>
<defs>
<clipPath id="clip0_92_1552">
<rect width="80" height="80" fill="white"/>
</clipPath>
</defs>
</svg>
