<svg width="96" height="96" viewBox="0 0 96 96" fill="none" xmlns="http://www.w3.org/2000/svg">
<path d="M43.1984 69.1234C59.1002 69.1234 71.9984 56.2252 71.9984 40.3234C71.9984 24.4217 59.1002 11.5234 43.1984 11.5234C27.2967 11.5234 14.3984 24.4217 14.3984 40.3234C14.3984 56.2252 27.2967 69.1234 43.1984 69.1234ZM41.1412 23.8663C41.1412 22.7348 42.067 21.8091 43.1984 21.8091C44.3299 21.8091 45.2556 22.7348 45.2556 23.8663V39.336L54.7699 46.9475C55.6545 47.6572 55.7984 48.9531 55.0887 49.8377C54.6875 50.3417 54.091 50.6091 53.4841 50.6091C53.0315 50.6091 52.5789 50.465 52.1985 50.1565L41.9128 41.9281C41.4294 41.5371 41.1414 40.9509 41.1414 40.3234V23.8663H41.1412Z" fill="white"/>
<path d="M82.2654 64.193C82.1621 63.9769 81.9996 63.7946 81.7968 63.6672C81.594 63.5398 81.3592 63.4725 81.1197 63.4733H69.0136L75.5151 47.8305C75.5953 47.6381 75.6267 47.4288 75.6065 47.2213C75.5864 47.0139 75.5153 46.8146 75.3996 46.6412C75.2839 46.4678 75.1271 46.3257 74.9433 46.2275C74.7594 46.1292 74.5542 46.0779 74.3457 46.0781H60.5649C60.2925 46.0782 60.0274 46.1662 59.8089 46.3289C59.5905 46.4917 59.4304 46.7207 59.3525 46.9817L51.8969 71.9456C51.8403 72.1345 51.8287 72.3341 51.863 72.5283C51.8973 72.7225 51.9764 72.906 52.0942 73.0642C52.212 73.2224 52.3651 73.3508 52.5413 73.4393C52.7176 73.5278 52.912 73.5739 53.1092 73.5739H64.8028L61.1462 87.6914C61.0726 87.9719 61.0976 88.2692 61.2169 88.5335C61.3363 88.7978 61.5428 89.0131 61.8019 89.1433C62.061 89.2736 62.357 89.3109 62.6404 89.249C62.9237 89.1871 63.1772 89.0298 63.3584 88.8034L82.1093 65.5344C82.2594 65.3484 82.3537 65.1237 82.3813 64.8863C82.4089 64.6489 82.3687 64.4085 82.2654 64.193Z" fill="#202028"/>
</svg>
