<svg width="24" height="24" viewBox="0 0 24 24" fill="none" xmlns="http://www.w3.org/2000/svg">
<g clip-path="url(#clip0_276_1485)">
<path d="M6.2581 23.4756H0V7.30469H6.2581V23.4756ZM1.04295 22.4324H5.21515V8.34792H1.04295V22.4324Z" fill="white"/>
<path d="M23.9968 23.4756H17.7387V14.6077C17.7387 13.7434 17.0382 13.0427 16.1742 13.0427C15.31 13.0427 14.6097 13.7434 14.6097 14.6077V23.4756H8.35156V7.30469H14.6097V8.35441C15.5543 7.67128 16.6904 7.30392 17.856 7.30469C21.2392 7.30469 23.9968 10.0498 23.9968 13.4275V23.4756ZM18.7817 22.4324H22.9537V13.4275C22.9466 10.6174 20.6653 8.34429 17.856 8.34792C16.5718 8.34792 15.3658 8.88911 14.4662 9.8672L13.5665 10.8518V8.34792H9.39452V22.4324H13.5665V14.6077C13.5665 13.1671 14.734 11.9995 16.1742 11.9995C17.6142 11.9995 18.7817 13.1671 18.7817 14.6077V22.4324Z" fill="white"/>
<path d="M3.12905 6.25976C1.40085 6.25976 0 4.85853 0 3.12988C0 1.40141 1.40085 0 3.12905 0C4.85725 0 6.2581 1.40141 6.2581 3.12988C6.25447 4.857 4.85572 6.25632 3.12905 6.25976ZM3.12905 1.04342C1.97705 1.04342 1.04295 1.97757 1.04295 3.12988C1.04295 4.28238 1.97705 5.21653 3.12905 5.21653C4.28105 5.21653 5.21515 4.28238 5.21515 3.12988C5.21515 1.97757 4.28105 1.04342 3.12905 1.04342Z" fill="white"/>
</g>
<defs>
<clipPath id="clip0_276_1485">
<rect width="24" height="24" fill="white"/>
</clipPath>
</defs>
</svg>
