<svg width="60" height="60" viewBox="0 0 60 60" fill="none" xmlns="http://www.w3.org/2000/svg">
<path d="M5.33333 41C6.06971 41 6.66667 41.597 6.66667 42.3333V50.6667L6.66992 50.804C6.74141 52.213 7.90664 53.3333 9.33333 53.3333H17.6667C18.403 53.3333 19 53.9303 19 54.6667C19 55.403 18.403 56 17.6667 56H9.33333C6.47996 56 4.15015 53.7592 4.00716 50.9414L4 50.6667V42.3333C4 41.597 4.59695 41 5.33333 41Z" fill="#C669FF"/>
<path d="M54.6667 41C55.403 41 56 41.597 56 42.3333V50.6667C56 53.6122 53.6122 56 50.6667 56H42.3333C41.597 56 41 55.403 41 54.6667C41 53.9303 41.597 53.3333 42.3333 53.3333H50.6667C52.1394 53.3333 53.3333 52.1394 53.3333 50.6667V42.3333C53.3333 41.597 53.9303 41 54.6667 41Z" fill="#C669FF"/>
<path d="M28.6081 27.6738C28.8648 27.6738 29.0736 27.8826 29.0736 28.1393V29.5345H26.2826V28.1393C26.2826 27.8826 26.4913 27.6738 26.748 27.6738H28.6081Z" fill="#C669FF"/>
<path fill-rule="evenodd" clip-rule="evenodd" d="M30.002 10C30.7721 10 31.3977 10.625 31.3978 11.3952V17.4414H34.1849V14.1882C34.185 13.4181 34.81 12.7931 35.5801 12.793C36.3503 12.793 36.9758 13.418 36.9759 14.1882V17.4414H37.4453C40.2714 17.4414 42.5619 19.7319 42.5619 22.5579V23.0247H45.8151C46.5851 23.0249 47.2102 23.6499 47.2103 24.4199C47.2103 25.1901 46.5852 25.8156 45.8151 25.8158H42.5619V28.6055H48.6055C49.3756 28.6055 50.0006 29.2305 50.0007 30.0007C50.0007 30.7709 49.3757 31.3965 48.6055 31.3965H42.5619V34.1862H45.8151C46.5851 34.1864 47.2102 34.8113 47.2103 35.5814C47.2103 36.3515 46.5852 36.9771 45.8151 36.9772H42.5619V37.4414C42.5619 40.2675 40.2714 42.5579 37.4453 42.5579H36.9759V45.8138C36.9757 46.5839 36.3502 47.209 35.5801 47.209C34.81 47.2089 34.1851 46.5838 34.1849 45.8138V42.5579H31.3978V48.6042C31.3978 49.3744 30.7722 49.9994 30.002 49.9994C29.2318 49.9992 28.6068 49.3743 28.6068 48.6042V42.5579H25.8118V45.8138C25.8117 46.5839 25.1862 47.209 24.416 47.209C23.646 47.2089 23.021 46.5838 23.0208 45.8138V42.5579H22.5618C19.7358 42.5579 17.4453 40.2675 17.4453 37.4414V36.9772H14.1842C13.4141 36.9771 12.7891 36.3516 12.7891 35.5814C12.7892 34.8113 13.4142 34.1863 14.1842 34.1862H17.4453V31.3965H11.3952C10.625 31.3964 10 30.7708 10 30.0007C10.0001 29.2306 10.6251 28.6056 11.3952 28.6055H17.4453V25.8158H14.1842C13.4141 25.8156 12.7891 25.1901 12.7891 24.4199C12.7892 23.6498 13.4142 23.0248 14.1842 23.0247H17.4453V22.5579C17.4453 19.7319 19.7358 17.4414 22.5618 17.4414H23.0208V14.1882C23.0209 13.4181 23.6459 12.7931 24.416 12.793C25.1862 12.793 25.8118 13.418 25.8118 14.1882V17.4414H28.6068V11.3952C28.6069 10.6251 29.2319 10.0001 30.002 10ZM26.748 24.8835C24.949 24.8835 23.4922 26.3421 23.4922 28.1393V33.7207C23.4922 34.4909 24.1172 35.1159 24.8874 35.1159C25.6575 35.1158 26.2825 34.4909 26.2826 33.7207V32.3255H29.0736V33.7207C29.0736 34.4909 29.6985 35.1159 30.4688 35.1159C31.2389 35.1159 31.8639 34.4909 31.8639 33.7207V28.1393C31.8639 26.3421 30.4072 24.8835 28.6081 24.8835H26.748ZM35.1198 24.8835C34.3496 24.8835 33.7246 25.5085 33.7246 26.2786V33.7207C33.7246 34.4909 34.3496 35.1158 35.1198 35.1159C35.89 35.1159 36.5149 34.4909 36.515 33.7207V26.2786C36.5149 25.5084 35.89 24.8835 35.1198 24.8835Z" fill="#C669FF"/>
<path d="M17.6667 4C18.403 4 19 4.59695 19 5.33333C19 6.06971 18.403 6.66667 17.6667 6.66667H9.33333C7.86057 6.66667 6.66667 7.86057 6.66667 9.33333V17.6667C6.66667 18.403 6.06971 19 5.33333 19C4.59695 19 4 18.403 4 17.6667V9.33333C4 6.38781 6.38781 4 9.33333 4H17.6667Z" fill="#C669FF"/>
<path d="M50.9414 4.00716C53.7592 4.15015 56 6.47996 56 9.33333V17.6667C56 18.403 55.403 19 54.6667 19C53.9303 19 53.3333 18.403 53.3333 17.6667V9.33333C53.3333 7.90664 52.213 6.74141 50.804 6.66992L50.6667 6.66667H42.3333C41.597 6.66667 41 6.06971 41 5.33333C41 4.59695 41.597 4 42.3333 4H50.6667L50.9414 4.00716Z" fill="#C669FF"/>
</svg>
