<svg width="80" height="80" viewBox="0 0 80 80" fill="none" xmlns="http://www.w3.org/2000/svg">
<path fill-rule="evenodd" clip-rule="evenodd" d="M37.2607 24.4785C47.3458 24.4785 55.5212 32.6543 55.5215 42.7393C55.5215 52.8245 47.3459 61 37.2607 61C27.1757 60.9998 19 52.8243 19 42.7393C19.0003 32.6544 27.1759 24.4787 37.2607 24.4785ZM36.8525 33.8398C36.5379 33.84 36.2816 34.0956 36.2812 34.4102V36.0918C36.2811 36.148 36.2358 36.2059 36.1631 36.2158C35.6236 36.289 35.1082 36.4429 34.6191 36.6768C34.0193 36.9518 33.5288 37.3613 33.1533 37.8994C32.7809 38.4389 32.6027 39.1094 32.6025 39.8945C32.6025 40.6883 32.7741 41.3513 33.1387 41.8594C33.4893 42.3476 33.9516 42.7346 34.5195 43.0195C34.9108 43.2273 35.3318 43.3922 35.7812 43.5137L35.7871 43.5147C36.2242 43.621 36.6795 43.7211 37.1514 43.8154L37.1572 43.8164C37.6167 43.8968 38.065 44.0069 38.501 44.1445L38.5127 44.1475C38.812 44.2251 39.0668 44.3296 39.2793 44.457L39.2871 44.4609C39.4895 44.5723 39.6414 44.7165 39.748 44.8906L39.7529 44.8984C39.8613 45.0613 39.9257 45.2889 39.9258 45.5986C39.9258 45.9736 39.8173 46.2621 39.6152 46.4834L39.6123 46.4883C39.4094 46.7215 39.1366 46.8935 38.7852 47L38.7832 47.001C38.4326 47.1105 38.0448 47.166 37.6191 47.166C37.1795 47.166 36.7398 47.1154 36.2988 47.0137C35.885 46.9156 35.5229 46.7429 35.2109 46.4961C34.9607 46.2885 34.7635 46.0126 34.623 45.6631C34.5365 45.4483 34.3286 45.2824 34.0752 45.2822H32.8145C32.4668 45.2829 32.1798 45.6032 32.2705 45.9648C32.4192 46.555 32.6564 47.0676 32.9834 47.4971L32.9863 47.5C33.395 48.0201 33.8984 48.4249 34.4932 48.71L34.4971 48.7119C35.0023 48.9387 35.5384 49.0998 36.1025 49.1953C36.1686 49.2066 36.2107 49.2615 36.2109 49.3164V51.0664C36.2111 51.3811 36.4675 51.6356 36.7822 51.6357H37.876C38.1906 51.6355 38.4451 51.3811 38.4453 51.0664V49.3818C38.4457 49.3257 38.491 49.2692 38.5605 49.2598C39.1748 49.1787 39.7408 49.0135 40.2549 48.7617C40.8651 48.4628 41.3542 48.036 41.7178 47.4844L41.7188 47.4824C42.0886 46.9083 42.2665 46.1933 42.2666 45.3525C42.2665 44.7399 42.1544 44.2112 41.9199 43.7813C41.689 43.3467 41.3557 42.9946 40.9248 42.7285C40.5149 42.4566 40.0242 42.2436 39.458 42.0869C38.9214 41.9088 38.3432 41.7657 37.7275 41.6592C37.281 41.5731 36.8644 41.465 36.4785 41.335L36.1016 41.1973C35.9378 41.1317 35.7831 41.0534 35.6387 40.9639L35.498 40.8701C35.3393 40.7499 35.2085 40.5998 35.1074 40.418C35.0122 40.2462 34.96 40.0387 34.96 39.79C34.96 39.3766 35.0755 39.0904 35.2764 38.8984C35.5036 38.6815 35.7917 38.5217 36.1465 38.4248C36.5237 38.3251 36.9069 38.282 37.2949 38.293H37.3027C37.7159 38.293 38.0981 38.3493 38.4492 38.459L38.4551 38.46C38.7921 38.5548 39.0656 38.722 39.2812 38.958L39.2842 38.9619C39.4394 39.1246 39.553 39.3369 39.6172 39.6084C39.6774 39.8635 39.8994 40.0884 40.1973 40.0889H41.3555C41.6685 40.0886 41.9428 39.8273 41.9111 39.4912C41.8568 38.9179 41.6955 38.4107 41.4209 37.9775C41.0952 37.4642 40.662 37.0557 40.125 36.7559C39.6809 36.5081 39.1944 36.3418 38.6689 36.2578C38.5965 36.2461 38.5518 36.188 38.5518 36.1328V34.4102C38.5514 34.0956 38.296 33.8401 37.9814 33.8398H36.8525Z" fill="#FF609C"/>
<path d="M42.7363 19C52.8214 19 60.9968 27.1758 60.9971 37.2607C60.9971 41.1915 59.7545 44.8319 57.6416 47.8115C58.0447 46.1868 58.2607 44.4876 58.2607 42.7383C58.2605 31.1405 48.8585 21.7383 37.2607 21.7383C35.5087 21.7383 33.8067 21.9541 32.1797 22.3584C35.1602 20.2432 38.8033 19.0001 42.7363 19Z" fill="#FF609C"/>
<path d="M65.7251 57.311C66.0337 56.8534 66.655 56.7324 67.1128 57.0405C67.5708 57.3492 67.692 57.9712 67.3833 58.4292L66.8911 59.1401C61.9116 66.1243 54.3236 70.9881 45.7544 72.5034C45.6343 72.5247 45.5463 72.6286 45.5464 72.7505L45.5483 75.7251C45.5488 76.4949 44.7153 76.9769 44.0483 76.5923L37.9478 73.0737C36.8808 72.4584 36.8796 70.9186 37.9458 70.3022L44.0444 66.7778C44.7109 66.3928 45.5441 66.8733 45.5444 67.6431L45.5454 70.2075C45.5457 70.3633 45.6873 70.481 45.8403 70.4517C53.9781 68.8916 61.1424 64.11 65.7251 57.311Z" fill="#406CFF"/>
<path d="M6.92725 37.9477C7.54255 36.8808 9.08233 36.8796 9.69874 37.9458L13.2232 44.0444C13.6082 44.7108 13.1275 45.5439 12.3579 45.5444L9.79346 45.5464C9.6376 45.5464 9.52007 45.6873 9.54932 45.8403C11.0741 53.7942 15.6754 60.8183 22.231 65.4106L22.9107 65.8726L22.9927 65.9341C23.385 66.2549 23.4774 66.8265 23.1919 67.2583C22.8872 67.7189 22.2668 67.8462 21.8062 67.5415C14.3159 62.5861 9.07939 54.7054 7.49659 45.7544C7.47531 45.6345 7.3713 45.5464 7.24952 45.5464L4.27491 45.5483C3.50531 45.5485 3.02416 44.7151 3.4087 44.0483L6.92725 37.9477Z" fill="#406CFF"/>
<path d="M57.2466 13.0181C57.5392 12.591 58.1044 12.462 58.5493 12.7046L58.6372 12.7573L59.3374 13.2515C66.215 18.2323 71.0021 25.7573 72.5034 34.2446C72.5248 34.3645 72.6287 34.4527 72.7505 34.4526L75.7251 34.4507C76.4946 34.4507 76.9757 35.284 76.5913 35.9507L73.0728 42.0532C72.4574 43.12 70.9177 43.1205 70.3013 42.0542L66.7759 35.9556C66.3912 35.2893 66.8717 34.4563 67.6411 34.4556L70.2066 34.4536C70.3621 34.4533 70.4797 34.3125 70.4507 34.1597C68.9566 26.3672 64.5096 19.4666 58.1646 14.8716L57.5064 14.4087L57.4243 14.3452C57.038 14.0179 56.9543 13.4449 57.2466 13.0181Z" fill="#406CFF"/>
<path d="M34.4517 4.27489C34.4516 3.50533 35.2849 3.02417 35.9517 3.40868L42.0532 6.92724C43.12 7.54262 43.1205 9.0824 42.0542 9.69872L35.9556 13.2231C35.2892 13.6082 34.456 13.1276 34.4556 12.3579L34.4536 9.79247C34.4535 9.63658 34.3118 9.51898 34.1587 9.54833C26.0212 11.1086 18.8574 15.8911 14.2749 22.6899L14.2134 22.771C13.8893 23.1605 13.3166 23.2494 12.8872 22.9604C12.4293 22.6518 12.3082 22.0297 12.6167 21.5718L13.1089 20.8608C18.0883 13.8769 25.6758 9.01214 34.2446 7.49657C34.3647 7.47534 34.4536 7.37141 34.4536 7.2495L34.4517 4.27489Z" fill="#406CFF"/>
</svg>
