<svg fill="none" height="100" viewBox="0 0 100 100" width="100" xmlns="http://www.w3.org/2000/svg" xmlns:xlink="http://www.w3.org/1999/xlink"><clipPath id="a"><path d="m0 0h100v100h-100z"/></clipPath><g clip-path="url(#a)"><path d="m50 0c27.5717 0 50 22.4322 50 50 0 27.5717-22.4283 50-50 50-27.5678 0-50-22.4283-50-50 0-27.5678 22.4322-50 50-50z" fill="#406cff"/><path d="m50 0c27.5717 0 50 22.4322 50 50 0 27.5717-22.4283 50-50 50-27.5678 0-50-22.4283-50-50 0-27.5678 22.4322-50 50-50z" fill="#406cff"/><path d="m43.9608 68.3996c-1.0379 0-2.0295-.4144-2.7615-1.158l-14.2912-14.5236c-1.4989-1.526-1.4795-3.9737.0465-5.4764 1.5259-1.4949 3.9775-1.4795 5.4763.0465l11.4176 11.6033 23.6213-26.0146c1.4445-1.584 3.8924-1.6963 5.4685-.2633 1.584 1.4369 1.7002 3.8846.2633 5.4724l-26.3748 29.0471c-.7164.7901-1.7234 1.2471-2.7885 1.2703-.0271-.0037-.0503-.0037-.0775-.0037z" fill="#fff"/></g></svg>