<svg width="80" height="80" viewBox="0 0 80 80" fill="none" xmlns="http://www.w3.org/2000/svg">
<path fill-rule="evenodd" clip-rule="evenodd" d="M46.4141 18.5098C46.476 18.5192 46.5577 18.5346 46.6582 18.5566C46.86 18.6009 47.1162 18.6673 47.4121 18.752C48.0031 18.921 48.7239 19.1543 49.4385 19.4062C50.1536 19.6584 50.8511 19.9245 51.3965 20.1582C51.6698 20.2753 51.8948 20.3802 52.0605 20.4668C52.1862 20.5325 52.2439 20.5701 52.2588 20.5791C52.2922 20.6133 52.289 20.6138 52.2959 20.6406C52.3198 20.733 52.3424 20.9217 52.3457 21.3682C52.3489 21.8008 52.3352 22.3911 52.3203 23.2549C52.3056 24.1112 52.29 25.2151 52.29 26.6494C52.29 29.1039 50.8314 30.817 49.2363 31.9658C48.4443 32.5362 47.6464 32.9457 47.0439 33.2119C46.7479 33.3427 46.5014 33.4371 46.3311 33.499C46.1607 33.4372 45.9143 33.3427 45.6182 33.2119C45.0158 32.9457 44.2179 32.5362 43.4258 31.9658C41.8307 30.817 40.3721 29.104 40.3721 26.6494C40.3721 25.2151 40.3565 24.1112 40.3418 23.2549C40.327 22.391 40.3132 21.8008 40.3164 21.3682C40.3197 20.9216 40.3423 20.7338 40.3662 20.6416C40.3732 20.6147 40.3694 20.6138 40.4023 20.5801C40.3928 20.5903 40.4392 20.5517 40.6016 20.4668C40.7673 20.3802 40.9931 20.2754 41.2666 20.1582C41.8118 19.9245 42.5088 19.6583 43.2236 19.4062C43.9381 19.1544 44.6591 18.921 45.25 18.752C45.5459 18.6673 45.8022 18.6009 46.0039 18.5566C46.1045 18.5346 46.1862 18.5191 46.248 18.5098C46.2991 18.5021 46.3251 18.5004 46.3311 18.5C46.3375 18.5004 46.3636 18.5021 46.4141 18.5098ZM49.8018 23.3428C49.4579 22.9997 48.9002 23.0004 48.5566 23.3438L45.7041 26.1963L44.6406 25.1309L44.5742 25.0703C44.2288 24.7884 43.718 24.8084 43.3955 25.1299C43.073 25.4519 43.0525 25.9626 43.334 26.3086L43.3945 26.375L45.0811 28.0645C45.2461 28.2296 45.4706 28.3231 45.7041 28.3232C45.9376 28.3232 46.1621 28.2305 46.3272 28.0654L49.8018 24.5879C50.1451 24.244 50.1453 23.6864 49.8018 23.3428Z" fill="#406CFF"/>
<path fill-rule="evenodd" clip-rule="evenodd" d="M46.3301 9.85156C55.2622 9.85181 62.5029 17.0932 62.5029 26.0254C62.5027 34.9573 55.262 42.198 46.3301 42.1982C37.3979 42.1982 30.1565 34.9575 30.1562 26.0254C30.1562 17.0931 37.3978 9.85156 46.3301 9.85156ZM46.3311 16.7383C46.1154 16.7383 45.8555 16.7866 45.626 16.8369C45.3758 16.8918 45.0821 16.9684 44.7666 17.0586C44.1335 17.2396 43.3776 17.4846 42.6387 17.7451C41.9002 18.0055 41.164 18.2864 40.5723 18.54C40.2776 18.6663 40.0072 18.7908 39.7861 18.9062C39.5978 19.0047 39.345 19.1465 39.1699 19.3213C38.9426 19.5486 38.7623 19.8132 38.6621 20.1992C38.578 20.5235 38.559 20.9074 38.5557 21.3545C38.5522 21.8158 38.5666 22.4424 38.5811 23.2852C38.5957 24.1355 38.6113 25.2287 38.6113 26.6494C38.6113 29.9041 40.5718 32.0814 42.3965 33.3955C43.314 34.0562 44.2264 34.5218 44.9063 34.8223C45.2473 34.973 45.5339 35.0835 45.7373 35.1572C45.8387 35.194 45.9201 35.2222 45.9775 35.2412C46.006 35.2506 46.0295 35.2575 46.0459 35.2627L46.0723 35.2715H46.0742L46.0762 35.2725C46.2422 35.3226 46.4199 35.3227 46.5859 35.2725L46.3311 34.4297C46.5781 35.2455 46.5879 35.2715 46.5879 35.2715H46.5898C46.5898 35.2715 46.5944 35.2702 46.5967 35.2695C46.6016 35.268 46.6084 35.2652 46.6162 35.2627C46.6326 35.2575 46.6561 35.2506 46.6846 35.2412C46.742 35.2222 46.8234 35.194 46.9248 35.1572C47.1282 35.0835 47.4149 34.9729 47.7559 34.8223C48.4358 34.5218 49.3482 34.0562 50.2656 33.3955C52.0902 32.0814 54.0518 29.9039 54.0518 26.6494C54.0518 25.2286 54.0664 24.1355 54.0811 23.2852C54.0955 22.4424 54.1098 21.8157 54.1064 21.3545C54.1031 20.9075 54.0848 20.5242 54.001 20.2002C53.9011 19.8142 53.7203 19.5489 53.4932 19.3213L53.3496 19.1973C53.1959 19.0789 53.0178 18.9803 52.876 18.9062C52.6549 18.7908 52.3846 18.6663 52.0898 18.54C51.498 18.2864 50.762 18.0055 50.0234 17.7451C49.2846 17.4847 48.5295 17.2396 47.8965 17.0586C47.5808 16.9683 47.2865 16.8919 47.0361 16.8369C46.8066 16.7865 46.5468 16.7383 46.3311 16.7383Z" fill="#406CFF"/>
<path d="M51.1777 5C60.1098 5.00025 67.3506 12.2417 67.3506 21.1738C67.3505 24.654 66.2511 27.8772 64.3809 30.5156C64.7374 29.0775 64.9287 27.5738 64.9287 26.0254C64.9287 15.7534 56.602 7.42603 46.3301 7.42578C44.7765 7.42578 43.2677 7.61767 41.8252 7.97656C44.4655 6.10207 47.6931 5 51.1777 5Z" fill="#406CFF"/>
<path d="M10.4403 58.9301C11.0577 57.8596 12.4445 57.486 13.5165 58.1049C18.8662 61.1936 24.2231 64.2714 29.5643 67.3715C30.7232 68.0405 30.9387 69.3396 30.367 70.4858L28.5223 73.6811C27.9063 74.7487 26.5157 75.1207 25.4481 74.5063L9.39731 65.2387C8.32829 64.6199 7.95344 63.235 8.57212 62.1645L10.4403 58.9301Z" fill="#FF609C"/>
<path d="M62.6766 43.5649C65.525 42.1415 69.2439 41.1454 71.4334 44.1635C71.9679 44.9009 71.7522 45.9316 70.9608 46.3891L53.6346 56.9692C50.376 58.8499 47.0741 59.7348 43.3124 59.7348H38.1786C34.9842 59.7348 32.2224 61.3291 30.6258 64.0961L29.6532 65.7787L14.8514 57.2328L18.9217 50.184C20.634 47.2197 23.0199 44.8487 26.4745 44.1655C29.2415 43.6181 32.1344 44.2426 34.7313 45.103C34.8055 45.1272 34.8797 45.1381 34.954 45.1381H47.6991C49.5055 45.1381 50.9889 46.6247 50.9891 48.4311C50.9891 50.2391 49.5071 51.7221 47.6991 51.7221H38.0995C37.7053 51.7224 37.3858 52.0418 37.3856 52.436C37.3856 52.8303 37.7052 53.1505 38.0995 53.1508H47.6991C50.1231 53.1508 52.1672 51.2901 52.3973 48.8803L62.6766 43.5649Z" fill="#FF609C"/>
</svg>
