<svg width="96" height="96" viewBox="0 0 96 96" fill="none" xmlns="http://www.w3.org/2000/svg">
<path d="M54.196 49.8124C54.6614 46.5617 54.8924 43.2827 54.8873 40C54.8924 36.7173 54.6614 33.4383 54.196 30.1876H67.2674C69.5775 36.532 69.5775 43.468 67.2674 49.8124H54.196ZM39.5 69C36.6196 69 33.6792 66.0932 31.4244 61.0261C30.3944 58.7118 29.5556 56.0735 28.9276 53.2097H50.0724C49.4444 56.0723 48.6056 58.7107 47.5756 61.0261C45.3208 66.0932 42.3804 69 39.5 69ZM28.2962 49.8124C27.3253 43.3056 27.3253 36.6944 28.2962 30.1876H50.7038C51.1948 33.436 51.4382 36.7159 51.4319 40C51.4382 43.2841 51.1948 46.564 50.7038 49.8124H28.2962ZM11.7326 49.8124C9.42248 43.468 9.42248 36.532 11.7326 30.1876H24.804C23.8807 36.6977 23.8807 43.3023 24.804 49.8124H11.7326ZM39.5 11C42.3804 11 45.3208 13.9057 47.5756 18.9739C48.6056 21.2882 49.4444 23.9265 50.0724 26.7903H28.9276C29.5556 23.9277 30.3944 21.2893 31.4244 18.9739C33.6792 13.9057 36.6196 11 39.5 11ZM65.7696 26.7891H53.6003C52.909 23.4247 51.9481 20.3196 50.7429 17.6134C49.767 15.418 48.661 13.559 47.45 12.0614C51.3766 13.1306 55.0335 14.9923 58.1877 17.5281C61.3418 20.0638 63.924 23.2178 65.7696 26.7891ZM31.55 12.0603C30.3425 13.559 29.2376 15.4168 28.2605 17.6111C27.0553 20.3196 26.0956 23.4247 25.4031 26.7869H13.2304C15.0764 23.216 17.6588 20.0623 20.8129 17.5268C23.967 14.9913 27.6237 13.1296 31.55 12.0603ZM13.2304 53.2109H25.3997C26.091 56.5753 27.0519 59.6804 28.2571 62.3866C29.2341 64.5809 30.339 66.4387 31.5465 67.9374C27.6207 66.868 23.9645 65.0062 20.811 62.4707C17.6575 59.9352 15.0757 56.7816 13.2304 53.2109ZM47.45 67.9374C48.6575 66.4387 49.7636 64.5809 50.7395 62.3866C51.9447 59.6781 52.9044 56.573 53.5969 53.2109H65.7696C63.924 56.7823 61.3418 59.9365 58.1877 62.4724C55.0336 65.0083 51.3766 66.8703 47.45 67.9397V67.9374Z" fill="white"/>
<path d="M39.9287 64.1637L41.9001 65.3557C42.221 65.3557 42.4044 65.2182 42.4044 64.9431C42.3585 64.668 42.3127 64.4388 42.1751 64.2096L37.8656 56.1406L28.3295 56.3699C28.0086 56.324 27.6877 56.5991 27.6877 56.92V57.0576C27.6877 57.1492 27.8252 57.2868 28.1003 57.4702L30.0259 58.6163L27.8711 61.8714C27.3668 62.5591 27.0917 63.3385 27 64.1637C27.0458 64.8056 27.2292 65.4474 27.596 65.9976L34.1062 77.3216C33.9686 76.6339 33.8769 75.9921 33.8769 75.3044C33.8769 74.0665 34.2896 72.9204 34.9773 71.9118L39.9287 64.1637Z" fill="#202028"/>
<path d="M42.4041 57.559L47.7681 49.2608C45.7508 44.722 43.6419 42.4297 41.3954 42.4297C40.0201 42.4297 39.149 42.7965 38.6447 43.5758L33.6016 51.6448L42.4041 57.559Z" fill="#202028"/>
<path d="M38.0487 80.0171H48.3641V69.2891H38.4155C37.5902 70.4352 36.8108 71.6272 36.1231 72.8192C35.6188 73.7362 35.3896 74.7906 35.3438 75.8451C35.3438 78.5959 36.2148 80.0171 38.0487 80.0171Z" fill="#202028"/>
<path d="M59.3272 55.5853L63.9577 47.8831C64.0953 47.608 64.187 47.333 64.187 47.0579C64.187 46.6911 64.0494 46.5536 63.8202 46.5536C63.6826 46.6453 63.4993 46.6911 63.3617 46.737L61.2528 47.608L59.3272 43.8486C58.502 42.1523 56.8057 41.2812 54.2383 41.2812H42.2266C43.281 41.5563 44.2896 41.9689 45.2066 42.6108C46.4444 43.5736 47.6823 45.4074 48.966 48.0665L51.35 53.0179L49.6078 53.8431C49.4244 53.9348 49.3327 54.1182 49.3327 54.3016C49.3327 54.5767 49.5161 54.7601 49.8829 54.8059L59.3272 55.5853Z" fill="#202028"/>
<path d="M63.9153 78.4149L70.6089 66.2656C69.7378 67.3201 68.6375 68.0995 67.3996 68.5579C66.1159 68.9247 64.7405 69.0622 63.411 69.0164H55.938V67.4576C55.938 66.8616 55.8005 66.5407 55.4796 66.5407C55.2962 66.5407 55.1128 66.6324 55.0211 66.7699L50.3906 74.9306L55.2503 82.4494C55.6171 82.9995 55.938 83.2288 56.2131 83.0912C56.4882 82.9995 56.6257 82.862 56.6257 82.6786V80.1112H60.7519C62.0814 80.2488 63.3193 79.5611 63.9153 78.4149Z" fill="#202028"/>
<path d="M61.0213 67.4576H65.4684C66.7062 67.4118 67.8982 66.9075 68.7693 66.0364C70.0072 65.0736 70.6032 64.0192 70.6032 62.9647C70.6032 62.4145 70.4198 61.9102 70.0989 61.4976L64.8265 53.3828L55.7031 58.701L61.0213 67.4576Z" fill="#202028"/>
</svg>
