<svg width="96" height="96" viewBox="0 0 96 96" fill="none" xmlns="http://www.w3.org/2000/svg">
<path d="M33.6396 9.00391C35.9673 9.06859 38.1626 9.92451 39.9189 11.4355V68.002C38.1627 69.5131 35.9678 70.3689 33.6396 70.4336C33.5337 70.4364 33.4267 70.4385 33.3193 70.4385C27.1911 70.4385 22.1772 65.577 21.9297 59.5088C15.8611 59.2608 11.0002 54.2472 11 48.1191C11 44.8886 12.3703 41.8524 14.6943 39.7188C12.3705 37.5851 11 34.5497 11 31.3193C11 25.1912 15.8606 20.1768 21.9287 19.9287V19.9365C24.7514 19.8212 27.6089 20.744 29.8701 22.709C30.2942 23.0773 30.7867 23.3589 31.3232 23.5244C32.9872 24.0376 34.2578 21.9849 33.0361 20.7441C33.0263 20.7338 33.0162 20.7227 33.0059 20.7129C30.2403 17.9474 26.5797 16.397 22.6719 16.3281C24.3143 12.0472 28.4675 9 33.3193 9C33.4266 9 33.5333 9.0011 33.6396 9.00391Z" fill="white"/>
<path d="M50.123 9C56.2512 9 61.2656 13.8606 61.5137 19.9287C67.5818 20.1768 72.4424 25.1912 72.4424 31.3193C72.4424 34.5498 71.0719 37.5851 68.748 39.7188C71.072 41.8524 72.4424 44.8886 72.4424 48.1191C72.4422 54.2471 67.5817 59.2607 61.5137 59.5088V59.502C58.6915 59.6173 55.8339 58.6944 53.5723 56.7295C53.1481 56.3611 52.6563 56.0785 52.1191 55.9131C50.4552 55.3999 49.1844 57.4536 50.4062 58.6943C50.4166 58.7046 50.4262 58.7153 50.4365 58.7256C53.2021 61.4907 56.8632 63.0405 60.7715 63.1094C59.1286 67.3903 54.9749 70.4385 50.123 70.4385C50.0158 70.4385 49.909 70.4364 49.8027 70.4336C47.4751 70.3689 45.2802 69.5135 43.5234 68.0029V11.4355C45.2802 9.92447 47.4751 9.06859 49.8037 9.00391C49.9091 9.0011 50.0158 9 50.123 9Z" fill="white"/>
<path d="M56.1144 58.8165C56.191 58.5966 56.5016 58.5966 56.5782 58.8165L57.7205 62.1214C57.7756 62.281 57.6569 62.4477 57.488 62.4477H55.2046C55.0357 62.4477 54.917 62.281 54.972 62.1214L56.1144 58.8165Z" fill="#202028"/>
<path fill-rule="evenodd" clip-rule="evenodd" d="M59.3229 36.3594C60.2852 36.3597 61.0663 37.1407 61.0666 38.1031V45.6611H64.5513V41.5943C64.5517 40.6318 65.3326 39.8507 66.295 39.8506C67.2575 39.8507 68.0397 40.6318 68.04 41.5943V45.6611H68.6259C72.1585 45.6611 75.0224 48.525 75.0224 52.0576V52.641H79.088C80.0505 52.6412 80.8328 53.4221 80.833 54.3847C80.8329 55.3473 80.0506 56.1294 79.088 56.1296H75.0224V59.617H82.5766C83.5392 59.6171 84.3202 60.398 84.3203 61.3607C84.3203 62.3234 83.5393 63.1055 82.5766 63.1056H75.0224V66.593H79.088C80.0505 66.5932 80.8328 67.3741 80.833 68.3367C80.8329 69.2993 80.0506 70.0814 79.088 70.0816H75.0224V70.6611C75.0224 74.1938 72.1585 77.0576 68.6259 77.0576H68.04V81.1271C68.0398 82.0897 67.2576 82.8707 66.295 82.8707C65.3325 82.8706 64.5515 82.0896 64.5513 81.1271V77.0576H61.0666V84.6157C61.0664 85.5782 60.2853 86.3591 59.3229 86.3594C58.3603 86.3592 57.5781 85.5783 57.5779 84.6157V77.0576H54.0854V81.1271C54.0852 82.0896 53.3029 82.8705 52.3405 82.8707C51.3779 82.8706 50.5957 82.0896 50.5955 81.1271V77.0576H50.0224C46.4899 77.0576 43.6272 74.1938 43.6272 70.6611V70.0816H39.5501C38.5876 70.0812 37.8064 69.2992 37.8064 68.3367C37.8065 67.3742 38.5877 66.5934 39.5501 66.593H43.6272V63.1056H36.064C35.1015 63.1053 34.3203 62.3233 34.3203 61.3607C34.3204 60.3981 35.1015 59.6173 36.064 59.617H43.6272V56.1296H39.5501C38.5876 56.1292 37.8064 55.3472 37.8064 54.3847C37.8065 53.4222 38.5877 52.6414 39.5501 52.641H43.6272V52.0576C43.6272 48.525 46.4899 45.6611 50.0224 45.6611H50.5955V41.5943C50.5958 40.6318 51.378 39.8507 52.3405 39.8506C53.3028 39.8508 54.0851 40.6319 54.0854 41.5943V45.6611H57.5779V38.1031C57.5782 37.1406 58.3604 36.3595 59.3229 36.3594ZM55.8085 54.7804C55.3974 54.7805 55.0291 55.0362 54.8859 55.4216L51.1275 65.5419C50.8337 66.3332 51.4192 67.1751 52.2634 67.1751C52.7699 67.175 53.2232 66.8597 53.3993 66.3848L53.9852 64.803C54.021 64.7069 54.1127 64.6426 54.2152 64.6424H58.4607C58.5629 64.6425 58.6545 64.7062 58.6907 64.8018L59.2663 66.3257C59.4592 66.8364 59.9477 67.1748 60.4935 67.1751C61.4086 67.1751 62.0437 66.2619 61.7245 65.4044L58.002 55.4203C57.8585 55.0355 57.4901 54.7804 57.0794 54.7804H55.8085ZM65.4817 54.7804C64.7533 54.7807 64.1633 55.3717 64.1633 56.1001V65.8554C64.1633 66.5838 64.7533 67.1748 65.4817 67.1751C66.2102 67.1751 66.8013 66.584 66.8013 65.8554V56.1001C66.8013 55.3715 66.2102 54.7804 65.4817 54.7804Z" fill="#202028"/>
</svg>
