<svg width="60" height="60" viewBox="0 0 60 60" fill="none" xmlns="http://www.w3.org/2000/svg">
<path fill-rule="evenodd" clip-rule="evenodd" d="M29.9967 26.8405C30.2551 26.8405 30.5109 26.8916 30.7493 26.9909L40.5404 31.071C40.8972 31.2196 41.2022 31.4707 41.4167 31.7923C41.631 32.1139 41.7454 32.4917 41.7454 32.8783V43.3216C41.7454 54.0644 30.0559 56.0402 29.9967 56.0501C29.9967 56.0501 18.2474 54.0916 18.2474 43.3216V32.8783C18.2474 32.4918 18.3618 32.1139 18.5762 31.7923C18.7906 31.4707 19.0956 31.2197 19.4525 31.071L29.2435 26.9909C29.4821 26.8915 29.7383 26.8405 29.9967 26.8405ZM29.9967 35.4766C29.3344 35.4766 28.691 35.6999 28.1719 36.1113C27.6528 36.5227 27.288 37.098 27.1367 37.7428C26.9855 38.3876 27.0566 39.0648 27.3385 39.6641C27.6205 40.2634 28.0969 40.7497 28.6901 41.0443L28.0384 46.2591H31.9544L31.3027 41.0443C31.8959 40.7497 32.3723 40.2634 32.6543 39.6641C32.9362 39.0648 33.0074 38.3877 32.8561 37.7428C32.7048 37.098 32.3401 36.5227 31.821 36.1113C31.3019 35.7 30.659 35.4766 29.9967 35.4766Z" fill="#C669FF"/>
<path d="M21.6081 3.36719C25.8607 3.36723 29.6496 5.53745 31.8919 8.79297C32.897 8.48297 33.9795 8.32814 35.0619 8.32812C40.7063 8.32812 45.2685 12.5137 46.1191 17.862C46.583 17.7845 47.1242 17.707 47.6654 17.707C53.0006 17.707 57.3307 21.9706 57.3307 27.319C57.3307 32.6675 53.0006 37.0085 47.6654 37.0085H43.7454V32.8783C43.7454 32.0968 43.5142 31.3325 43.0807 30.6823C42.6473 30.0323 42.0311 29.5251 41.3099 29.2246L31.5189 25.1452C31.0968 24.9693 30.6478 24.8676 30.1921 24.8451L29.9967 24.8405C29.4741 24.8405 28.9564 24.9442 28.474 25.1452L18.6829 29.2246C18.0068 29.5064 17.4229 29.9699 16.9954 30.5625L16.9121 30.6829C16.4788 31.3331 16.2474 32.0969 16.2474 32.8783V37.0085H12.3294C6.99422 37.0085 2.66408 32.6675 2.66406 27.319C2.66406 23.0557 5.44771 19.4128 9.3138 18.1725C9.15916 17.4749 9.08203 16.6996 9.08203 15.9245C9.08203 8.94823 14.7264 3.36719 21.6081 3.36719Z" fill="#C669FF"/>
</svg>
