<svg width="60" height="60" viewBox="0 0 60 60" fill="none" xmlns="http://www.w3.org/2000/svg">
<path fill-rule="evenodd" clip-rule="evenodd" d="M27.9456 18.3589C35.5093 18.3589 41.6409 24.4907 41.6411 32.0544C41.6411 39.6183 35.5095 45.75 27.9456 45.75C20.3818 45.7498 14.25 39.6182 14.25 32.0544C14.2502 24.4908 20.3819 18.3591 27.9456 18.3589ZM27.6394 25.3799C27.4034 25.38 27.2112 25.5717 27.2109 25.8076V27.0688C27.2108 27.111 27.1769 27.1544 27.1223 27.1619C26.7177 27.2168 26.3312 27.3322 25.9644 27.5076C25.5145 27.7138 25.1466 28.021 24.865 28.4246C24.5856 28.8292 24.452 29.332 24.4519 29.9209C24.4519 30.5162 24.5806 31.0135 24.854 31.3945C25.117 31.7607 25.4637 32.0509 25.8896 32.2647C26.1831 32.4205 26.4989 32.5441 26.8359 32.6353L26.8403 32.636C27.1681 32.7157 27.5097 32.7908 27.8635 32.8616L27.8679 32.8623C28.2125 32.9226 28.5488 33.0052 28.8757 33.1084L28.8845 33.1106C29.109 33.1688 29.3001 33.2472 29.4595 33.3428L29.4653 33.3457C29.6171 33.4292 29.7311 33.5374 29.811 33.668L29.8147 33.6738C29.896 33.7959 29.9443 33.9667 29.9443 34.199C29.9443 34.4802 29.863 34.6966 29.7114 34.8626L29.7092 34.8662C29.5571 35.0411 29.3525 35.1701 29.0889 35.25L29.0874 35.2507C28.8244 35.3329 28.5336 35.3745 28.2144 35.3745C27.8846 35.3745 27.5549 35.3365 27.2241 35.2603C26.9137 35.1867 26.6422 35.0571 26.4082 34.8721C26.2205 34.7164 26.0726 34.5095 25.9673 34.2473C25.9023 34.0862 25.7465 33.9618 25.5564 33.9617H24.6108C24.3501 33.9622 24.1349 34.2024 24.2029 34.4736C24.3144 34.9162 24.4923 35.3007 24.7375 35.6228L24.7397 35.625C25.0463 36.0151 25.4238 36.3187 25.8699 36.5325L25.8728 36.5339C26.2517 36.704 26.6538 36.8248 27.0769 36.8965C27.1264 36.905 27.1581 36.9461 27.1582 36.9873V38.2998C27.1584 38.5358 27.3506 38.7267 27.5867 38.7268H28.407C28.643 38.7266 28.8338 38.5358 28.834 38.2998V37.0364C28.8342 36.9942 28.8683 36.9519 28.9204 36.9448C29.3811 36.884 29.8056 36.7601 30.1912 36.5713C30.6489 36.3471 31.0157 36.027 31.2883 35.6133L31.2891 35.6118C31.5664 35.1813 31.6999 34.6449 31.7 34.0144C31.6999 33.555 31.6158 33.1584 31.4399 32.8359C31.2667 32.51 31.0168 32.246 30.6936 32.0464C30.3862 31.8425 30.0181 31.6827 29.5935 31.5652C29.191 31.4316 28.7574 31.3243 28.2957 31.2444C27.9607 31.1798 27.6483 31.0987 27.3589 31.0012L27.0762 30.898C26.9533 30.8488 26.8374 30.7901 26.729 30.7229L26.6235 30.6526C26.5045 30.5624 26.4064 30.4498 26.3306 30.3135C26.2592 30.1846 26.22 30.029 26.22 29.8425C26.22 29.5324 26.3066 29.3178 26.4573 29.1738C26.6277 29.0112 26.8438 28.8913 27.1099 28.8186C27.3928 28.7438 27.6802 28.7115 27.9712 28.7197H27.9771C28.2869 28.7198 28.5736 28.762 28.8369 28.8442L28.8413 28.845C29.0941 28.9161 29.2992 29.0415 29.4609 29.2185L29.4631 29.2214C29.5796 29.3434 29.6648 29.5027 29.7129 29.7063C29.7581 29.8976 29.9246 30.0663 30.1479 30.0667H31.0166C31.2514 30.0665 31.4571 29.8705 31.4333 29.6184C31.3926 29.1884 31.2716 28.8081 31.0657 28.4832C30.8214 28.0981 30.4965 27.7917 30.0938 27.5669C29.7607 27.3811 29.3958 27.2564 29.0017 27.1934C28.9474 27.1846 28.9138 27.141 28.9138 27.0996V25.8076C28.9135 25.5717 28.722 25.38 28.4861 25.3799H27.6394Z" fill="#C669FF"/>
<path d="M32.0522 14.25C39.616 14.25 45.7476 20.3818 45.7478 27.9456C45.7478 30.8936 44.8159 33.6239 43.2312 35.8586C43.5335 34.6401 43.6956 33.3657 43.6956 32.0537C43.6953 23.3554 36.6439 16.3037 27.9456 16.3037C26.6315 16.3037 25.355 16.4656 24.1348 16.7688C26.3702 15.1824 29.1025 14.2501 32.0522 14.25Z" fill="#C669FF"/>
<path d="M49.2919 42.9813C49.5233 42.6381 49.9893 42.5474 50.3326 42.7784C50.6761 43.0099 50.767 43.4765 50.5355 43.8199L50.1664 44.3531C46.4317 49.5913 40.7408 53.2391 34.3138 54.3756C34.2238 54.3915 34.1578 54.4695 34.1578 54.5609L34.1593 56.7919C34.1597 57.3693 33.5345 57.7307 33.0343 57.4423L28.4589 54.8033C27.6587 54.3419 27.6577 53.187 28.4574 52.7247L33.0314 50.0814C33.5312 49.7926 34.1561 50.153 34.1564 50.7303L34.1571 52.6537C34.1573 52.7705 34.2635 52.8588 34.3783 52.8368C40.4817 51.6668 45.8549 48.0806 49.2919 42.9813Z" fill="#C669FF"/>
<path d="M5.19349 28.4589C5.65496 27.6587 6.80979 27.6577 7.2721 28.4574L9.91541 33.0314C10.2042 33.5312 9.84367 34.1559 9.26648 34.1564L7.34314 34.1578C7.22625 34.1579 7.1381 34.2635 7.16004 34.3783C8.30359 40.3437 11.7546 45.6118 16.6713 49.056L17.181 49.4025L17.2426 49.4486C17.5368 49.6893 17.6061 50.1179 17.392 50.4418C17.1634 50.7872 16.6981 50.8827 16.3527 50.6542C10.735 46.9376 6.80759 41.0271 5.62049 34.3138C5.60453 34.2239 5.52652 34.1579 5.43519 34.1578L3.20423 34.1593C2.62703 34.1594 2.26617 33.5344 2.55457 33.0343L5.19349 28.4589Z" fill="#C669FF"/>
<path d="M42.933 9.76159C43.1524 9.44132 43.5764 9.34455 43.91 9.52648L43.976 9.56603L44.5011 9.93664C49.6593 13.6722 53.2496 19.316 54.3756 25.6815C54.3917 25.7714 54.4696 25.8376 54.5609 25.8375L56.7919 25.8361C57.369 25.836 57.7298 26.461 57.4415 26.9611L54.8026 31.538C54.3411 32.338 53.1863 32.3384 52.724 31.5387L50.08 26.9647C49.7915 26.465 50.1518 25.8402 50.7289 25.8397L52.653 25.8382C52.7696 25.838 52.8578 25.7324 52.8361 25.6178C51.7155 19.7734 48.3802 14.598 43.6215 11.1517L43.1278 10.8046L43.0663 10.757C42.7766 10.5115 42.7138 10.0817 42.933 9.76159Z" fill="#C669FF"/>
<path d="M25.8368 3.20422C25.8367 2.62704 26.4618 2.26618 26.9618 2.55456L31.538 5.19347C32.3381 5.65502 32.3384 6.80985 31.5387 7.27209L26.9647 9.9154C26.4649 10.2042 25.8401 9.84375 25.8397 9.26647L25.8383 7.3424C25.8382 7.22548 25.7319 7.13728 25.6171 7.15929C19.514 8.3295 14.1411 11.9164 10.7042 17.0155L10.6581 17.0763C10.415 17.3684 9.98549 17.4351 9.66346 17.2184C9.32002 16.9869 9.22919 16.5203 9.46058 16.1769L9.82972 15.6437C13.5642 10.4057 19.2549 6.75715 25.6815 5.62048C25.7716 5.60455 25.8383 5.5266 25.8383 5.43517L25.8368 3.20422Z" fill="#C669FF"/>
</svg>
