<svg width="80" height="80" viewBox="0 0 80 80" fill="none" xmlns="http://www.w3.org/2000/svg">
<path d="M33.4118 10.1788C37.7594 8.58464 42.5362 8.60796 46.8678 10.2452C51.1994 11.8825 54.7974 15.0244 57.0036 19.0958L53.1247 20.7579L48.4264 18.9962L47.3375 17.9064C46.7083 17.3189 45.8916 16.9723 45.0319 16.9279C44.1722 16.8834 43.3239 17.1438 42.6373 17.6632L40.7018 19.2111C40.3708 19.4764 40.117 19.8256 39.9655 20.2218C39.814 20.618 39.77 21.0475 39.8395 21.4659L40.361 24.5909C40.3828 24.7214 40.4308 24.8461 40.5026 24.9572C40.5745 25.0684 40.6688 25.164 40.7789 25.2374L44.2018 27.5187C44.4782 27.7032 44.7904 27.8282 45.1178 27.8849C45.4452 27.9416 45.7809 27.9295 46.1032 27.8488L47.1334 27.5909C47.2245 27.5686 47.3207 27.5748 47.4079 27.6095C47.495 27.6442 47.5691 27.7054 47.6198 27.7843L50.2077 31.8575V37.4952C50.2082 38.2002 50.4559 38.8831 50.9069 39.4249L53.362 42.3712C50.8397 44.7977 47.7041 46.491 44.2916 47.2687C40.8792 48.0463 37.3193 47.8793 33.9948 46.7853L35.525 42.84L38.528 41.0382C38.6713 40.9522 38.7903 40.8311 38.8727 40.6857C38.9551 40.5401 38.9987 40.3754 38.9987 40.2081V38.5988C38.9985 38.5049 39.0277 38.4131 39.0827 38.337C39.1376 38.261 39.2153 38.2043 39.3043 38.1749L40.3082 37.84C40.5275 37.7669 40.7129 37.6173 40.8317 37.4191L42.5475 34.5607C42.7756 34.1805 42.9096 33.7512 42.9372 33.3087C42.9646 32.8662 42.885 32.4232 42.7057 32.0177C42.5263 31.6121 42.2519 31.2551 41.9059 30.9777C41.56 30.7003 41.1522 30.5099 40.7174 30.423L39.3913 30.1574L38.6276 28.2482C38.452 27.8048 38.1465 27.4247 37.7516 27.1574C37.3567 26.89 36.8906 26.7476 36.4137 26.7491H32.8659C32.7148 26.2373 32.3929 25.7926 31.9538 25.4894C31.5146 25.1862 30.9849 25.043 30.4528 25.0831V24.213L35.3805 19.9005C35.5402 19.7607 35.6498 19.5724 35.692 19.3644L36.195 16.8868L36.8092 16.8761C37.2978 16.8671 37.77 16.6981 38.153 16.3947C38.536 16.0912 38.8089 15.67 38.9293 15.1964C39.0497 14.723 39.0113 14.223 38.82 13.7736C38.6285 13.324 38.2937 12.9494 37.8688 12.7081L33.4118 10.1788Z" fill="#406CFF"/>
<path d="M30.7379 27.0324C30.8067 27.0565 30.8689 27.0973 30.9176 27.1515C30.9662 27.2056 31.0004 27.2712 31.0172 27.3419L31.1696 27.9542C31.2219 28.1638 31.3432 28.3495 31.5133 28.4825C31.6836 28.6156 31.8939 28.6886 32.11 28.6886H36.4108C36.4999 28.6885 36.587 28.7148 36.6608 28.7648C36.7346 28.8148 36.7919 28.886 36.8248 28.9689L37.7838 31.3663C37.8437 31.5159 37.9402 31.6481 38.0641 31.7511C38.188 31.8541 38.3358 31.9247 38.4938 31.9562L40.3346 32.3243C40.4648 32.3505 40.5874 32.4073 40.6911 32.4904C40.7946 32.5735 40.8766 32.6805 40.9303 32.8019C40.9841 32.9234 41.0078 33.056 40.9997 33.1886C40.9915 33.3211 40.9516 33.4497 40.8834 33.5636L39.3512 36.1163L38.6881 36.338C38.213 36.4957 37.7992 36.7992 37.5065 37.2052C37.2139 37.6112 37.0567 38.0993 37.0573 38.5997V39.6613L34.2409 41.3507C34.0565 41.4613 33.9142 41.6307 33.8366 41.8312L32.2956 45.8009L31.2233 40.2794C31.2102 40.2114 31.2136 40.1411 31.2321 40.0743C31.2506 40.0078 31.2837 39.9461 31.3297 39.8947L32.1139 39.0245C32.4378 38.6648 32.6634 38.2267 32.7682 37.754C32.873 37.2816 32.8538 36.7902 32.7125 36.3273C32.5712 35.8643 32.3126 35.4449 31.9616 35.1115C31.6106 34.7781 31.1792 34.5414 30.7096 34.424L29.5348 34.13L27.82 29.9396V28.8761L30.3229 27.088C30.3815 27.0441 30.4506 27.0158 30.5231 27.006C30.5957 26.9962 30.6698 27.0055 30.7379 27.0324Z" fill="#406CFF"/>
<path d="M25.4743 24.674L25.9332 26.0519C25.9849 26.2063 26.0746 26.3456 26.194 26.4562C26.3134 26.5667 26.459 26.6451 26.6168 26.6847L27.3092 26.8575L26.2897 27.5861C26.1642 27.6755 26.0615 27.7938 25.9909 27.9308C25.9203 28.0678 25.8834 28.22 25.8834 28.3741V30.1271C25.8835 30.2528 25.9083 30.3779 25.9557 30.4943L27.9274 35.3146C27.9849 35.4553 28.0752 35.5802 28.1901 35.6798C28.305 35.7794 28.4419 35.8509 28.5895 35.8878L30.2399 36.3009C30.3853 36.3372 30.5189 36.4106 30.6276 36.5138C30.7363 36.617 30.8172 36.7464 30.861 36.8898C30.9046 37.033 30.91 37.185 30.8776 37.3312C30.8451 37.4774 30.7757 37.6134 30.6754 37.7247L29.8913 38.5968C29.6453 38.8716 29.4654 39.1994 29.3668 39.5548C29.2684 39.9101 29.2536 40.2835 29.3229 40.6456L30.1774 45.046C26.6525 42.9872 23.8727 39.8617 22.2379 36.1212C20.6032 32.3807 20.1983 28.2179 21.0817 24.2325L25.4743 24.674Z" fill="#406CFF"/>
<path d="M44.9235 18.84C45.3109 18.8584 45.6795 19.0124 45.9645 19.2755L47.2018 20.5138C47.2996 20.6117 47.418 20.6868 47.5475 20.7355L52.8053 22.7081C53.0391 22.7963 53.2986 22.7898 53.528 22.6906L57.8483 20.839C59.2496 24.1524 59.698 27.7915 59.1422 31.3458C58.5865 34.9002 57.0486 38.2286 54.7028 40.9562L52.3922 38.1837C52.2311 37.9901 52.1425 37.7462 52.1422 37.4943V31.5753C52.1422 31.3915 52.0902 31.2111 51.9918 31.0558L49.2526 26.7452C48.9847 26.322 48.5898 25.9936 48.1247 25.8077C47.6594 25.6219 47.1467 25.5878 46.6608 25.7101L45.6295 25.9679C45.5692 25.9831 45.5062 25.9853 45.445 25.9747C45.3839 25.9642 45.3257 25.9408 45.2741 25.9064L42.1998 23.8566L41.7477 21.1466C41.7347 21.0681 41.7428 20.9875 41.7711 20.9132C41.7996 20.8388 41.8477 20.7726 41.9098 20.7228L43.8454 19.1759C44.154 18.9408 44.5359 18.8216 44.9235 18.84Z" fill="#406CFF"/>
<path d="M36.9108 14.3917C36.9666 14.4231 37.0115 14.4725 37.0368 14.5314C37.062 14.5902 37.0671 14.6559 37.0514 14.7179C37.0357 14.7799 36.9999 14.8354 36.9498 14.8751C36.8996 14.9149 36.8372 14.9365 36.7731 14.9376L35.3815 14.963C35.161 14.9671 34.9484 15.0465 34.7789 15.1876C34.6096 15.3287 34.4938 15.5235 34.4498 15.7394L33.8571 18.6583L28.8444 23.0441C28.7406 23.135 28.6582 23.2475 28.6012 23.3732C28.5443 23.4987 28.5144 23.6347 28.5143 23.7726V25.1622L27.6041 24.9347L27.1149 23.4669C27.0558 23.2897 26.9463 23.1334 26.8004 23.0167C26.6545 22.9001 26.4785 22.8273 26.2926 22.8087L21.6012 22.338C23.2041 17.494 26.6462 13.4732 31.1852 11.1427L36.9108 14.3917Z" fill="#406CFF"/>
<path d="M10.9375 32.25C11.9652 32.25 12.951 32.6581 13.6777 33.3848C14.4044 34.1115 14.8125 35.0973 14.8125 36.125V46.2666C14.2693 47.1773 14.0456 48.2436 14.1768 49.2959C14.3079 50.3481 14.7862 51.3266 15.5361 52.0762L22.6084 59.2139C22.7892 59.3962 23.0352 59.4998 23.292 59.501C23.549 59.5021 23.796 59.4006 23.9785 59.2197C24.161 59.0389 24.2644 58.793 24.2656 58.5361C24.2668 58.2792 24.1653 58.0321 23.9844 57.8496L16.9121 50.7129C16.6435 50.4447 16.4302 50.1261 16.2852 49.7754C16.1401 49.4247 16.0657 49.0485 16.0664 48.6689C16.0672 48.2894 16.1436 47.9137 16.29 47.5635C16.4365 47.2133 16.6502 46.895 16.9199 46.6279C17.1896 46.3609 17.5098 46.1499 17.8613 46.0068C18.2129 45.8638 18.5893 45.792 18.9688 45.7949C19.3483 45.7978 19.7239 45.876 20.0732 46.0244C20.4222 46.1727 20.7385 46.3883 21.0039 46.6592L26.9717 52.6885L28.1318 52.9814C29.8625 53.4182 31.3982 54.42 32.4951 55.8281C33.5921 57.2364 34.1876 58.9707 34.1875 60.7559V70.0312C34.1875 70.2882 34.085 70.5341 33.9033 70.7158C33.7216 70.8975 33.4757 71 33.2188 71H21.5938C21.3368 71 21.0909 70.8975 20.9092 70.7158C20.7275 70.5341 20.625 70.2882 20.625 70.0312V67.4795L11.0566 56.1465C9.72855 54.5733 9.00001 52.5803 9 50.5215V34.1875C9 33.6736 9.20403 33.1807 9.56738 32.8174C9.93073 32.454 10.4236 32.25 10.9375 32.25Z" fill="#FF609C"/>
<path d="M69.0625 32.25C69.5764 32.25 70.0693 32.454 70.4326 32.8174C70.796 33.1807 71 33.6736 71 34.1875V50.5215C71 52.5803 70.2714 54.5733 68.9434 56.1465L59.375 67.4795V70.0312C59.375 70.2882 59.2725 70.5341 59.0908 70.7158C58.9091 70.8975 58.6632 71 58.4062 71H46.7812C46.5243 71 46.2784 70.8975 46.0967 70.7158C45.915 70.5341 45.8125 70.2882 45.8125 70.0312V60.7559C45.8125 58.9707 46.4087 57.2364 47.5059 55.8281C48.603 54.4201 50.1383 53.418 51.8691 52.9814L53.0293 52.6895L58.9961 46.6602C59.2616 46.389 59.5784 46.1728 59.9277 46.0244C60.2771 45.876 60.6527 45.7978 61.0322 45.7949C61.4117 45.7921 61.7882 45.8648 62.1396 46.0078C62.491 46.1508 62.8105 46.362 63.0801 46.6289C63.3497 46.8959 63.5645 47.2134 63.7109 47.5635C63.8574 47.9136 63.9328 48.2895 63.9336 48.6689C63.9344 49.0484 63.8608 49.4247 63.7158 49.7754C63.5708 50.1261 63.3574 50.4447 63.0889 50.7129L56.0156 57.8496C55.8348 58.0321 55.7342 58.2792 55.7354 58.5361C55.7365 58.7931 55.8399 59.0388 56.0225 59.2197C56.2049 59.4005 56.4512 59.502 56.708 59.501C56.965 59.4998 57.2117 59.3964 57.3926 59.2139L64.4639 52.0771C65.214 51.3275 65.6932 50.3483 65.8242 49.2959C65.9552 48.2436 65.7309 47.1773 65.1875 46.2666V36.125C65.1875 35.0973 65.5956 34.1115 66.3223 33.3848C67.049 32.6581 68.0348 32.25 69.0625 32.25Z" fill="#FF609C"/>
<path d="M16.75 35.2734C17.323 35.1269 17.9219 35.1132 18.501 35.2334C19.0801 35.3536 19.6245 35.6043 20.0918 35.9668C20.559 36.3293 20.9369 36.7942 21.1973 37.3252C21.4576 37.8562 21.5933 38.4398 21.5938 39.0312V44.6582C20.8827 44.1857 20.0569 43.9147 19.2041 43.874C18.3512 43.8334 17.5029 44.024 16.75 44.4268V35.2734Z" fill="#FF609C"/>
<path d="M61.499 35.2334C62.0781 35.1132 62.677 35.1269 63.25 35.2734V44.4268C62.4971 44.024 61.6488 43.8324 60.7959 43.873C59.9431 43.9137 59.1173 44.1857 58.4062 44.6582V39.0312C58.4067 38.4398 58.5424 37.8562 58.8027 37.3252C59.0631 36.7942 59.441 36.3293 59.9082 35.9668C60.3755 35.6043 60.9199 35.3536 61.499 35.2334Z" fill="#FF609C"/>
</svg>
