<svg width="80" height="80" viewBox="0 0 80 80" fill="none" xmlns="http://www.w3.org/2000/svg">
<path fill-rule="evenodd" clip-rule="evenodd" d="M40.2763 40.2743C45.6059 34.9503 54.2427 34.9502 59.5722 40.2743C64.1441 44.8461 64.787 51.8527 61.5215 57.1142C61.5528 57.062 61.5849 57.0146 61.6162 56.9677C64.5105 58.6343 67.4255 60.7869 68.3506 61.7118C70.1793 63.5458 70.1794 66.5145 68.3506 68.3485C66.5218 70.1769 63.5435 70.1819 61.7148 68.3534C60.6751 67.3137 58.4749 64.2361 56.9648 61.6132C51.719 64.7792 44.8064 64.0947 40.2763 59.5702C34.9521 54.2408 34.947 45.609 40.2763 40.2743ZM49.5986 41.0019C49.2837 41.0019 49.0275 41.2573 49.0273 41.5722V43.2538C49.0271 43.31 48.9819 43.3679 48.9092 43.3778C48.3696 43.4511 47.8544 43.6049 47.3652 43.8388C46.7653 44.1138 46.2749 44.5232 45.8994 45.0614C45.5269 45.601 45.3487 46.2712 45.3486 47.0566C45.3486 47.8505 45.52 48.5133 45.8847 49.0214C46.2354 49.5096 46.6975 49.8966 47.2656 50.1816C47.6569 50.3894 48.0779 50.5532 48.5273 50.6747L48.5332 50.6757C48.9704 50.7821 49.4254 50.883 49.8974 50.9775L49.9033 50.9784C50.3629 51.0589 50.811 51.1689 51.2471 51.3066L51.2588 51.3095C51.5581 51.3871 51.8128 51.4906 52.0254 51.6181L52.0332 51.623C52.2357 51.7344 52.3875 51.8783 52.4941 52.0526L52.499 52.0595C52.6076 52.2224 52.6718 52.4505 52.6719 52.7607C52.6718 53.1356 52.5634 53.4241 52.3613 53.6454L52.3584 53.6493C52.1555 53.8825 51.8827 54.0545 51.5312 54.161L51.5293 54.162C51.1786 54.2716 50.791 54.328 50.3652 54.328C49.9255 54.328 49.486 54.2774 49.0449 54.1757C48.6309 54.0776 48.2691 53.9049 47.957 53.6581C47.7066 53.4505 47.5096 53.1747 47.3691 52.8251C47.2826 52.6101 47.0749 52.4444 46.8213 52.4443H45.5605C45.2128 52.4447 44.926 52.7642 45.0166 53.1259C45.1653 53.7163 45.4022 54.2295 45.7295 54.6591L45.7324 54.662C46.1412 55.1822 46.6444 55.5869 47.2392 55.872L47.2431 55.8739C47.7484 56.1008 48.2844 56.2608 48.8486 56.3564C48.9149 56.3676 48.957 56.4233 48.957 56.4784V58.2284C48.9573 58.5432 49.2135 58.7978 49.5283 58.7978H50.6221C50.9367 58.7975 51.1911 58.543 51.1914 58.2284V56.5439C51.1915 56.4875 51.2368 56.4312 51.3066 56.4218C51.9209 56.3407 52.4869 56.1755 53.001 55.9237C53.6112 55.6248 54.1003 55.198 54.4639 54.6464L54.4648 54.6444C54.8347 54.0703 55.0126 53.3554 55.0127 52.5146C55.0127 51.9018 54.9005 51.3733 54.666 50.9433C54.4351 50.5085 54.1019 50.1568 53.6709 49.8905C53.2609 49.6185 52.7705 49.4056 52.2041 49.2489C51.6673 49.0707 51.0894 48.9278 50.4736 48.8212C50.0269 48.7351 49.6106 48.627 49.2246 48.497L48.8476 48.3583C48.6837 48.2927 48.5293 48.2155 48.3847 48.1259L48.2441 48.0321C48.0851 47.9118 47.9547 47.7611 47.8535 47.579C47.7582 47.4072 47.7062 47.2007 47.706 46.9521C47.706 46.5385 47.8215 46.2525 48.0224 46.0605C48.2497 45.8435 48.5377 45.6838 48.8926 45.5868C49.2699 45.4871 49.6529 45.444 50.041 45.455H50.0488C50.4621 45.455 50.8441 45.5103 51.1953 45.62L51.2012 45.622C51.5384 45.7169 51.8117 45.8838 52.0273 46.12L52.0303 46.123C52.1856 46.2857 52.2991 46.4987 52.3633 46.7704C52.4235 47.0255 52.6454 47.2496 52.9433 47.2499H54.1015C54.4145 47.2497 54.6888 46.9893 54.6572 46.6532C54.6029 46.0796 54.4417 45.5719 54.167 45.1386C53.8413 44.6252 53.408 44.2177 52.8711 43.9179C52.4269 43.67 51.9406 43.5039 51.415 43.4198C51.3424 43.4082 51.2979 43.3501 51.2978 43.2948V41.5722C51.2977 41.2574 51.0423 41.0021 50.7275 41.0019H49.5986Z" fill="#406CFF"/>
<path fill-rule="evenodd" clip-rule="evenodd" d="M44.3428 17C45.4036 17 46.4217 17.4217 47.1719 18.1719L53.8281 24.8281C54.5783 25.5783 55 26.5964 55 27.6572V34.8271C49.4523 32.9674 43.0839 34.245 38.6641 38.6602L38.6621 38.6621C32.4428 44.8876 32.449 54.9616 38.6621 61.1807L38.6641 61.1826C41.8941 64.4086 46.161 65.9592 50.3887 65.8359C49.9428 65.9416 49.4782 66 49 66H23C19.6863 66 17 63.3137 17 60V23C17 19.6863 19.6863 17 23 17H44.3428ZM25.5 39C24.6716 39 24 39.6716 24 40.5C24 41.3284 24.6716 42 25.5 42H33.5C34.3284 42 35 41.3284 35 40.5C35 39.6716 34.3284 39 33.5 39H25.5ZM25.5 30C24.6716 30 24 30.6716 24 31.5C24 32.3284 24.6716 33 25.5 33H41.5C42.3284 33 43 32.3284 43 31.5C43 30.6716 42.3284 30 41.5 30H25.5Z" fill="#FF609C"/>
<path d="M38.3428 11C39.4036 11 40.4217 11.4217 41.1719 12.1719L43 14H23C18.0294 14 14 18.0294 14 23V59.1953C12.2071 58.1578 11 56.2205 11 54V22C11 15.9249 15.9239 11 21.999 11H38.3428Z" fill="#FF609C"/>
</svg>
