<svg width="60" height="60" viewBox="0 0 60 60" fill="none" xmlns="http://www.w3.org/2000/svg">
<path d="M21.6582 35.2038C23.9075 35.2038 26.0921 35.8965 27.8092 37.1543L33.9876 41.6784C34.1855 41.8233 34.3566 41.9883 34.5215 42.1562C34.492 43.6608 33.8443 45.5125 33.2207 46.1576C32.2806 47.1314 30.5479 47.2977 29.3561 46.5286L25.5365 44.0619C25.1097 43.786 24.5388 43.9079 24.2624 44.3359C23.9862 44.7635 24.1084 45.334 24.5358 45.61L28.3561 48.0775C29.1638 48.5992 30.1118 48.8522 31.054 48.8522C32.3569 48.8522 33.6498 48.368 34.5475 47.4388C35.1896 46.774 35.7306 45.589 36.054 44.3268L49.2949 39.543C51.3902 38.7867 53.8239 39.521 54.9531 41.2533C55.5285 42.1362 55.7037 43.1717 55.4453 44.1667C55.167 45.2439 54.4231 46.1489 53.3535 46.7148L34.6244 56.6302C33.4573 57.2484 32.1291 57.5657 30.791 57.5658C30.0433 57.5658 29.2922 57.4664 28.5638 57.2656L17.7188 54.278V35.2038H21.6582Z" fill="#406CFF"/>
<path d="M13.11 32.4375C14.6375 32.4379 15.8763 33.6762 15.8763 35.2038V54.4668C15.8763 55.9944 14.6375 57.2327 13.11 57.2331H7.21159C5.68381 57.2331 4.44531 55.9946 4.44531 54.4668V35.2038C4.44533 33.676 5.68382 32.4375 7.21159 32.4375H13.11Z" fill="#406CFF"/>
<path d="M43.4668 36.5905C45.4896 35.8211 47.8246 36.284 49.3086 37.6367C49.0953 37.6914 48.8802 37.7327 48.6699 37.8086L36.7767 42.1042C36.366 41.3693 35.7917 40.7129 35.0788 40.1908L34.7051 39.9167L43.4668 36.5905Z" fill="#406CFF"/>
<path d="M25.7721 17.2793C26.0132 17.0182 26.6149 16.92 27.3691 17.319C28.0471 17.7848 28.592 18.4192 28.9505 19.1595C29.7992 20.5309 30.8544 22.2386 33.4818 22.2904C34.4915 22.2943 35.4974 22.1647 36.4733 21.9056C38.0063 21.5508 39.181 21.2875 41.8978 23.8848C40.0271 26.6585 37.2795 28.7241 34.0951 29.75C30.9106 30.7759 27.4739 30.7025 24.3359 29.5423L24.3887 28.0033C24.4705 27.0144 24.813 26.0649 25.3809 25.2513L25.5469 25.028C26.6227 23.5844 27.9621 21.7873 26.0241 18.8027C25.6029 18.1547 25.5061 17.5711 25.7721 17.2793Z" fill="#FF609C"/>
<path d="M29.3822 0.4375C32.4655 4.74326 31.9661 5.80931 31.2624 7.27734C30.9838 7.83352 30.8282 8.44344 30.8066 9.0651C30.7852 9.68672 30.8986 10.3055 31.138 10.8796C31.7738 12.3796 33.2223 13.5163 35.4421 14.2565C36.2742 14.5366 37.1467 14.6798 38.0247 14.681C40.0797 14.6429 42.0621 13.9141 43.6523 12.612L44.1309 12.1895C44.8801 15.488 44.4752 18.9439 42.9837 21.9798C39.8835 19.1542 38.1838 19.3049 35.9889 19.8145C35.1848 20.031 34.3556 20.1424 33.5228 20.1445C32.1319 20.1174 31.5988 19.362 30.7754 18.0306C30.2292 16.9569 29.3973 16.0546 28.3717 15.4225C27.7285 15.0155 26.9679 14.8348 26.2103 14.9089C25.4526 14.9829 24.7411 15.3074 24.1888 15.8314C23.4386 16.6518 23.0532 18.1704 24.2233 19.9727C25.3483 21.7041 24.8711 22.3442 23.8268 23.7467L23.6556 23.9766C22.8302 25.1374 22.3421 26.5041 22.2448 27.9251L22.222 28.5898C20.4588 27.6105 18.9096 26.2869 17.6673 24.6979C16.4251 23.109 15.5145 21.2865 14.9896 19.3392C19.7305 18.5799 20.7745 15.3055 21.3802 13.3939C21.4945 12.97 21.6453 12.5568 21.8307 12.1589C23.0821 11.6712 25.1226 10.3018 24.7129 6.61589C24.3892 3.70835 22.7202 2.78732 22.5306 2.69206L22.0189 2.4349C24.2584 1.14179 26.7962 0.453416 29.3822 0.4375Z" fill="#FF609C"/>
<path d="M21.5345 4.5931C21.8656 4.8687 22.1317 5.21447 22.3125 5.60547C22.4933 5.9964 22.5845 6.42283 22.5801 6.85352C22.8691 9.45205 21.5018 9.98516 21.0521 10.1608C20.0283 10.5594 19.6915 11.6217 19.3353 12.7467C18.7618 14.5553 18.0718 16.7243 14.5781 17.2435C14.5034 16.649 14.4643 16.0503 14.4609 15.4512C14.461 13.2227 14.9579 11.0221 15.9154 9.00977C16.8729 6.99752 18.2669 5.22405 19.9961 3.81836L21.5345 4.5931Z" fill="#FF609C"/>
<path d="M32.1406 0.683594C34.6544 1.14086 37.0108 2.23006 38.987 3.84961C40.9632 5.46917 42.4941 7.56575 43.4362 9.94076L42.2318 11.0046C41.3902 11.691 40.3932 12.1609 39.3281 12.373C38.2629 12.5851 37.1615 12.5331 36.1211 12.2214C35.4972 12.0839 34.908 11.8194 34.3906 11.4447C33.8733 11.0699 33.4384 10.5923 33.1133 10.0423C32.9962 9.74784 32.9435 9.4318 32.9577 9.11523C32.9719 8.79851 33.0528 8.48798 33.196 8.20508C34.2829 5.93831 34.3327 4.136 32.1406 0.683594Z" fill="#FF609C"/>
</svg>
