<svg width="184" height="60" viewBox="0 0 184 60" fill="none" xmlns="http://www.w3.org/2000/svg">
<path d="M11.8151 59.9969C11.3397 59.9969 10.8757 59.9907 10.4041 59.9801C9.4269 59.9673 8.45203 59.8818 7.48743 59.7242C6.588 59.5685 5.71669 59.2789 4.90225 58.8648C4.09527 58.4542 3.35924 57.9158 2.72236 57.2703C2.07626 56.6323 1.53835 55.8924 1.12995 55.0798C0.717052 54.2619 0.431301 53.3853 0.282652 52.4804C0.122124 51.5081 0.035272 50.5249 0.0228444 49.5394C0.0129514 49.2086 0 48.1071 0 48.1071V11.8729C0 11.8729 0.0137941 10.7883 0.0229224 10.4697C0.0348218 9.48575 0.121169 8.50411 0.281216 7.5333C0.43014 6.62593 0.716112 5.74676 1.12923 4.92622C1.53613 4.11421 2.07106 3.37372 2.71326 2.73347C3.35475 2.08714 4.09313 1.54596 4.90148 1.12968C5.71406 0.716972 6.58372 0.429362 7.48133 0.276488C8.44909 0.117384 9.42735 0.0313648 10.4079 0.019152L11.8159 0H172.176L173.601 0.0199206C174.573 0.0315265 175.542 0.116778 176.501 0.27495C177.408 0.429742 178.287 0.719359 179.108 1.13428C180.728 1.97321 182.046 3.30048 182.877 4.93005C183.283 5.74492 183.565 6.61692 183.712 7.51645C183.874 8.49523 183.965 9.48458 183.983 10.4766C183.988 10.9208 183.988 11.398 183.988 11.8729C184 12.4611 184 13.0209 184 13.5854V46.4129C184 46.9828 184 47.5388 183.988 48.0994C183.988 48.6095 183.988 49.0768 183.982 49.5577C183.963 50.5321 183.874 51.5038 183.715 52.465C183.569 53.3764 183.285 54.2599 182.872 55.0845C182.461 55.8882 181.926 56.6218 181.288 57.258C180.65 57.9071 179.913 58.4486 179.104 58.8619C178.284 59.2791 177.407 59.5698 176.501 59.7242C175.537 59.8826 174.562 59.9681 173.584 59.9801C173.127 59.9907 172.649 59.9969 172.184 59.9969L170.493 60L11.8151 59.9969Z" fill="black"/>
<path d="M37.6852 30.7846C37.702 29.4754 38.0488 28.1918 38.6933 27.0531C39.3378 25.9144 40.259 24.9577 41.3713 24.2719C40.6647 23.26 39.7325 22.4272 38.6488 21.8397C37.5651 21.2522 36.3597 20.9261 35.1283 20.8875C32.5016 20.611 29.9552 22.4636 28.6167 22.4636C27.2522 22.4636 25.1914 20.915 22.9722 20.9607C21.5368 21.0072 20.1378 21.4258 18.9117 22.1757C17.6855 22.9255 16.674 23.9811 15.9756 25.2395C12.9504 30.4917 15.207 38.2106 18.1048 42.456C19.5547 44.5349 21.2492 46.857 23.4664 46.7747C25.636 46.6844 26.4463 45.3873 29.0653 45.3873C31.6599 45.3873 32.4202 46.7747 34.6824 46.7223C37.0105 46.6844 38.4773 44.6342 39.8763 42.5357C40.9181 41.0544 41.7197 39.4173 42.2515 37.6849C40.8989 37.1113 39.7446 36.151 38.9326 34.924C38.1206 33.6969 37.6867 32.2573 37.6852 30.7846Z" fill="white"/>
<path d="M33.4142 18.0924C34.6836 16.5643 35.309 14.6002 35.1576 12.6172C33.2182 12.8214 31.4268 13.7509 30.1402 15.2204C29.5112 15.9382 29.0294 16.7734 28.7225 17.6781C28.4155 18.5828 28.2894 19.5392 28.3512 20.4929C29.3213 20.5029 30.2809 20.292 31.1579 19.8762C32.0349 19.4604 32.8064 18.8505 33.4142 18.0924Z" fill="white"/>
<path d="M65.115 41.5103H57.711L55.9329 46.7751H52.7969L59.8099 27.2969H63.0681L70.0811 46.7751H66.8916L65.115 41.5103ZM58.4778 39.0809H64.3467L61.4536 30.5366H61.3726L58.4778 39.0809Z" fill="white"/>
<path d="M85.2229 39.6744C85.2229 44.0875 82.8675 46.9228 79.3129 46.9228C78.4124 46.9701 77.5169 46.7621 76.7289 46.3227C75.9408 45.8832 75.2921 45.2302 74.857 44.4383H74.7897V51.4722H71.8828V32.5731H74.6966V34.9351H74.7501C75.2052 34.147 75.8649 33.4973 76.6589 33.0552C77.4529 32.6131 78.3516 32.3951 79.2594 32.4245C82.8537 32.4245 85.2229 35.2736 85.2229 39.6744ZM82.2351 39.6744C82.2351 36.7993 80.7533 34.9091 78.4926 34.9091C76.2715 34.9091 74.7776 36.8391 74.7776 39.6744C74.7776 42.5358 76.2715 44.4521 78.4926 44.4521C80.7533 44.4521 82.2351 42.5756 82.2351 39.6744Z" fill="white"/>
<path d="M100.817 39.6744C100.817 44.0875 98.4612 46.9228 94.9066 46.9228C94.0062 46.97 93.1107 46.762 92.3226 46.3226C91.5346 45.8832 90.8859 45.2302 90.4508 44.4382H90.3835V51.4722H87.4766V32.5731H90.2903V34.9351H90.3438C90.7989 34.1469 91.4585 33.4973 92.2526 33.0552C93.0466 32.6131 93.9453 32.3951 94.8531 32.4245C98.4475 32.4245 100.817 35.2736 100.817 39.6744ZM97.8288 39.6744C97.8288 36.7993 96.3471 34.909 94.0863 34.909C91.8652 34.909 90.3713 36.8391 90.3713 39.6744C90.3713 42.5358 91.8652 44.4521 94.0863 44.4521C96.3471 44.4521 97.8288 42.5756 97.8288 39.6744Z" fill="white"/>
<path d="M111.109 41.3446C111.324 43.2762 113.195 44.5444 115.752 44.5444C118.202 44.5444 119.965 43.2761 119.965 41.5345C119.965 40.0226 118.902 39.1174 116.385 38.497L113.867 37.8888C110.3 37.0249 108.645 35.3522 108.645 32.6379C108.645 29.2771 111.565 26.9688 115.713 26.9688C119.817 26.9688 122.631 29.2771 122.726 32.6379H119.791C119.615 30.694 118.013 29.5207 115.671 29.5207C113.33 29.5207 111.727 30.7078 111.727 32.4357C111.727 33.8128 112.751 34.6231 115.254 35.2434L117.394 35.7703C121.38 36.7154 123.036 38.3208 123.036 41.1699C123.036 44.814 120.141 47.0963 115.537 47.0963C111.229 47.0963 108.321 44.8676 108.133 41.3445L111.109 41.3446Z" fill="white"/>
<path d="M129.316 29.2109V32.5717H132.009V34.8801H129.316V42.709C129.316 43.9252 129.855 44.492 131.039 44.492C131.359 44.4864 131.678 44.4639 131.995 44.4246V46.7192C131.463 46.8189 130.922 46.8641 130.38 46.854C127.513 46.854 126.395 45.7741 126.395 43.0199V34.8801H124.336V32.5717H126.395V29.2109H129.316Z" fill="white"/>
<path d="M133.562 39.6666C133.562 35.1984 136.187 32.3906 140.279 32.3906C144.385 32.3906 146.997 35.1983 146.997 39.6666C146.997 44.1471 144.399 46.9426 140.279 46.9426C136.161 46.9426 133.562 44.147 133.562 39.6666ZM144.035 39.6666C144.035 36.6015 142.635 34.7925 140.279 34.7925C137.924 34.7925 136.524 36.6153 136.524 39.6666C136.524 42.7439 137.924 44.5392 140.279 44.5392C142.635 44.5392 144.035 42.7439 144.035 39.6666Z" fill="white"/>
<path d="M149.398 32.5729H152.171V34.9901H152.238C152.426 34.2352 152.867 33.568 153.487 33.1008C154.108 32.6335 154.869 32.3947 155.645 32.4243C155.98 32.4232 156.314 32.4597 156.641 32.5331V35.2597C156.218 35.1301 155.777 35.0706 155.334 35.0835C154.912 35.0664 154.491 35.141 154.1 35.3024C153.71 35.4638 153.358 35.7081 153.07 36.0185C152.783 36.3289 152.565 36.698 152.433 37.1006C152.301 37.5032 152.258 37.9297 152.305 38.3508V46.7741H149.398L149.398 32.5729Z" fill="white"/>
<path d="M170.041 42.5954C169.649 45.1733 167.146 46.9426 163.943 46.9426C159.823 46.9426 157.266 44.1746 157.266 39.734C157.266 35.2796 159.836 32.3906 163.82 32.3906C167.738 32.3906 170.202 35.0896 170.202 39.3955V40.3942H160.2V40.5703C160.154 41.093 160.219 41.6195 160.391 42.1149C160.564 42.6103 160.839 43.0633 161.2 43.4437C161.56 43.8242 161.997 44.1234 162.481 44.3215C162.966 44.5196 163.487 44.6121 164.01 44.5928C164.697 44.6573 165.386 44.4978 165.975 44.1379C166.565 43.778 167.022 43.237 167.28 42.5953L170.041 42.5954ZM160.214 38.3569H167.294C167.32 37.887 167.249 37.4167 167.085 36.9756C166.922 36.5345 166.669 36.1321 166.342 35.7937C166.016 35.4553 165.624 35.1881 165.19 35.0089C164.756 34.8298 164.29 34.7425 163.82 34.7526C163.347 34.7498 162.878 34.841 162.44 35.021C162.002 35.201 161.603 35.4662 161.268 35.8012C160.933 36.1363 160.667 36.5347 160.486 36.9733C160.305 37.412 160.213 37.8822 160.214 38.3569Z" fill="white"/>
<path d="M58.1057 12.6356C58.7151 12.5918 59.3267 12.6841 59.8962 12.9059C60.4657 13.1278 60.9791 13.4736 61.3992 13.9185C61.8193 14.3634 62.1358 14.8962 62.3257 15.4786C62.5156 16.0609 62.5742 16.6783 62.4974 17.2861C62.4974 20.2761 60.8858 21.9949 58.1057 21.9949H54.7344V12.6356H58.1057ZM56.184 20.6713H57.9437C58.3792 20.6974 58.815 20.6258 59.2194 20.4617C59.6239 20.2976 59.9867 20.0451 60.2815 19.7227C60.5764 19.4003 60.7958 19.016 60.9239 18.5978C61.0519 18.1796 61.0853 17.738 61.0217 17.3052C61.0807 16.8741 61.0439 16.4353 60.9139 16.0201C60.7839 15.605 60.5639 15.2238 60.2697 14.9039C59.9756 14.5841 59.6145 14.3334 59.2123 14.1699C58.8102 14.0064 58.377 13.9341 57.9437 13.9582H56.184V20.6713Z" fill="white"/>
<path d="M64.1407 18.4616C64.0964 17.9974 64.1494 17.5291 64.2962 17.0867C64.443 16.6442 64.6803 16.2374 64.9931 15.8924C65.3058 15.5473 65.6871 15.2716 66.1123 15.083C66.5375 14.8943 66.9974 14.7969 67.4624 14.7969C67.9274 14.7969 68.3872 14.8943 68.8125 15.083C69.2377 15.2716 69.6189 15.5473 69.9317 15.8924C70.2444 16.2374 70.4818 16.6442 70.6286 17.0867C70.7754 17.5291 70.8283 17.9974 70.784 18.4616C70.8291 18.9262 70.7768 19.3952 70.6304 19.8383C70.484 20.2815 70.2468 20.689 69.934 21.0348C69.6211 21.3805 69.2396 21.6568 68.814 21.8458C68.3883 22.0349 67.9279 22.1326 67.4624 22.1326C66.9968 22.1326 66.5364 22.0349 66.1108 21.8458C65.6851 21.6568 65.3036 21.3805 64.9908 21.0348C64.6779 20.689 64.4407 20.2815 64.2943 19.8383C64.1479 19.3952 64.0956 18.9262 64.1407 18.4616ZM69.3542 18.4616C69.3542 16.9306 68.6684 16.0353 67.4647 16.0353C66.2564 16.0353 65.5767 16.9306 65.5767 18.4616C65.5767 20.0049 66.2564 20.8933 67.4647 20.8933C68.6684 20.8933 69.3542 19.9987 69.3542 18.4616Z" fill="white"/>
<path d="M79.6162 22.0006H78.1742L76.7185 16.7986H76.6085L75.1588 22.0006H73.7306L71.7891 14.9375H73.199L74.4608 20.327H74.5646L76.0127 14.9375H77.3463L78.7944 20.327H78.9044L80.16 14.9375H81.5501L79.6162 22.0006Z" fill="white"/>
<path d="M83.1797 14.9324H84.5178V16.0544H84.6217C84.7979 15.6514 85.0951 15.3136 85.4719 15.088C85.8487 14.8624 86.2862 14.7604 86.7236 14.796C87.0663 14.7702 87.4104 14.822 87.7305 14.9476C88.0505 15.0733 88.3383 15.2695 88.5724 15.5218C88.8065 15.7741 88.9811 16.076 89.083 16.4051C89.185 16.7342 89.2119 17.0821 89.1616 17.423V21.9953H87.7715V17.7731C87.7715 16.638 87.2796 16.0735 86.2516 16.0735C86.0189 16.0627 85.7866 16.1024 85.5707 16.19C85.3547 16.2775 85.1602 16.4109 85.0005 16.5809C84.8407 16.7509 84.7195 16.9535 84.6452 17.1749C84.5708 17.3963 84.5451 17.6311 84.5698 17.8634V21.9954H83.1797L83.1797 14.9324Z" fill="white"/>
<path d="M91.375 12.1719H92.7651V21.9921H91.375V12.1719Z" fill="white"/>
<path d="M94.7032 18.4617C94.6589 17.9975 94.7119 17.5292 94.8587 17.0867C95.0056 16.6443 95.243 16.2375 95.5558 15.8924C95.8685 15.5474 96.2498 15.2717 96.675 15.083C97.1003 14.8943 97.5602 14.7969 98.0252 14.7969C98.4902 14.7969 98.9501 14.8943 99.3754 15.083C99.8006 15.2717 100.182 15.5474 100.495 15.8924C100.807 16.2375 101.045 16.6443 101.192 17.0867C101.339 17.5292 101.391 17.9975 101.347 18.4617C101.392 18.9264 101.34 19.3954 101.194 19.8385C101.047 20.2817 100.81 20.6892 100.497 21.0349C100.184 21.3806 99.8025 21.6569 99.3769 21.8459C98.9512 22.035 98.4908 22.1327 98.0252 22.1327C97.5597 22.1327 97.0992 22.035 96.6736 21.8459C96.2479 21.6569 95.8664 21.3806 95.5535 21.0349C95.2406 20.6892 95.0034 20.2817 94.8569 19.8385C94.7105 19.3954 94.6581 18.9264 94.7032 18.4617ZM99.9167 18.4617C99.9167 16.9307 99.2308 16.0354 98.0271 16.0354C96.8188 16.0354 96.1391 16.9307 96.1391 18.4617C96.1391 20.005 96.8189 20.8934 98.0271 20.8934C99.2308 20.8934 99.9167 19.9989 99.9167 18.4617Z" fill="white"/>
<path d="M102.805 19.9988C102.805 18.7274 103.749 17.9945 105.424 17.8903L107.332 17.78V17.1704C107.332 16.4244 106.84 16.0031 105.89 16.0031C105.114 16.0031 104.577 16.2888 104.422 16.7882H103.077C103.219 15.575 104.357 14.7969 105.954 14.7969C107.72 14.7969 108.716 15.6784 108.716 17.1704V21.9962H107.378V21.0037H107.268C107.045 21.3597 106.731 21.65 106.36 21.8448C105.988 22.0396 105.571 22.132 105.153 22.1126C104.857 22.1435 104.558 22.1118 104.275 22.0198C103.992 21.9277 103.732 21.7772 103.511 21.5781C103.29 21.3789 103.113 21.1355 102.991 20.8635C102.869 20.5915 102.806 20.2969 102.805 19.9988ZM107.332 19.3953V18.8048L105.612 18.9151C104.642 18.9802 104.202 19.311 104.202 19.9337C104.202 20.5694 104.752 20.9393 105.508 20.9393C105.73 20.9618 105.954 20.9394 106.167 20.8733C106.379 20.8073 106.577 20.6991 106.747 20.555C106.917 20.4109 107.057 20.234 107.157 20.0348C107.258 19.8356 107.317 19.6181 107.332 19.3953Z" fill="white"/>
<path d="M110.547 18.4576C110.547 16.2258 111.691 14.8119 113.471 14.8119C113.911 14.7916 114.348 14.8973 114.73 15.1167C115.113 15.3362 115.425 15.6602 115.631 16.0511H115.734V12.1719H117.125V21.9921H115.792V20.8762H115.683C115.461 21.2644 115.138 21.5845 114.748 21.8017C114.358 22.0189 113.916 22.125 113.471 22.1085C111.679 22.1086 110.547 20.6947 110.547 18.4576ZM111.983 18.4576C111.983 19.9557 112.687 20.8571 113.865 20.8571C115.036 20.8571 115.76 19.9427 115.76 18.4637C115.76 16.9917 115.029 16.0642 113.865 16.0642C112.695 16.0642 111.983 16.9717 111.983 18.4576Z" fill="white"/>
<path d="M122.875 18.4616C122.831 17.9974 122.884 17.5291 123.031 17.0867C123.177 16.6442 123.415 16.2374 123.727 15.8924C124.04 15.5473 124.421 15.2716 124.847 15.083C125.272 14.8943 125.732 14.7969 126.197 14.7969C126.662 14.7969 127.122 14.8943 127.547 15.083C127.972 15.2716 128.353 15.5473 128.666 15.8924C128.979 16.2374 129.216 16.6442 129.363 17.0867C129.51 17.5291 129.563 17.9974 129.518 18.4616C129.564 18.9262 129.511 19.3952 129.365 19.8383C129.218 20.2815 128.981 20.689 128.668 21.0348C128.355 21.3805 127.974 21.6568 127.548 21.8458C127.123 22.0349 126.662 22.1326 126.197 22.1326C125.731 22.1326 125.271 22.0349 124.845 21.8458C124.419 21.6568 124.038 21.3805 123.725 21.0348C123.412 20.689 123.175 20.2815 123.029 19.8383C122.882 19.3952 122.83 18.9262 122.875 18.4616ZM128.089 18.4616C128.089 16.9306 127.403 16.0353 126.199 16.0353C124.991 16.0353 124.311 16.9306 124.311 18.4616C124.311 20.0049 124.991 20.8933 126.199 20.8933C127.403 20.8933 128.089 19.9987 128.089 18.4616Z" fill="white"/>
<path d="M131.383 14.9324H132.721V16.0544H132.825C133.001 15.6514 133.298 15.3136 133.675 15.088C134.052 14.8624 134.489 14.7604 134.927 14.796C135.269 14.7702 135.614 14.822 135.934 14.9476C136.254 15.0733 136.541 15.2695 136.776 15.5218C137.01 15.7741 137.184 16.076 137.286 16.4051C137.388 16.7342 137.415 17.0821 137.365 17.423V21.9953H135.975V17.7731C135.975 16.638 135.483 16.0735 134.455 16.0735C134.222 16.0627 133.99 16.1024 133.774 16.19C133.558 16.2775 133.363 16.4109 133.204 16.5809C133.044 16.7509 132.923 16.9535 132.848 17.1749C132.774 17.3963 132.748 17.6311 132.773 17.8634V21.9954H131.383V14.9324Z" fill="white"/>
<path d="M145.221 13.1719V14.9625H146.747V16.1366H145.221V19.7685C145.221 20.5084 145.525 20.8323 146.217 20.8323C146.394 20.8318 146.571 20.821 146.747 20.8001V21.9612C146.497 22.006 146.244 22.0298 145.991 22.0325C144.445 22.0325 143.829 21.4871 143.829 20.1254V16.1366H142.711V14.9625H143.829V13.1719H145.221Z" fill="white"/>
<path d="M148.648 12.1719H150.026V16.0641H150.136C150.321 15.6574 150.626 15.3177 151.011 15.0912C151.395 14.8648 151.84 14.7627 152.284 14.7989C152.625 14.7803 152.966 14.8374 153.282 14.9661C153.598 15.0947 153.883 15.2919 154.114 15.5434C154.346 15.7949 154.52 16.0945 154.622 16.421C154.725 16.7475 154.755 17.0927 154.71 17.432V21.9921H153.318V17.7759C153.318 16.6477 152.794 16.0764 151.812 16.0764C151.573 16.0567 151.333 16.0897 151.108 16.1729C150.883 16.2561 150.679 16.3876 150.51 16.5581C150.341 16.7287 150.211 16.9342 150.13 17.1603C150.049 17.3864 150.017 17.6276 150.039 17.867V21.9921H148.648L148.648 12.1719Z" fill="white"/>
<path d="M162.812 20.0893C162.623 20.7348 162.214 21.2932 161.656 21.6667C161.098 22.0403 160.427 22.2052 159.76 22.1327C159.296 22.145 158.835 22.0558 158.409 21.8715C157.983 21.6871 157.601 21.412 157.292 21.0651C156.982 20.7183 156.752 20.308 156.616 19.8628C156.481 19.4176 156.443 18.9482 156.507 18.4871C156.445 18.0245 156.483 17.5541 156.618 17.1075C156.753 16.661 156.983 16.2489 157.291 15.899C157.599 15.5491 157.978 15.2696 158.403 15.0795C158.828 14.8893 159.289 14.793 159.754 14.797C161.714 14.797 162.896 16.1397 162.896 18.3576V18.844H157.923V18.9221C157.901 19.1813 157.933 19.4422 158.018 19.6881C158.103 19.9339 158.238 20.1593 158.414 20.3498C158.591 20.5404 158.805 20.6918 159.044 20.7943C159.282 20.8969 159.539 20.9484 159.798 20.9455C160.131 20.9855 160.468 20.9255 160.766 20.773C161.065 20.6206 161.311 20.3825 161.474 20.0892L162.812 20.0893ZM157.923 17.8131H161.48C161.498 17.576 161.466 17.3379 161.386 17.1141C161.306 16.8902 161.181 16.6855 161.017 16.5132C160.854 16.3409 160.657 16.2047 160.438 16.1135C160.219 16.0222 159.983 15.9779 159.746 15.9834C159.506 15.9803 159.267 16.0256 159.045 16.1165C158.822 16.2074 158.62 16.3421 158.45 16.5126C158.28 16.6831 158.146 16.886 158.055 17.1094C157.965 17.3327 157.919 17.572 157.923 17.8131Z" fill="white"/>
</svg>
