<svg width="1440" height="242" viewBox="0 0 1440 242" fill="none" xmlns="http://www.w3.org/2000/svg">
<mask id="mask0_162_1456" style="mask-type:alpha" maskUnits="userSpaceOnUse" x="0" y="0" width="1440" height="242">
<rect width="1440" height="242" fill="#1C0F30"/>
</mask>
<g mask="url(#mask0_162_1456)">
<path d="M1167.58 92.1642V187.351C1167.58 192.144 1168.49 197.166 1170.32 202.416C1172.15 207.438 1174.89 212.117 1178.54 216.454C1182.42 220.563 1187.1 223.987 1192.58 226.726C1198.28 229.465 1204.9 230.835 1212.44 230.835C1219.05 230.835 1225.1 229.465 1230.58 226.726C1236.29 223.987 1241.08 220.563 1244.96 216.454C1249.07 212.117 1252.15 207.438 1254.21 202.416C1256.49 197.166 1257.63 192.144 1257.63 187.351V92.1642H1292.9V275.347C1292.9 283.564 1291.3 291.439 1288.1 298.972C1285.14 306.733 1280.57 313.581 1274.41 319.516C1268.47 325.451 1260.94 330.13 1251.81 333.554C1242.91 337.206 1232.52 339.032 1220.65 339.032C1209.01 339.032 1198.63 337.32 1189.49 333.896C1180.59 330.473 1173.06 325.907 1166.9 320.201C1160.73 314.722 1155.94 308.217 1152.52 300.684C1149.32 293.38 1147.49 285.733 1147.04 277.743H1181.62C1182.08 282.537 1183.45 286.76 1185.73 290.412C1188.01 294.064 1190.98 297.032 1194.63 299.314C1198.28 301.825 1202.28 303.651 1206.61 304.793C1211.18 306.162 1215.86 306.847 1220.65 306.847C1225.45 306.847 1230.01 306.162 1234.35 304.793C1238.91 303.651 1242.91 301.711 1246.33 298.972C1249.76 296.461 1252.5 293.151 1254.55 289.042C1256.6 285.162 1257.63 280.483 1257.63 275.004V240.765C1251.24 247.612 1243.82 253.091 1235.38 257.2C1226.93 261.08 1217.57 263.02 1207.3 263.02C1195.43 263.02 1184.82 260.738 1175.46 256.172C1166.1 251.607 1158.22 245.672 1151.83 238.368C1145.44 231.063 1140.53 222.96 1137.11 214.058C1133.91 205.155 1132.31 196.253 1132.31 187.351V92.1642H1167.58Z" fill="#272730"/>
<path d="M1070.87 23L1106.14 23V268.156H1070.87V23Z" fill="#272730"/>
<path d="M1047.51 270.553C1046.6 270.781 1045.12 270.895 1043.06 270.895C1041.01 271.124 1038.84 271.238 1036.56 271.238C1034.28 271.466 1032.11 271.58 1030.05 271.58C1028 271.58 1026.4 271.58 1025.26 271.58C1005.4 271.58 991.248 266.558 982.802 256.515C974.356 246.243 970.133 230.607 970.133 209.606V121.953H935.209V100.724C940.915 100.724 946.622 100.039 952.328 98.6697C958.035 97.0719 963.057 94.4468 967.394 90.7946C971.959 86.9141 975.611 81.664 978.351 75.0443C981.09 68.4247 982.459 60.093 982.459 50.0494H1005.4V92.1642H1048.88V121.953H1005.4V208.922C1005.4 220.107 1007.57 227.639 1011.91 231.52C1016.24 235.172 1023.09 236.998 1032.45 236.998H1051.62L1047.51 270.553Z" fill="#272730"/>
<path d="M915.887 92.1642V268.156H880.62V92.1642H915.887ZM915.887 23.3424V59.6365H880.278V23.3424L915.887 23.3424Z" fill="#272730"/>
<path d="M728.551 189.747V195.91C728.551 200.704 729.464 205.726 731.29 210.976C733.344 215.998 736.198 220.677 739.85 225.014C743.73 229.123 748.41 232.547 753.888 235.286C759.595 237.797 766.214 239.053 773.747 239.053C779.225 239.053 784.59 238.482 789.84 237.341C795.09 236.199 799.655 234.487 803.536 232.205C807.644 229.694 810.954 226.726 813.465 223.302C815.976 219.65 817.231 215.427 817.231 210.634H852.156C852.156 218.395 850.216 225.927 846.335 233.232C842.683 240.536 837.433 247.042 830.585 252.748C823.965 258.227 816.204 262.678 807.302 266.102C798.4 269.298 788.812 270.895 778.541 270.895H768.611C756.741 270.895 746.127 268.727 736.768 264.39C727.409 259.825 719.534 254.004 713.143 246.928C706.751 239.623 701.844 231.52 698.42 222.617C694.996 213.715 693.284 204.813 693.284 195.91V164.41C693.284 155.508 695.11 146.605 698.762 137.703C702.414 128.801 707.55 120.697 714.17 113.393C720.79 106.088 728.893 100.153 738.48 95.5882C748.067 91.0229 758.796 88.7402 770.665 88.7402H776.486C786.758 88.7402 796.573 90.6805 805.932 94.561C815.291 98.4415 823.509 103.692 830.585 110.311C836.52 116.018 841.085 121.724 844.281 127.431C847.477 132.909 849.759 138.73 851.129 144.893C852.498 150.828 853.297 157.105 853.526 163.725C853.754 170.345 853.868 177.421 853.868 184.954V189.747H728.551ZM819.628 160.301C819.628 154.366 818.373 149.002 815.862 144.209C813.579 139.187 810.383 134.964 806.275 131.54C802.394 128.116 797.829 125.491 792.579 123.665C787.329 121.839 781.85 120.926 776.144 120.926C769.296 120.926 763.019 122.181 757.312 124.692C751.834 126.975 747.04 130.056 742.931 133.937C738.823 137.589 735.513 141.812 733.002 146.605C730.719 151.171 729.35 155.736 728.893 160.301H819.628Z" fill="#272730"/>
<path d="M547.655 195.568C547.655 203.101 549.025 209.606 551.764 215.085C554.503 220.563 558.041 225.128 562.378 228.781C566.944 232.205 571.966 234.83 577.444 236.656C583.151 238.254 588.857 239.053 594.564 239.053C599.814 239.053 604.836 238.368 609.629 236.998C614.651 235.629 618.988 233.688 622.64 231.177C626.521 228.666 629.602 225.471 631.885 221.59C634.168 217.71 635.309 213.373 635.309 208.579H670.576C670.576 219.536 668.521 229.009 664.413 236.998C660.532 244.759 655.168 251.265 648.32 256.515C641.472 261.537 633.483 265.303 624.352 267.814C615.45 270.097 605.977 271.238 595.933 271.238C585.661 271.238 575.504 269.754 565.46 266.787C555.645 263.819 546.742 259.254 538.753 253.091C530.992 246.928 524.601 239.053 519.579 229.465C514.785 219.878 512.388 208.579 512.388 195.568V164.41C512.388 151.171 514.785 139.757 519.579 130.17C524.372 120.583 530.65 112.708 538.411 106.545C546.4 100.382 555.302 95.8164 565.118 92.849C575.161 89.8815 585.319 88.3978 595.591 88.3978C605.635 88.3978 615.108 89.6533 624.01 92.1642C633.14 94.4468 641.13 98.2132 647.978 103.463C654.826 108.485 660.19 114.991 664.07 122.98C668.179 130.969 670.233 140.442 670.233 151.399H634.967C634.967 146.605 633.825 142.382 631.543 138.73C629.26 134.85 626.178 131.654 622.298 129.143C618.646 126.632 614.423 124.692 609.629 123.322C604.836 121.953 599.814 121.268 594.564 121.268C588.857 121.268 583.151 122.181 577.444 124.007C571.966 125.605 566.944 128.116 562.378 131.54C558.041 134.964 554.503 139.415 551.764 144.893C549.025 150.372 547.655 156.877 547.655 164.41V195.568Z" fill="#272730"/>
<path d="M364.085 189.747V195.91C364.085 200.704 364.998 205.726 366.824 210.976C368.879 215.998 371.732 220.677 375.384 225.014C379.265 229.123 383.944 232.547 389.422 235.286C395.129 237.797 401.749 239.053 409.281 239.053C414.76 239.053 420.124 238.482 425.374 237.341C430.624 236.199 435.19 234.487 439.07 232.205C443.179 229.694 446.489 226.726 449 223.302C451.51 219.65 452.766 215.427 452.766 210.634H487.69C487.69 218.395 485.75 225.927 481.87 233.232C478.217 240.536 472.967 247.042 466.119 252.748C459.5 258.227 451.739 262.678 442.836 266.102C433.934 269.298 424.347 270.895 414.075 270.895H404.145C392.276 270.895 381.661 268.727 372.303 264.39C362.944 259.825 355.069 254.004 348.677 246.928C342.286 239.623 337.378 231.52 333.954 222.617C330.53 213.715 328.818 204.813 328.818 195.91V164.41C328.818 155.508 330.644 146.605 334.297 137.703C337.949 128.801 343.085 120.697 349.704 113.393C356.324 106.088 364.427 100.153 374.015 95.5882C383.602 91.0229 394.33 88.7402 406.2 88.7402H412.021C422.293 88.7402 432.108 90.6805 441.467 94.561C450.826 98.4415 459.043 103.692 466.119 110.311C472.054 116.018 476.62 121.724 479.815 127.431C483.011 132.909 485.294 138.73 486.663 144.893C488.033 150.828 488.832 157.105 489.06 163.725C489.288 170.345 489.402 177.421 489.402 184.954V189.747H364.085ZM455.163 160.301C455.163 154.366 453.907 149.002 451.396 144.209C449.114 139.187 445.918 134.964 441.809 131.54C437.929 128.116 433.363 125.491 428.113 123.665C422.863 121.839 417.385 120.926 411.678 120.926C404.83 120.926 398.553 122.181 392.846 124.692C387.368 126.975 382.574 130.056 378.466 133.937C374.357 137.589 371.047 141.812 368.536 146.605C366.254 151.171 364.884 155.736 364.427 160.301H455.163Z" fill="#272730"/>
<path d="M277.796 268.156L264.785 206.525C263.415 200.59 261.817 195.796 259.991 192.144C258.165 188.492 255.996 185.639 253.485 183.584C250.975 181.53 248.121 180.16 244.926 179.475C241.73 178.791 238.192 178.448 234.311 178.448H182.267V268.156H147L147 35.6687H241.159C250.746 35.6687 259.763 37.3807 268.209 40.8046C276.654 44.0003 283.959 48.5656 290.122 54.5005C296.513 60.4354 301.535 67.5116 305.187 75.7291C309.068 83.7184 311.008 92.6207 311.008 102.436C311.008 116.589 307.356 128.801 300.051 139.073C292.747 149.345 281.79 157.105 267.181 162.356C276.997 165.551 284.529 170.687 289.78 177.763C295.03 184.84 298.225 191.573 299.367 197.965L313.063 268.156H277.796ZM182.267 67.5116L182.267 146.948H232.599C239.675 146.948 245.839 145.806 251.089 143.524C256.567 141.241 261.132 138.274 264.785 134.621C268.437 130.741 271.176 126.518 273.002 121.953C274.828 117.159 275.741 112.251 275.741 107.23C275.741 102.208 274.828 97.4143 273.002 92.849C271.404 88.0554 268.779 83.8325 265.127 80.1803C261.475 76.2998 256.909 73.2182 251.431 70.9356C246.181 68.6529 239.904 67.5116 232.599 67.5116H182.267Z" fill="#272730"/>
</g>
</svg>
