<svg width="536" height="536" viewBox="0 0 536 536" fill="none" xmlns="http://www.w3.org/2000/svg">
<path d="M512 268C512 402.757 402.757 512 268 512C133.243 512 24 402.757 24 268C24 133.243 133.243 24 268 24C402.757 24 512 133.243 512 268Z" fill="url(#paint0_linear_160_1042)"/>
<path d="M512 268C512 133.243 402.757 24 268 24C133.243 24 24 133.243 24 268C24 402.757 133.243 512 268 512C402.757 512 512 402.757 512 268ZM536 268C536 416.012 416.012 536 268 536C119.988 536 0 416.012 0 268C0 119.988 119.988 0 268 0C416.012 0 536 119.988 536 268Z" fill="url(#paint1_linear_160_1042)"/>
<path d="M186.477 245.173C186.465 238.185 193.684 234.581 198.053 239.399C229.818 276.399 261.936 313.05 293.476 350.254H258.392C234.727 322.071 210.421 294.636 186.53 266.685L186.477 245.173Z" fill="white"/>
<path d="M294.489 185.041C303.621 185.222 312.916 184.307 321.923 186.492C329.045 188.226 336.38 193.384 338.39 202.017C341.689 213.504 336.107 225.326 329.354 233.49C317.762 247.27 305.872 260.731 294.199 274.395C291.884 276.164 293.89 278.458 295.223 279.931C315.553 303.29 335.689 326.837 356 350.254H320.827C299.633 325.72 278.564 301.112 257.32 276.686L312.3 213.896H231.302C227.941 213.896 224.578 213.915 221.218 213.937C211.91 213.973 202.933 209.835 196.235 202.361L180.875 185.189C218.731 184.848 256.62 185.15 294.489 185.041Z" fill="white"/>
<defs>
<linearGradient id="paint0_linear_160_1042" x1="116.739" y1="72.8" x2="534.078" y2="250.074" gradientUnits="userSpaceOnUse">
<stop stop-color="#FFA0C9"/>
<stop offset="1" stop-color="#6E90FF"/>
</linearGradient>
<linearGradient id="paint1_linear_160_1042" x1="143.5" y1="59.5" x2="386.5" y2="480.388" gradientUnits="userSpaceOnUse">
<stop stop-color="#FEEAFF"/>
<stop offset="1" stop-color="#E8E4FF"/>
</linearGradient>
</defs>
</svg>
