<svg width="24" height="24" viewBox="0 0 24 24" fill="none" xmlns="http://www.w3.org/2000/svg">
<path d="M16.6707 9.46643C16.6707 9.28546 16.4519 9.19484 16.324 9.3228L6.79042 18.8564C6.71109 18.9357 6.58248 18.9357 6.50316 18.8564L5.14362 17.4968C5.0643 17.4175 5.0643 17.2889 5.14361 17.2096L14.6761 7.67601C14.804 7.54804 14.7134 7.32926 14.5324 7.32926H6.39221C6.28003 7.32926 6.18909 7.23831 6.18909 7.12613V5.20313C6.18909 5.09094 6.28003 5 6.39221 5H18.7969C18.9091 5 19 5.09094 19 5.20313V17.6078C19 17.72 18.9091 17.8109 18.7969 17.8109H16.8739C16.7617 17.8109 16.6707 17.72 16.6707 17.6078V9.46643Z" fill="#202028"/>
</svg>
