<svg fill="none" height="60" viewBox="0 0 180 60" width="180" xmlns="http://www.w3.org/2000/svg"><rect fill="#000" height="60" rx="9" width="180"/><path d="m26.6978 29.1925-14.5728 15.8164c.0014.0028.0014.007.0027.0098.4476 1.7174 1.9806 2.9813 3.801 2.9813.7282 0 1.4111-.2016 1.997-.5543l.0465-.028 16.4028-9.6787z" fill="#ea4335"/><path d="m41.4488 26.4964-.0137-.0098-7.0818-4.1977-7.9783 7.2602 8.007 8.1853 7.0435-4.1557c1.2346-.683 2.0736-2.0141 2.0736-3.5482 0-1.5256-.8267-2.8497-2.0503-3.5341z" fill="#fbbc04"/><path d="m12.1341 14.9967c-.0876.3303-.1341.6775-.1341 1.0358v27.9488c0 .3583.0465.7054.1355 1.0343l15.0724-15.4118z" fill="#4285f4"/><path d="m26.806 30 7.5416-7.7108-16.3836-9.7138c-.5954-.3653-1.2907-.5753-2.0339-.5753-1.8204 0-3.3562 1.2667-3.8037 2.9855 0 .0014-.0014.0028-.0014.0042z" fill="#34a853"/><g fill="#fff"><path d="m114.247 22.9822h-1.38v-10.74h1.68l5.22 8.355h.06l-.06-2.07v-6.285h1.38v10.74h-1.44l-5.46-8.76h-.06l.06 2.07z"/><path d="m111.235 17.61c0 1.59-.53 2.92-1.59 3.99-1.07 1.08-2.38 1.62-3.93 1.62-1.56 0-2.87-.54-3.93-1.62-1.06-1.07-1.59-2.4-1.59-3.99s.53-2.92 1.59-3.99c1.06-1.08 2.37-1.62 3.93-1.62s2.87.545 3.93 1.635c1.06 1.07 1.59 2.395 1.59 3.975zm-9.63 0c0 1.24.39 2.265 1.17 3.075.79.81 1.77 1.215 2.94 1.215s2.145-.405 2.925-1.215c.79-.8 1.185-1.825 1.185-3.075s-.395-2.275-1.185-3.075c-.78-.81-1.755-1.215-2.925-1.215s-2.15.405-2.94 1.215c-.78.81-1.17 1.835-1.17 3.075z"/><path d="m93.2628 13.5622v9.42h-1.38v-9.42h-3v-1.32h7.38v1.32z"/><path d="m87.4425 22.9822h-1.38v-10.74h1.38z"/><path d="m78.3253 13.5622v9.42h-1.38v-9.42h-3v-1.32h7.38v1.32z"/><path d="m72.8091 12.2422v1.32h-4.89v3.405h4.41v1.29h-4.41v3.405h4.89v1.32h-6.27v-10.74z"/><path d="m64.86 18.045c0 1.5-.445 2.695-1.335 3.585-1 1.06-2.315 1.59-3.945 1.59-1.56 0-2.88-.54-3.96-1.62s-1.62-2.41-1.62-3.99.54-2.91 1.62-3.99 2.4-1.62 3.96-1.62c.79 0 1.535.14 2.235.42s1.275.675 1.725 1.185l-.99.99c-.33-.4-.76-.71-1.29-.93-.52-.23-1.08-.345-1.68-.345-1.17 0-2.16.405-2.97 1.215-.8.82-1.2 1.845-1.2 3.075s.4 2.255 1.2 3.075c.81.81 1.8 1.215 2.97 1.215 1.07 0 1.96-.3 2.67-.9s1.12-1.425 1.23-2.475h-3.9v-1.29h5.205c.05.28.075.55.075.81z"/><path d="m140.277 44.8332h2.443v-16.5172h-2.443zm22.006-10.5675-2.801 7.1613h-.083l-2.907-7.1613h-2.632l4.359 10.0086-2.484 5.5679h2.547l6.718-15.5765zm-13.855 8.6913c-.802 0-1.917-.403-1.917-1.4032 0-1.2737 1.389-1.7626 2.59-1.7626 1.073 0 1.58.2339 2.232.5523-.19 1.5301-1.495 2.6135-2.905 2.6135zm.294-9.052c-1.769 0-3.602.7861-4.358 2.5289l2.168.913c.463-.913 1.326-1.2116 2.232-1.2116 1.264 0 2.548.765 2.569 2.1259v.1691c-.442-.255-1.389-.6368-2.548-.6368-2.337 0-4.717 1.2961-4.717 3.718 0 2.2105 1.917 3.6349 4.064 3.6349 1.643 0 2.549-.7439 3.117-1.6159h.084v1.275h2.358v-6.3329c0-2.9319-2.168-4.5676-4.969-4.5676m-15.099 2.3717h-3.475v-5.6617h3.475c1.827 0 2.864 1.5261 2.864 2.8302 0 1.2803-1.037 2.8315-2.864 2.8315zm-.063-7.9607h-5.854v16.5172h2.442v-6.2575h3.412c2.708 0 5.37-1.9793 5.37-5.1305 0-3.1513-2.662-5.1292-5.37-5.1292m-31.923 14.6437c-1.6873 0-3.1-1.4257-3.1-3.3838 0-1.9793 1.4127-3.4274 3.1-3.4274 1.667 0 2.974 1.4481 2.974 3.4274 0 1.9581-1.307 3.3838-2.974 3.3838zm2.806-7.7691h-.085c-.548-.6594-1.602-1.2552-2.931-1.2552-2.7853 0-5.3372 2.4681-5.3372 5.6405 0 3.1499 2.5519 5.5982 5.3372 5.5982 1.329 0 2.383-.5959 2.931-1.2777h.085v.81c0 2.1497-1.139 3.2992-2.974 3.2992-1.4983 0-2.4266-1.0861-2.8063-2.0017l-2.1303.8945c.6114 1.4904 2.2363 3.3204 4.9366 3.3204 2.868 0 5.294-1.7032 5.294-5.8533v-10.0906h-2.32zm4.008 9.6426h2.447v-16.5186h-2.447zm6.053-5.4489c-.063-2.1709 1.667-3.2781 2.911-3.2781.971 0 1.794.4889 2.067 1.1918zm7.594-1.8736c-.463-1.2552-1.877-3.5753-4.767-3.5753-2.869 0-5.252 2.2765-5.252 5.6193 0 3.15 2.362 5.6194 5.526 5.6194 2.553 0 4.03-1.5749 4.641-2.4906l-1.898-1.2777c-.633.9368-1.498 1.5539-2.743 1.5539-1.244 0-2.131-.5748-2.7-1.7018l7.446-3.109zm-59.3229-1.8511v2.3836h5.6524c-.1689 1.3411-.6114 2.3202-1.2857 3.0006-.8236.8311-2.1107 1.7467-4.3667 1.7467-3.4815 0-6.2023-2.8315-6.2023-6.3434 0-3.5133 2.7208-6.3434 6.2023-6.3434 1.8776 0 3.2485.7452 4.2606 1.7031l1.6668-1.682c-1.4141-1.3622-3.2904-2.406-5.9274-2.406-4.7672 0-8.7751 3.9175-8.7751 8.7283s4.0079 8.727 8.7751 8.727c2.5729 0 4.5133-.8522 6.0321-2.4483 1.5621-1.575 2.0465-3.7881 2.0465-5.5771 0-.5536-.0419-1.0636-.127-1.4891zm14.5061 7.3001c-1.6877 0-3.1437-1.4046-3.1437-3.405 0-2.0228 1.456-3.4062 3.1437-3.4062 1.6865 0 3.1424 1.3834 3.1424 3.4062 0 2.0004-1.4559 3.405-3.1424 3.405zm0-9.0243c-3.0808 0-5.5908 2.3624-5.5908 5.6193 0 3.2358 2.51 5.6194 5.5908 5.6194 3.0796 0 5.5896-2.3836 5.5896-5.6194 0-3.2569-2.51-5.6193-5.5896-5.6193zm12.1939 9.0243c-1.6878 0-3.1437-1.4046-3.1437-3.405 0-2.0228 1.4559-3.4062 3.1437-3.4062 1.6877 0 3.1424 1.3834 3.1424 3.4062 0 2.0004-1.4547 3.405-3.1424 3.405zm0-9.0243c-3.0796 0-5.5896 2.3624-5.5896 5.6193 0 3.2358 2.51 5.6194 5.5896 5.6194 3.0795 0 5.5895-2.3836 5.5895-5.6194 0-3.2569-2.51-5.6193-5.5895-5.6193z"/></g></svg>