<svg width="80" height="80" viewBox="0 0 80 80" fill="none" xmlns="http://www.w3.org/2000/svg">
<path d="M19.8721 17.0014C21.3052 16.9921 22.7383 16.9859 24.1715 16.9859H45.3161H58.708L35.2655 43.7577C44.3233 54.1719 53.3064 64.6635 62.3429 75.124H77.3387C68.6785 65.1399 60.0957 55.1001 51.4276 45.1407C50.8591 44.5126 50.0025 43.535 50.9899 42.78C55.9672 36.9542 61.0352 31.2149 65.9777 25.3395C68.8573 21.8589 71.2379 16.8188 69.8314 11.9212C68.9747 8.23937 65.8469 6.03958 62.8099 5.30013C58.9695 4.36886 55.0064 4.75869 51.1127 4.68135C34.9666 4.72776 18.8126 4.6009 2.67188 4.74632L9.22103 12.0666C12.0766 15.2533 15.9036 17.0169 19.8721 17.0014Z" fill="white"/>
<path d="M50.6824 75.1272C37.2345 59.2646 23.5411 43.6372 9.99706 27.8612C8.13426 25.8068 5.05717 27.3445 5.06251 30.324L5.08385 39.4944C15.2705 51.4122 25.6334 63.1104 35.724 75.1272H50.6824Z" fill="white"/>
</svg>
