<svg width="164" height="48" viewBox="0 0 164 48" fill="none" xmlns="http://www.w3.org/2000/svg">
<circle cx="24" cy="24" r="24" fill="url(#paint0_linear_276_989)"/>
<path d="M16.7203 15.5008C17.2731 15.4973 17.8258 15.4949 18.3786 15.4949H26.5344H31.6998L22.6578 25.8211C26.1515 29.8379 29.6164 33.8846 33.1019 37.9194H38.8859C35.5456 34.0684 32.2351 30.1959 28.8917 26.3545C28.6724 26.1122 28.342 25.7351 28.7229 25.444C30.6427 23.1968 32.5975 20.9832 34.5039 18.717C35.6146 17.3744 36.5328 15.4304 35.9903 13.5413C35.6599 12.1212 34.4534 11.2727 33.282 10.9875C31.8007 10.6283 30.2721 10.7787 28.7702 10.7489C22.5425 10.7668 16.3116 10.7178 10.0859 10.7739L12.612 13.5974C13.7135 14.8266 15.1896 15.5068 16.7203 15.5008Z" fill="white"/>
<path d="M28.5884 37.9137C23.4014 31.7953 18.1196 25.7676 12.8955 19.6826C12.177 18.8902 10.9901 19.4833 10.9922 20.6325L11.0004 24.1697C14.9296 28.7665 18.9267 33.2786 22.8187 37.9137H28.5884Z" fill="white"/>
<path d="M145.501 18.7944V26.7688C145.501 27.1704 145.578 27.5911 145.731 28.0309C145.884 28.4517 146.113 28.8437 146.419 29.207C146.744 29.5513 147.136 29.8381 147.595 30.0676C148.073 30.2971 148.628 30.4118 149.259 30.4118C149.814 30.4118 150.32 30.2971 150.779 30.0676C151.257 29.8381 151.659 29.5513 151.984 29.207C152.328 28.8437 152.586 28.4517 152.759 28.0309C152.95 27.5911 153.045 27.1704 153.045 26.7688V18.7944H156V34.1409C156 34.8293 155.866 35.4891 155.598 36.1201C155.35 36.7703 154.967 37.344 154.451 37.8412C153.954 38.3384 153.323 38.7305 152.558 39.0173C151.812 39.3233 150.942 39.4763 149.947 39.4763C148.972 39.4763 148.102 39.3328 147.337 39.046C146.591 38.7591 145.96 38.3767 145.444 37.8986C144.928 37.4396 144.526 36.8946 144.239 36.2635C143.971 35.6516 143.818 35.011 143.78 34.3417H146.677C146.716 34.7432 146.83 35.097 147.022 35.403C147.213 35.709 147.461 35.9576 147.767 36.1488C148.073 36.3592 148.408 36.5122 148.771 36.6078C149.154 36.7225 149.546 36.7799 149.947 36.7799C150.349 36.7799 150.732 36.7225 151.095 36.6078C151.477 36.5122 151.812 36.3496 152.099 36.1201C152.386 35.9098 152.615 35.6325 152.787 35.2883C152.959 34.9632 153.045 34.5711 153.045 34.1122V31.2437C152.51 31.8174 151.888 32.2763 151.181 32.6206C150.473 32.9456 149.689 33.1082 148.829 33.1082C147.834 33.1082 146.945 32.917 146.161 32.5345C145.377 32.152 144.717 31.6548 144.182 31.0429C143.646 30.4309 143.235 29.7521 142.948 29.0062C142.681 28.2604 142.547 27.5146 142.547 26.7688V18.7944H145.501Z" fill="#202028"/>
<path d="M137.399 13L140.354 13V33.5385H137.399V13Z" fill="#202028"/>
<path d="M135.442 33.7393C135.366 33.7584 135.242 33.768 135.07 33.768C134.897 33.7871 134.716 33.7966 134.525 33.7966C134.333 33.8158 134.152 33.8253 133.98 33.8253C133.807 33.8253 133.674 33.8253 133.578 33.8253C131.914 33.8253 130.729 33.4046 130.021 32.5632C129.313 31.7026 128.96 30.3927 128.96 28.6333V21.29H126.034V19.5115C126.512 19.5115 126.99 19.4541 127.468 19.3394C127.946 19.2055 128.367 18.9856 128.73 18.6796C129.113 18.3545 129.419 17.9147 129.648 17.3601C129.878 16.8055 129.992 16.1075 129.992 15.2661H131.914V18.7944H135.557V21.29H131.914V28.576C131.914 29.513 132.096 30.1441 132.459 30.4692C132.823 30.7752 133.396 30.9281 134.18 30.9281H135.787L135.442 33.7393Z" fill="#202028"/>
<path d="M124.415 18.7944V33.5385H121.461V18.7944H124.415ZM124.415 13.0287V16.0693H121.432V13.0287L124.415 13.0287Z" fill="#202028"/>
<path d="M108.721 26.9696V27.4859C108.721 27.8875 108.797 28.3082 108.95 28.7481C109.122 29.1688 109.361 29.5608 109.667 29.9242C109.992 30.2684 110.384 30.5552 110.843 30.7847C111.321 30.9951 111.876 31.1002 112.507 31.1002C112.966 31.1002 113.415 31.0524 113.855 30.9568C114.295 30.8612 114.678 30.7178 115.003 30.5265C115.347 30.3162 115.624 30.0676 115.834 29.7807C116.045 29.4748 116.15 29.121 116.15 28.7194H119.076C119.076 29.3696 118.913 30.0007 118.588 30.6126C118.282 31.2245 117.842 31.7696 117.269 32.2476C116.714 32.7066 116.064 33.0795 115.318 33.3664C114.572 33.6341 113.769 33.768 112.909 33.768H112.077C111.082 33.768 110.193 33.5863 109.409 33.2229C108.625 32.8405 107.965 32.3528 107.43 31.76C106.894 31.1481 106.483 30.4692 106.196 29.7234C105.909 28.9776 105.766 28.2317 105.766 27.4859V24.8469C105.766 24.1011 105.919 23.3553 106.225 22.6095C106.531 21.8637 106.961 21.1848 107.516 20.5728C108.07 19.9609 108.749 19.4637 109.552 19.0812C110.356 18.6988 111.254 18.5075 112.249 18.5075H112.737C113.597 18.5075 114.419 18.6701 115.203 18.9952C115.987 19.3203 116.676 19.7601 117.269 20.3147C117.766 20.7928 118.148 21.2708 118.416 21.7489C118.684 22.2079 118.875 22.6955 118.99 23.2119C119.105 23.7091 119.172 24.235 119.191 24.7895C119.21 25.3441 119.219 25.9369 119.219 26.568V26.9696H108.721ZM116.351 24.5027C116.351 24.0055 116.246 23.5561 116.035 23.1545C115.844 22.7338 115.576 22.38 115.232 22.0931C114.907 21.8063 114.525 21.5864 114.085 21.4334C113.645 21.2804 113.186 21.2039 112.708 21.2039C112.134 21.2039 111.608 21.3091 111.13 21.5194C110.671 21.7107 110.27 21.9688 109.925 22.2939C109.581 22.5999 109.304 22.9537 109.094 23.3553C108.902 23.7378 108.788 24.1202 108.749 24.5027H116.351Z" fill="#202028"/>
<path d="M93.5657 27.4572C93.5657 28.0883 93.6805 28.6333 93.9099 29.0923C94.1394 29.5513 94.4358 29.9337 94.7992 30.2397C95.1816 30.5265 95.6024 30.7465 96.0613 30.8995C96.5394 31.0333 97.0175 31.1002 97.4956 31.1002C97.9354 31.1002 98.3561 31.0429 98.7577 30.9281C99.1784 30.8134 99.5418 30.6508 99.8477 30.4405C100.173 30.2301 100.431 29.9624 100.622 29.6373C100.813 29.3122 100.909 28.9489 100.909 28.5473H103.864C103.864 29.4652 103.692 30.2588 103.347 30.9281C103.022 31.5783 102.573 32.1233 101.999 32.5632C101.425 32.9839 100.756 33.2994 99.9912 33.5098C99.2454 33.701 98.4517 33.7966 97.6103 33.7966C96.7498 33.7966 95.8988 33.6723 95.0573 33.4237C94.235 33.1751 93.4892 32.7927 92.8199 32.2763C92.1697 31.76 91.6343 31.1002 91.2136 30.2971C90.812 29.4939 90.6112 28.5473 90.6112 27.4572V24.8469C90.6112 23.7378 90.812 22.7816 91.2136 21.9784C91.6151 21.1752 92.141 20.5155 92.7912 19.9991C93.4605 19.4828 94.2064 19.1003 95.0287 18.8517C95.8701 18.6031 96.7211 18.4788 97.5816 18.4788C98.4231 18.4788 99.2167 18.584 99.9625 18.7944C100.727 18.9856 101.397 19.3011 101.97 19.741C102.544 20.1617 102.994 20.7067 103.319 21.376C103.663 22.0453 103.835 22.839 103.835 23.7569H100.88C100.88 23.3553 100.785 23.0015 100.594 22.6955C100.402 22.3704 100.144 22.1027 99.8191 21.8924C99.5131 21.682 99.1593 21.5195 98.7577 21.4047C98.3561 21.29 97.9354 21.2326 97.4956 21.2326C97.0175 21.2326 96.5394 21.3091 96.0613 21.4621C95.6024 21.5959 95.1816 21.8063 94.7992 22.0931C94.4358 22.38 94.1394 22.7529 93.9099 23.2119C93.6805 23.6708 93.5657 24.2158 93.5657 24.8469V27.4572Z" fill="#202028"/>
<path d="M78.1867 26.9696V27.4859C78.1867 27.8875 78.2632 28.3082 78.4162 28.7481C78.5883 29.1688 78.8274 29.5608 79.1334 29.9242C79.4585 30.2684 79.8505 30.5552 80.3094 30.7847C80.7875 30.9951 81.3421 31.1002 81.9732 31.1002C82.4321 31.1002 82.8815 31.0524 83.3214 30.9568C83.7612 30.8612 84.1437 30.7178 84.4688 30.5265C84.813 30.3162 85.0903 30.0676 85.3006 29.7807C85.511 29.4748 85.6162 29.121 85.6162 28.7194H88.542C88.542 29.3696 88.3795 30.0007 88.0544 30.6126C87.7484 31.2245 87.3086 31.7696 86.7349 32.2476C86.1803 32.7066 85.5301 33.0795 84.7843 33.3664C84.0385 33.6341 83.2353 33.768 82.3748 33.768H81.5429C80.5485 33.768 79.6592 33.5863 78.8752 33.2229C78.0911 32.8405 77.4314 32.3528 76.8959 31.76C76.3605 31.1481 75.9493 30.4692 75.6625 29.7234C75.3756 28.9776 75.2322 28.2317 75.2322 27.4859V24.8469C75.2322 24.1011 75.3852 23.3553 75.6912 22.6095C75.9971 21.8637 76.4274 21.1848 76.982 20.5728C77.5366 19.9609 78.2154 19.4637 79.0186 19.0812C79.8218 18.6988 80.7206 18.5075 81.715 18.5075H82.2027C83.0632 18.5075 83.8855 18.6701 84.6696 18.9952C85.4536 19.3203 86.1421 19.7601 86.7349 20.3147C87.2321 20.7928 87.6146 21.2708 87.8823 21.7489C88.15 22.2079 88.3412 22.6955 88.456 23.2119C88.5707 23.7091 88.6377 24.235 88.6568 24.7895C88.6759 25.3441 88.6855 25.9369 88.6855 26.568V26.9696H78.1867ZM85.817 24.5027C85.817 24.0055 85.7118 23.5561 85.5014 23.1545C85.3102 22.7338 85.0425 22.38 84.6982 22.0931C84.3731 21.8063 83.9907 21.5864 83.5508 21.4334C83.111 21.2804 82.652 21.2039 82.174 21.2039C81.6003 21.2039 81.0744 21.3091 80.5963 21.5194C80.1373 21.7107 79.7357 21.9688 79.3915 22.2939C79.0473 22.5999 78.77 22.9537 78.5597 23.3553C78.3684 23.7378 78.2537 24.1202 78.2154 24.5027H85.817Z" fill="#202028"/>
<path d="M70.9577 33.5385L69.8676 28.3752C69.7529 27.878 69.619 27.4764 69.4661 27.1704C69.3131 26.8644 69.1314 26.6254 68.921 26.4533C68.7107 26.2812 68.4716 26.1664 68.2039 26.1091C67.9362 26.0517 67.6398 26.023 67.3147 26.023H62.9546V33.5385H60L60 14.0613H67.8884C68.6916 14.0613 69.4469 14.2048 70.1545 14.4916C70.8621 14.7593 71.474 15.1418 71.9903 15.639C72.5258 16.1362 72.9465 16.7291 73.2525 17.4175C73.5776 18.0868 73.7401 18.8326 73.7401 19.6549C73.7401 20.8406 73.4341 21.8637 72.8222 22.7242C72.2103 23.5848 71.2923 24.235 70.0684 24.6748C70.8907 24.9425 71.5218 25.3728 71.9617 25.9656C72.4015 26.5585 72.6692 27.1226 72.7648 27.658L73.9122 33.5385H70.9577ZM62.9546 16.7291L62.9546 23.384H67.1713C67.7641 23.384 68.2804 23.2884 68.7202 23.0971C69.1792 22.9059 69.5617 22.6573 69.8676 22.3513C70.1736 22.0262 70.4031 21.6724 70.5561 21.29C70.7091 20.8884 70.7856 20.4772 70.7856 20.0565C70.7856 19.6358 70.7091 19.2342 70.5561 18.8517C70.4222 18.4502 70.2023 18.0964 69.8963 17.7904C69.5904 17.4653 69.2079 17.2071 68.7489 17.0159C68.3091 16.8247 67.7832 16.7291 67.1713 16.7291H62.9546Z" fill="#202028"/>
<defs>
<linearGradient id="paint0_linear_276_989" x1="4.92188" y1="8.4" x2="45.2512" y2="25.5941" gradientUnits="userSpaceOnUse">
<stop stop-color="#FF69AA"/>
<stop offset="1" stop-color="#3C69FF"/>
</linearGradient>
</defs>
</svg>
